G04 Layer: TopSolderMaskLayer*
G04 EasyEDA v6.4.17, 2021-08-18T09:55:10--4:00*
G04 6e8a5ac20ec34cd9bcedad4da788ba3a,10*
G04 Gerber Generator version 0.2*
G04 Scale: 100 percent, Rotated: No, Reflected: No *
G04 Dimensions in millimeters *
G04 leading zeros omitted , absolute positions ,4 integer and 5 decimal *
%FSLAX45Y45*%
%MOMM*%

%ADD70C,1.0516*%
%ADD71C,0.8032*%
%ADD72C,0.3816*%
%ADD73C,4.7032*%
%ADD74C,4.6032*%
%ADD82C,1.9016*%
%ADD88R,1.4732X0.8382*%
%ADD92R,2.4032X3.7032*%
%ADD93R,2.4032X1.3032*%
%ADD94C,2.0032*%
%ADD98C,3.7032*%
%ADD99C,1.7432*%
%ADD102C,1.8542*%

%LPD*%
D70*
X7336502Y7578801D02*
G01*
X7446502Y7578801D01*
X7336502Y8143798D02*
G01*
X7446502Y8143798D01*
D71*
X4737712Y9982200D02*
G01*
X4645708Y9982200D01*
X4737712Y9855200D02*
G01*
X4645708Y9855200D01*
X4737712Y9728200D02*
G01*
X4645708Y9728200D01*
X4737712Y9601200D02*
G01*
X4645708Y9601200D01*
X5285691Y9982200D02*
G01*
X5193690Y9982200D01*
X5285691Y9855200D02*
G01*
X5193690Y9855200D01*
X5285691Y9728200D02*
G01*
X5193690Y9728200D01*
X5285691Y9601200D02*
G01*
X5193690Y9601200D01*
D72*
X6515150Y7692567D02*
G01*
X6471310Y7736408D01*
X6479768Y7657185D02*
G01*
X6435928Y7701026D01*
X6444386Y7621803D02*
G01*
X6400545Y7665643D01*
X6409004Y7586421D02*
G01*
X6365163Y7630261D01*
X6373622Y7551038D02*
G01*
X6329781Y7594879D01*
X6338239Y7515656D02*
G01*
X6294399Y7559497D01*
X6302857Y7480274D02*
G01*
X6259017Y7524114D01*
X6161608Y7524089D02*
G01*
X6117767Y7480249D01*
X6126225Y7559471D02*
G01*
X6082385Y7515631D01*
X6090843Y7594854D02*
G01*
X6047003Y7551013D01*
X6055461Y7630236D02*
G01*
X6011621Y7586395D01*
X6020079Y7665618D02*
G01*
X5976238Y7621778D01*
X5984697Y7701000D02*
G01*
X5940856Y7657160D01*
X5949315Y7736382D02*
G01*
X5905474Y7692542D01*
X5949315Y7833817D02*
G01*
X5905474Y7877657D01*
X5984697Y7869199D02*
G01*
X5940856Y7913039D01*
X6020079Y7904581D02*
G01*
X5976238Y7948421D01*
X6055461Y7939963D02*
G01*
X6011621Y7983804D01*
X6090843Y7975345D02*
G01*
X6047003Y8019186D01*
X6126225Y8010728D02*
G01*
X6082385Y8054568D01*
X6161608Y8046110D02*
G01*
X6117767Y8089950D01*
X6302857Y8089925D02*
G01*
X6259017Y8046085D01*
X6338239Y8054543D02*
G01*
X6294399Y8010702D01*
X6373622Y8019161D02*
G01*
X6329781Y7975320D01*
X6409004Y7983778D02*
G01*
X6365163Y7939938D01*
X6444386Y7948396D02*
G01*
X6400545Y7904556D01*
X6479768Y7913014D02*
G01*
X6435928Y7869173D01*
X6515150Y7877632D02*
G01*
X6471310Y7833791D01*
D73*
G01*
X7454900Y9944100D03*
G01*
X7429500Y5981700D03*
G01*
X965200Y5994400D03*
G01*
X950010Y9940010D03*
D74*
G01*
X1469999Y7239990D03*
G36*
X2908045Y9603486D02*
G01*
X2908045Y9670034D01*
X2972054Y9670034D01*
X2972054Y9603486D01*
G37*
G36*
X2908045Y9689845D02*
G01*
X2908045Y9756647D01*
X2972054Y9756647D01*
X2972054Y9689845D01*
G37*
G36*
X6145022Y7039863D02*
G01*
X6145022Y7140194D01*
X6235191Y7140194D01*
X6235191Y7039863D01*
G37*
G36*
X6284975Y7039863D02*
G01*
X6284975Y7140194D01*
X6375145Y7140194D01*
X6375145Y7039863D01*
G37*
G36*
X1819910Y9815068D02*
G01*
X1819910Y9905237D01*
X1919986Y9905237D01*
X1919986Y9815068D01*
G37*
G36*
X1480057Y9815068D02*
G01*
X1480057Y9905237D01*
X1580134Y9905237D01*
X1580134Y9815068D01*
G37*
G36*
X1894839Y9994900D02*
G01*
X1894839Y10125202D01*
X1965197Y10125202D01*
X1965197Y9994900D01*
G37*
G36*
X1434845Y9994900D02*
G01*
X1434845Y10125202D01*
X1505204Y10125202D01*
X1505204Y9994900D01*
G37*
G36*
X1267968Y7941310D02*
G01*
X1267968Y8078470D01*
X1378204Y8078470D01*
X1378204Y7941310D01*
G37*
G36*
X1394968Y7941310D02*
G01*
X1394968Y8078470D01*
X1505204Y8078470D01*
X1505204Y7941310D01*
G37*
G36*
X1521968Y7941310D02*
G01*
X1521968Y8078470D01*
X1632204Y8078470D01*
X1632204Y7941310D01*
G37*
G36*
X1521968Y8261350D02*
G01*
X1521968Y8398510D01*
X1632204Y8398510D01*
X1632204Y8261350D01*
G37*
G36*
X1394968Y8261350D02*
G01*
X1394968Y8398510D01*
X1505204Y8398510D01*
X1505204Y8261350D01*
G37*
G36*
X1267968Y8261350D02*
G01*
X1267968Y8398510D01*
X1378204Y8398510D01*
X1378204Y8261350D01*
G37*
G36*
X1819910Y8174736D02*
G01*
X1819910Y8245094D01*
X1920239Y8245094D01*
X1920239Y8174736D01*
G37*
G36*
X1819910Y8074913D02*
G01*
X1819910Y8145271D01*
X1920239Y8145271D01*
X1920239Y8074913D01*
G37*
G36*
X2431541Y9882631D02*
G01*
X2431541Y9972547D01*
X2521458Y9972547D01*
X2521458Y9882631D01*
G37*
G36*
X2431541Y9712452D02*
G01*
X2431541Y9802368D01*
X2521458Y9802368D01*
X2521458Y9712452D01*
G37*
G36*
X2215641Y9882631D02*
G01*
X2215641Y9972547D01*
X2305558Y9972547D01*
X2305558Y9882631D01*
G37*
G36*
X2215641Y9712452D02*
G01*
X2215641Y9802368D01*
X2305558Y9802368D01*
X2305558Y9712452D01*
G37*
D82*
G01*
X6997700Y9880600D03*
G36*
X6648704Y9785604D02*
G01*
X6648704Y9975595D01*
X6838695Y9975595D01*
X6838695Y9785604D01*
G37*
G36*
X2879090Y9832339D02*
G01*
X2879090Y9979660D01*
X2962909Y9979660D01*
X2962909Y9832339D01*
G37*
G36*
X2967990Y9832339D02*
G01*
X2967990Y9979660D01*
X3051809Y9979660D01*
X3051809Y9832339D01*
G37*
G36*
X3056890Y9832339D02*
G01*
X3056890Y9979660D01*
X3140709Y9979660D01*
X3140709Y9832339D01*
G37*
G36*
X7096506Y7461250D02*
G01*
X7096506Y7621270D01*
X7236713Y7621270D01*
X7236713Y7461250D01*
G37*
G36*
X7096506Y8101329D02*
G01*
X7096506Y8261350D01*
X7236713Y8261350D01*
X7236713Y8101329D01*
G37*
G36*
X7291324Y7641336D02*
G01*
X7291324Y7841487D01*
X7491475Y7841487D01*
X7491475Y7641336D01*
G37*
G36*
X7291324Y7881112D02*
G01*
X7291324Y8081263D01*
X7491475Y8081263D01*
X7491475Y7881112D01*
G37*
G36*
X6976363Y7706105D02*
G01*
X6976363Y7756397D01*
X7196581Y7756397D01*
X7196581Y7706105D01*
G37*
G36*
X6976363Y7771129D02*
G01*
X6976363Y7821421D01*
X7196581Y7821421D01*
X7196581Y7771129D01*
G37*
G36*
X6976363Y7836154D02*
G01*
X6976363Y7886445D01*
X7196581Y7886445D01*
X7196581Y7836154D01*
G37*
G36*
X6976363Y7901178D02*
G01*
X6976363Y7951470D01*
X7196581Y7951470D01*
X7196581Y7901178D01*
G37*
G36*
X6976363Y7966202D02*
G01*
X6976363Y8016494D01*
X7196581Y8016494D01*
X7196581Y7966202D01*
G37*
D88*
G01*
X3454400Y9728200D03*
G01*
X3454400Y9817100D03*
G01*
X3454400Y9906000D03*
G36*
X3812540Y9864089D02*
G01*
X3812540Y9947910D01*
X3959859Y9947910D01*
X3959859Y9864089D01*
G37*
G36*
X3812540Y9775189D02*
G01*
X3812540Y9859010D01*
X3959859Y9859010D01*
X3959859Y9775189D01*
G37*
G36*
X3812540Y9686289D02*
G01*
X3812540Y9770110D01*
X3959859Y9770110D01*
X3959859Y9686289D01*
G37*
G36*
X6824218Y8969247D02*
G01*
X6824218Y9039352D01*
X6894322Y9039352D01*
X6894322Y8969247D01*
G37*
G36*
X6974077Y8969247D02*
G01*
X6974077Y9039352D01*
X7044181Y9039352D01*
X7044181Y8969247D01*
G37*
G36*
X7240777Y8969247D02*
G01*
X7240777Y9039352D01*
X7310881Y9039352D01*
X7310881Y8969247D01*
G37*
G36*
X7090918Y8969247D02*
G01*
X7090918Y9039352D01*
X7161022Y9039352D01*
X7161022Y8969247D01*
G37*
G36*
X6976618Y7292847D02*
G01*
X6976618Y7362952D01*
X7046722Y7362952D01*
X7046722Y7292847D01*
G37*
G36*
X7126477Y7292847D02*
G01*
X7126477Y7362952D01*
X7196581Y7362952D01*
X7196581Y7292847D01*
G37*
G36*
X5918961Y8248142D02*
G01*
X5847841Y8319262D01*
X5897625Y8368792D01*
X5968491Y8297926D01*
G37*
G36*
X5989574Y8319008D02*
G01*
X5918708Y8389874D01*
X5968238Y8439658D01*
X6039358Y8368537D01*
G37*
G36*
X6858761Y6074410D02*
G01*
X6858761Y6144768D01*
X6959091Y6144768D01*
X6959091Y6074410D01*
G37*
G36*
X6858761Y6174231D02*
G01*
X6858761Y6244589D01*
X6959091Y6244589D01*
X6959091Y6174231D01*
G37*
G36*
X5702808Y8968231D02*
G01*
X5702808Y9038589D01*
X5803138Y9038589D01*
X5803138Y8968231D01*
G37*
G36*
X5702808Y8868410D02*
G01*
X5702808Y8938768D01*
X5803138Y8938768D01*
X5803138Y8868410D01*
G37*
G36*
X2478531Y7214362D02*
G01*
X2478531Y7314692D01*
X2548890Y7314692D01*
X2548890Y7214362D01*
G37*
G36*
X2378709Y7214362D02*
G01*
X2378709Y7314692D01*
X2449068Y7314692D01*
X2449068Y7214362D01*
G37*
G36*
X5702808Y8765031D02*
G01*
X5702808Y8835389D01*
X5803138Y8835389D01*
X5803138Y8765031D01*
G37*
G36*
X5702808Y8665210D02*
G01*
X5702808Y8735568D01*
X5803138Y8735568D01*
X5803138Y8665210D01*
G37*
G36*
X7348220Y9262110D02*
G01*
X7348220Y9432289D01*
X7508747Y9432289D01*
X7508747Y9262110D01*
G37*
G36*
X6588252Y9262110D02*
G01*
X6588252Y9432289D01*
X6748779Y9432289D01*
X6748779Y9262110D01*
G37*
G36*
X7348220Y8589010D02*
G01*
X7348220Y8759189D01*
X7508747Y8759189D01*
X7508747Y8589010D01*
G37*
G36*
X6588252Y8589010D02*
G01*
X6588252Y8759189D01*
X6748779Y8759189D01*
X6748779Y8589010D01*
G37*
G36*
X6827774Y7366508D02*
G01*
X6756908Y7437373D01*
X6806438Y7487158D01*
X6877558Y7416037D01*
G37*
G36*
X6757161Y7295642D02*
G01*
X6686041Y7366762D01*
X6735825Y7416292D01*
X6806691Y7345426D01*
G37*
D92*
G01*
X6840220Y6642100D03*
D93*
G01*
X7459979Y6872096D03*
G36*
X7339838Y6576821D02*
G01*
X7339838Y6707378D01*
X7580122Y6707378D01*
X7580122Y6576821D01*
G37*
G01*
X7459979Y6412103D03*
G36*
X6662674Y7201408D02*
G01*
X6591808Y7272273D01*
X6641338Y7322058D01*
X6712458Y7250937D01*
G37*
G36*
X6592061Y7130542D02*
G01*
X6520941Y7201662D01*
X6570725Y7251192D01*
X6641591Y7180326D01*
G37*
D94*
G01*
X6438900Y6184900D03*
G01*
X6184900Y6184900D03*
G01*
X5930900Y6184900D03*
G01*
X5676900Y6184900D03*
G01*
X5422900Y6184900D03*
G01*
X5168900Y6184900D03*
G01*
X4914900Y6184900D03*
G01*
X4660900Y6184900D03*
G01*
X4406900Y6184900D03*
G01*
X4152900Y6184900D03*
G01*
X3898900Y6184900D03*
G01*
X3644900Y6184900D03*
G01*
X3390900Y6184900D03*
G01*
X3136900Y6184900D03*
G01*
X2882900Y6184900D03*
G01*
X2628900Y6184900D03*
G01*
X2374900Y6184900D03*
G01*
X2120900Y6184900D03*
G01*
X1866900Y6184900D03*
G36*
X1512823Y6084823D02*
G01*
X1512823Y6284976D01*
X1712976Y6284976D01*
X1712976Y6084823D01*
G37*
G01*
X1612900Y6464300D03*
G01*
X1866900Y6464300D03*
G01*
X2120900Y6464300D03*
G01*
X2374900Y6464300D03*
G01*
X2628900Y6464300D03*
G01*
X2882900Y6464300D03*
G01*
X3136900Y6464300D03*
G01*
X3390900Y6464300D03*
G01*
X3644900Y6464300D03*
G01*
X3898900Y6464300D03*
G01*
X4152900Y6464300D03*
G01*
X4406900Y6464300D03*
G01*
X4660900Y6464300D03*
G01*
X4914900Y6464300D03*
G01*
X5168900Y6464300D03*
G01*
X5422900Y6464300D03*
G01*
X5676900Y6464300D03*
G01*
X5930900Y6464300D03*
G01*
X6184900Y6464300D03*
G36*
X6338824Y6364223D02*
G01*
X6338824Y6564376D01*
X6538975Y6564376D01*
X6538975Y6364223D01*
G37*
G36*
X6931913Y7102602D02*
G01*
X6931913Y7222997D01*
X7052056Y7222997D01*
X7052056Y7102602D01*
G37*
G36*
X7171943Y7102602D02*
G01*
X7171943Y7222997D01*
X7292086Y7222997D01*
X7292086Y7102602D01*
G37*
G36*
X6210300Y7530337D02*
G01*
X5955538Y7785100D01*
X6210300Y8039862D01*
X6465061Y7785100D01*
G37*
D98*
G01*
X2886913Y9241586D03*
G01*
X5370906Y9241586D03*
G01*
X5359400Y7366000D03*
G01*
X2882900Y7366000D03*
D99*
G01*
X5016500Y9347200D03*
G01*
X4762500Y9347200D03*
G01*
X4508500Y9347200D03*
G01*
X3746500Y9347200D03*
G01*
X4000500Y9347200D03*
G01*
X4254500Y9347200D03*
G36*
X3151377Y9260078D02*
G01*
X3151377Y9434321D01*
X3325622Y9434321D01*
X3325622Y9260078D01*
G37*
G01*
X3492500Y9347200D03*
G36*
X6178804Y9671304D02*
G01*
X6178804Y9861295D01*
X6368795Y9861295D01*
X6368795Y9671304D01*
G37*
G36*
X5924804Y9417304D02*
G01*
X5924804Y9607295D01*
X6114795Y9607295D01*
X6114795Y9417304D01*
G37*
G36*
X5670804Y9671304D02*
G01*
X5670804Y9861295D01*
X5860795Y9861295D01*
X5860795Y9671304D01*
G37*
G36*
X2478531Y7061962D02*
G01*
X2478531Y7162037D01*
X2548890Y7162037D01*
X2548890Y7061962D01*
G37*
G36*
X2378709Y7061962D02*
G01*
X2378709Y7162037D01*
X2449068Y7162037D01*
X2449068Y7061962D01*
G37*
G36*
X6020561Y8146542D02*
G01*
X5949441Y8217662D01*
X5999225Y8267192D01*
X6070091Y8196326D01*
G37*
G36*
X6091174Y8217408D02*
G01*
X6020308Y8288273D01*
X6069838Y8338058D01*
X6140958Y8266937D01*
G37*
G36*
X5703061Y9273031D02*
G01*
X5703061Y9343389D01*
X5803138Y9343389D01*
X5803138Y9273031D01*
G37*
G36*
X5703061Y9173210D02*
G01*
X5703061Y9243568D01*
X5803138Y9243568D01*
X5803138Y9173210D01*
G37*
G36*
X1724913Y9719818D02*
G01*
X1724913Y9820147D01*
X1795271Y9820147D01*
X1795271Y9719818D01*
G37*
G36*
X1624837Y9719818D02*
G01*
X1624837Y9820147D01*
X1695195Y9820147D01*
X1695195Y9719818D01*
G37*
G36*
X2378709Y7354062D02*
G01*
X2378709Y7454137D01*
X2449068Y7454137D01*
X2449068Y7354062D01*
G37*
G36*
X2478531Y7354062D02*
G01*
X2478531Y7454137D01*
X2548890Y7454137D01*
X2548890Y7354062D01*
G37*
G36*
X4356861Y9666731D02*
G01*
X4356861Y9737089D01*
X4456938Y9737089D01*
X4456938Y9666731D01*
G37*
G36*
X4356861Y9566910D02*
G01*
X4356861Y9637268D01*
X4456938Y9637268D01*
X4456938Y9566910D01*
G37*
G36*
X4153661Y9666731D02*
G01*
X4153661Y9737089D01*
X4253738Y9737089D01*
X4253738Y9666731D01*
G37*
G36*
X4153661Y9566910D02*
G01*
X4153661Y9637268D01*
X4253738Y9637268D01*
X4253738Y9566910D01*
G37*
G36*
X5926074Y8065008D02*
G01*
X5855208Y8135873D01*
X5904738Y8185658D01*
X5975858Y8114537D01*
G37*
G36*
X5855461Y7994142D02*
G01*
X5784341Y8065262D01*
X5834125Y8114792D01*
X5904991Y8043926D01*
G37*
G36*
X6084061Y8879331D02*
G01*
X6084061Y8949689D01*
X6184138Y8949689D01*
X6184138Y8879331D01*
G37*
G36*
X6084061Y8779510D02*
G01*
X6084061Y8849868D01*
X6184138Y8849868D01*
X6184138Y8779510D01*
G37*
G36*
X6249161Y8779510D02*
G01*
X6249161Y8849868D01*
X6349238Y8849868D01*
X6349238Y8779510D01*
G37*
G36*
X6249161Y8879331D02*
G01*
X6249161Y8949689D01*
X6349238Y8949689D01*
X6349238Y8879331D01*
G37*
G36*
X3029965Y9594850D02*
G01*
X3029965Y9665208D01*
X3130041Y9665208D01*
X3130041Y9594850D01*
G37*
G36*
X3029965Y9694926D02*
G01*
X3029965Y9765284D01*
X3130041Y9765284D01*
X3130041Y9694926D01*
G37*
G36*
X6177788Y8349487D02*
G01*
X6177788Y8494776D01*
X6268211Y8494776D01*
X6268211Y8349487D01*
G37*
G36*
X6082791Y8599424D02*
G01*
X6082791Y8744712D01*
X6173215Y8744712D01*
X6173215Y8599424D01*
G37*
G36*
X6272784Y8599424D02*
G01*
X6272784Y8744712D01*
X6363208Y8744712D01*
X6363208Y8599424D01*
G37*
G36*
X6165088Y9234424D02*
G01*
X6165088Y9379712D01*
X6255511Y9379712D01*
X6255511Y9234424D01*
G37*
G36*
X6260084Y8984487D02*
G01*
X6260084Y9129776D01*
X6350508Y9129776D01*
X6350508Y8984487D01*
G37*
G36*
X6070091Y8984487D02*
G01*
X6070091Y9129776D01*
X6160515Y9129776D01*
X6160515Y8984487D01*
G37*
G36*
X5969508Y7101331D02*
G01*
X5969508Y7171689D01*
X6069838Y7171689D01*
X6069838Y7101331D01*
G37*
G36*
X5969508Y7001510D02*
G01*
X5969508Y7071868D01*
X6069838Y7071868D01*
X6069838Y7001510D01*
G37*
G36*
X7391908Y7101331D02*
G01*
X7391908Y7171689D01*
X7492238Y7171689D01*
X7492238Y7101331D01*
G37*
G36*
X7391908Y7001510D02*
G01*
X7391908Y7071868D01*
X7492238Y7071868D01*
X7492238Y7001510D01*
G37*
G36*
X6719061Y6074410D02*
G01*
X6719061Y6144768D01*
X6819391Y6144768D01*
X6819391Y6074410D01*
G37*
G36*
X6719061Y6174231D02*
G01*
X6719061Y6244589D01*
X6819391Y6244589D01*
X6819391Y6174231D01*
G37*
D102*
G01*
X1112520Y9505467D03*
G01*
X1366520Y9505467D03*
G01*
X1620520Y9505467D03*
G36*
X1781810Y9412731D02*
G01*
X1781810Y9598152D01*
X1967229Y9598152D01*
X1967229Y9412731D01*
G37*
M02*
