G04 Layer: BottomLayer*
G04 EasyEDA v6.4.17, 2021-08-18T09:55:10--4:00*
G04 6e8a5ac20ec34cd9bcedad4da788ba3a,10*
G04 Gerber Generator version 0.2*
G04 Scale: 100 percent, Rotated: No, Reflected: No *
G04 Dimensions in millimeters *
G04 leading zeros omitted , absolute positions ,4 integer and 5 decimal *
%FSLAX45Y45*%
%MOMM*%

%ADD10C,0.2540*%
%ADD11C,0.4500*%
%ADD12C,0.3500*%
%ADD13C,0.8000*%
%ADD15C,1.0000*%
%ADD16C,0.5000*%
%ADD21C,0.6096*%
%ADD22C,0.6100*%
%ADD43C,4.5000*%
%ADD44C,4.4000*%
%ADD45C,1.8000*%
%ADD46R,1.8000X1.8000*%
%ADD47C,3.5000*%
%ADD48C,1.5400*%
%ADD50C,1.6510*%
%ADD51R,1.6510X1.6510*%
%ADD52C,0.9500*%

%LPD*%
G36*
X1352194Y5758129D02*
G01*
X1348333Y5758891D01*
X1345031Y5761075D01*
X1211275Y5894832D01*
X1209090Y5898134D01*
X1208278Y5901994D01*
X1208278Y5932932D01*
X1208532Y5935167D01*
X1212037Y5950864D01*
X1214882Y5972556D01*
X1215847Y5994400D01*
X1214882Y6016244D01*
X1212037Y6037935D01*
X1208532Y6053683D01*
X1208278Y6055868D01*
X1208278Y6100013D01*
X1207617Y6101689D01*
X1168044Y6141364D01*
X1157224Y6155537D01*
X1142441Y6171641D01*
X1126286Y6186424D01*
X1111148Y6198158D01*
X1031189Y6278118D01*
X1029512Y6278829D01*
X983894Y6278829D01*
X980033Y6279591D01*
X976731Y6281775D01*
X855675Y6402832D01*
X853440Y6406134D01*
X852678Y6409994D01*
X839978Y9538512D01*
X840790Y9542373D01*
X842975Y9545675D01*
X987552Y9690303D01*
X989888Y9692030D01*
X992581Y9693046D01*
X1014882Y9697923D01*
X1035710Y9704476D01*
X1055928Y9712858D01*
X1075334Y9722967D01*
X1093774Y9734702D01*
X1111097Y9748012D01*
X1127252Y9762794D01*
X1141984Y9778898D01*
X1155293Y9796272D01*
X1167079Y9814712D01*
X1177137Y9834067D01*
X1185519Y9854285D01*
X1192072Y9875113D01*
X1197000Y9897414D01*
X1198016Y9900107D01*
X1199743Y9902444D01*
X1459331Y10162032D01*
X1462633Y10164216D01*
X1466494Y10165029D01*
X2370531Y10165029D01*
X2374442Y10164216D01*
X2377744Y10162032D01*
X2379929Y10158730D01*
X2380691Y10154869D01*
X2379929Y10150957D01*
X2377744Y10147655D01*
X2372106Y10142016D01*
X2369210Y10140035D01*
X2355697Y10136530D01*
X2346858Y10132364D01*
X2338832Y10126776D01*
X2331923Y10119868D01*
X2326335Y10111841D01*
X2322169Y10103002D01*
X2319680Y10093553D01*
X2318816Y10083800D01*
X2319680Y10074046D01*
X2322169Y10064597D01*
X2326335Y10055758D01*
X2331923Y10047732D01*
X2338832Y10040823D01*
X2346858Y10035235D01*
X2355697Y10031069D01*
X2365146Y10028580D01*
X2374900Y10027716D01*
X2384653Y10028580D01*
X2394102Y10031069D01*
X2402941Y10035235D01*
X2410968Y10040823D01*
X2417876Y10047732D01*
X2423464Y10055758D01*
X2427630Y10064597D01*
X2429357Y10071201D01*
X2431389Y10075113D01*
X2434894Y10077805D01*
X2439212Y10078720D01*
X2924302Y10078720D01*
X2928213Y10077958D01*
X2931515Y10075773D01*
X2952597Y10054691D01*
X2954629Y10051796D01*
X2955544Y10048392D01*
X2955239Y10044836D01*
X2954680Y10042753D01*
X2953816Y10033000D01*
X2954680Y10023246D01*
X2957169Y10013797D01*
X2961335Y10004958D01*
X2965856Y9998456D01*
X2967583Y9994392D01*
X2967380Y9989972D01*
X2965348Y9986060D01*
X2961843Y9983419D01*
X2957576Y9982454D01*
X2775407Y9982454D01*
X2771495Y9983216D01*
X2768193Y9985451D01*
X2766568Y9987076D01*
X2758541Y9992664D01*
X2749702Y9996830D01*
X2740253Y9999319D01*
X2730500Y10000183D01*
X2720746Y9999319D01*
X2711297Y9996830D01*
X2702458Y9992664D01*
X2694432Y9987076D01*
X2687523Y9980168D01*
X2681935Y9972141D01*
X2677769Y9963302D01*
X2675280Y9953853D01*
X2674416Y9944100D01*
X2675280Y9934346D01*
X2677769Y9924897D01*
X2681935Y9916058D01*
X2687523Y9908032D01*
X2694432Y9901123D01*
X2702458Y9895535D01*
X2711297Y9891369D01*
X2720746Y9888880D01*
X2730500Y9888016D01*
X2740253Y9888880D01*
X2749702Y9891369D01*
X2758541Y9895535D01*
X2766568Y9901123D01*
X2768193Y9902748D01*
X2771495Y9904984D01*
X2775407Y9905746D01*
X3027883Y9905746D01*
X3031794Y9904984D01*
X3035096Y9902748D01*
X3068624Y9869220D01*
X3070860Y9865918D01*
X3071622Y9862007D01*
X3071622Y9710420D01*
X3072384Y9702444D01*
X3074568Y9695230D01*
X3078124Y9688626D01*
X3083204Y9682429D01*
X3159556Y9606076D01*
X3161741Y9602825D01*
X3162503Y9598914D01*
X3161741Y9595002D01*
X3159556Y9591751D01*
X3156254Y9589516D01*
X3152343Y9588754D01*
X2756408Y9588754D01*
X2748432Y9587992D01*
X2741218Y9585807D01*
X2734614Y9582251D01*
X2728417Y9577171D01*
X2475128Y9323882D01*
X2470048Y9317685D01*
X2464257Y9307169D01*
X2460548Y9304578D01*
X2456129Y9303867D01*
X2451811Y9305188D01*
X2448458Y9308185D01*
X2442972Y9316059D01*
X2436063Y9322968D01*
X2428036Y9328556D01*
X2419197Y9332722D01*
X2409748Y9335211D01*
X2399995Y9336074D01*
X2396032Y9335719D01*
X2392172Y9336125D01*
X2387447Y9337598D01*
X2379472Y9338360D01*
X2214880Y9338360D01*
X2210968Y9339122D01*
X2207717Y9341358D01*
X2206040Y9342983D01*
X2198065Y9348571D01*
X2189175Y9352737D01*
X2179726Y9355226D01*
X2170023Y9356090D01*
X2160270Y9355226D01*
X2150821Y9352737D01*
X2141931Y9348571D01*
X2133955Y9342983D01*
X2123744Y9332874D01*
X2119680Y9331553D01*
X2115464Y9331909D01*
X2111756Y9334042D01*
X2109266Y9337446D01*
X2108352Y9341612D01*
X2108352Y9595561D01*
X2109114Y9599371D01*
X2111248Y9602622D01*
X2114448Y9604857D01*
X2118258Y9605721D01*
X2122119Y9605060D01*
X2125421Y9602978D01*
X2127707Y9599828D01*
X2131415Y9591954D01*
X2137003Y9583928D01*
X2143912Y9577019D01*
X2151938Y9571380D01*
X2160828Y9567265D01*
X2170277Y9564725D01*
X2180031Y9563862D01*
X2189734Y9564725D01*
X2199182Y9567265D01*
X2208072Y9571380D01*
X2216099Y9577019D01*
X2223008Y9583928D01*
X2228596Y9591954D01*
X2232761Y9600793D01*
X2235250Y9610242D01*
X2236114Y9619996D01*
X2235250Y9629749D01*
X2232761Y9639198D01*
X2228596Y9648037D01*
X2223008Y9656064D01*
X2216099Y9662972D01*
X2208072Y9668611D01*
X2199182Y9672726D01*
X2191867Y9674707D01*
X2188667Y9676180D01*
X2186178Y9678670D01*
X2184704Y9681870D01*
X2182723Y9689185D01*
X2178608Y9698075D01*
X2172970Y9706102D01*
X2166061Y9713010D01*
X2153666Y9721646D01*
X2151583Y9725304D01*
X2151227Y9729520D01*
X2152599Y9733534D01*
X2163013Y9743948D01*
X2168601Y9751974D01*
X2172766Y9760813D01*
X2175256Y9770262D01*
X2176119Y9780016D01*
X2175256Y9789769D01*
X2172766Y9799218D01*
X2168601Y9808057D01*
X2163013Y9816084D01*
X2158034Y9821062D01*
X2155698Y9824770D01*
X2155088Y9829139D01*
X2156104Y9840010D01*
X2155240Y9849764D01*
X2152751Y9859213D01*
X2149703Y9865715D01*
X2148738Y9869982D01*
X2149703Y9874300D01*
X2152751Y9880803D01*
X2155240Y9890252D01*
X2156104Y9900005D01*
X2155240Y9909759D01*
X2152751Y9919208D01*
X2149703Y9925710D01*
X2148738Y9929977D01*
X2149703Y9934295D01*
X2152751Y9940798D01*
X2155240Y9950246D01*
X2156104Y9960000D01*
X2155240Y9969754D01*
X2152751Y9979202D01*
X2149703Y9985705D01*
X2148738Y9989972D01*
X2149703Y9994290D01*
X2152751Y10000792D01*
X2155240Y10010241D01*
X2156104Y10019995D01*
X2155240Y10029748D01*
X2152751Y10039197D01*
X2148586Y10048036D01*
X2142998Y10056063D01*
X2136089Y10062972D01*
X2128062Y10068610D01*
X2119172Y10072725D01*
X2109724Y10075265D01*
X2099970Y10076129D01*
X2090267Y10075265D01*
X2080818Y10072725D01*
X2071928Y10068610D01*
X2066239Y10064597D01*
X2062175Y10062921D01*
X2057806Y10063124D01*
X2049729Y10065258D01*
X2039975Y10066121D01*
X2030272Y10065258D01*
X2020824Y10062768D01*
X2011934Y10058603D01*
X2003907Y10053015D01*
X1996998Y10046106D01*
X1991410Y10038080D01*
X1987245Y10029190D01*
X1984756Y10019741D01*
X1983892Y10009987D01*
X1984756Y10000284D01*
X1987245Y9990836D01*
X1990293Y9984282D01*
X1991258Y9980015D01*
X1990293Y9975697D01*
X1987245Y9969195D01*
X1984756Y9959746D01*
X1983892Y9949992D01*
X1984756Y9940239D01*
X1987245Y9930790D01*
X1990293Y9924288D01*
X1991258Y9919970D01*
X1990293Y9915702D01*
X1987245Y9909200D01*
X1984756Y9899751D01*
X1983892Y9889998D01*
X1984756Y9880244D01*
X1987245Y9870795D01*
X1990293Y9864293D01*
X1991258Y9859975D01*
X1990293Y9855708D01*
X1987245Y9849205D01*
X1984756Y9839756D01*
X1984400Y9835743D01*
X1983130Y9831730D01*
X1980387Y9828530D01*
X1976577Y9826752D01*
X1972310Y9826650D01*
X1959203Y9832746D01*
X1949754Y9835235D01*
X1940001Y9836099D01*
X1930247Y9835235D01*
X1920798Y9832746D01*
X1911959Y9828580D01*
X1903933Y9822992D01*
X1897024Y9816084D01*
X1891436Y9808057D01*
X1887270Y9799218D01*
X1884781Y9789769D01*
X1883918Y9780016D01*
X1884781Y9770262D01*
X1887270Y9760813D01*
X1891436Y9751974D01*
X1897024Y9743948D01*
X1898650Y9742322D01*
X1900885Y9739020D01*
X1901647Y9735159D01*
X1901647Y9730486D01*
X1902409Y9722561D01*
X1904593Y9715347D01*
X1908149Y9708743D01*
X1913229Y9702546D01*
X2028647Y9587077D01*
X2030882Y9583826D01*
X2031644Y9579914D01*
X2031644Y9110522D01*
X2032457Y9102547D01*
X2034590Y9095333D01*
X2038146Y9088729D01*
X2043226Y9082532D01*
X2262530Y8863228D01*
X2268728Y8858148D01*
X2275332Y8854592D01*
X2282545Y8852408D01*
X2290521Y8851646D01*
X2315108Y8851646D01*
X2319020Y8850884D01*
X2322271Y8848648D01*
X2323947Y8847023D01*
X2331923Y8841435D01*
X2340813Y8837269D01*
X2350262Y8834780D01*
X2359964Y8833916D01*
X2369718Y8834780D01*
X2379167Y8837269D01*
X2388057Y8841435D01*
X2396032Y8847023D01*
X2402941Y8853932D01*
X2408580Y8861958D01*
X2412695Y8870797D01*
X2415235Y8880246D01*
X2416098Y8890000D01*
X2415235Y8899753D01*
X2412695Y8909202D01*
X2408580Y8918041D01*
X2402941Y8926068D01*
X2396032Y8932976D01*
X2388057Y8938564D01*
X2379167Y8942730D01*
X2369718Y8945219D01*
X2359964Y8946083D01*
X2350262Y8945219D01*
X2340813Y8942730D01*
X2331923Y8938564D01*
X2323947Y8932976D01*
X2322271Y8931351D01*
X2319020Y8929116D01*
X2315108Y8928354D01*
X2310079Y8928354D01*
X2306218Y8929116D01*
X2302916Y8931351D01*
X2245055Y8989161D01*
X2242718Y8992870D01*
X2242108Y8997238D01*
X2243429Y9001455D01*
X2246426Y9004706D01*
X2250490Y9006382D01*
X2254859Y9006179D01*
X2260244Y9004757D01*
X2269998Y9003893D01*
X2279751Y9004757D01*
X2289200Y9007246D01*
X2298039Y9011412D01*
X2306066Y9017000D01*
X2307742Y9018676D01*
X2311044Y9020860D01*
X2314905Y9021622D01*
X2509520Y9021622D01*
X2517495Y9022435D01*
X2524658Y9024620D01*
X2531262Y9028176D01*
X2537460Y9033256D01*
X2555392Y9051137D01*
X2558237Y9053169D01*
X2561691Y9054084D01*
X2569768Y9054795D01*
X2579217Y9057284D01*
X2588056Y9061450D01*
X2596083Y9067038D01*
X2602992Y9073946D01*
X2611577Y9086596D01*
X2614879Y9088628D01*
X2618740Y9089288D01*
X2622550Y9088424D01*
X2625750Y9086240D01*
X2627884Y9082989D01*
X2628646Y9079128D01*
X2628646Y8534908D01*
X2629408Y8526932D01*
X2631592Y8519718D01*
X2635148Y8513114D01*
X2640228Y8506917D01*
X2658922Y8488222D01*
X2660954Y8485378D01*
X2661869Y8481923D01*
X2662580Y8473846D01*
X2665069Y8464397D01*
X2669235Y8455558D01*
X2674823Y8447532D01*
X2681732Y8440623D01*
X2689758Y8435035D01*
X2698597Y8430869D01*
X2708046Y8428380D01*
X2717800Y8427516D01*
X2727553Y8428380D01*
X2737002Y8430869D01*
X2745841Y8435035D01*
X2752344Y8439556D01*
X2756408Y8441283D01*
X2760827Y8441080D01*
X2764739Y8439048D01*
X2767380Y8435543D01*
X2768346Y8431276D01*
X2768346Y8338007D01*
X2767584Y8334095D01*
X2765348Y8330793D01*
X2763723Y8329168D01*
X2758135Y8321141D01*
X2753969Y8312302D01*
X2751480Y8302853D01*
X2750616Y8293100D01*
X2751480Y8283346D01*
X2753969Y8273897D01*
X2758135Y8265058D01*
X2763723Y8257031D01*
X2770632Y8250123D01*
X2778658Y8244535D01*
X2787497Y8240369D01*
X2796946Y8237880D01*
X2806700Y8237016D01*
X2816453Y8237880D01*
X2825902Y8240369D01*
X2834741Y8244535D01*
X2842768Y8250123D01*
X2849676Y8257031D01*
X2855264Y8265058D01*
X2859430Y8273897D01*
X2861919Y8283346D01*
X2862783Y8293100D01*
X2861919Y8302853D01*
X2859430Y8312302D01*
X2855264Y8321141D01*
X2849676Y8329168D01*
X2848051Y8330793D01*
X2845816Y8334095D01*
X2845054Y8338007D01*
X2845054Y8819083D01*
X2845816Y8822994D01*
X2848051Y8826296D01*
X2967177Y8945422D01*
X2970022Y8947454D01*
X2973476Y8948369D01*
X2981553Y8949080D01*
X2991002Y8951569D01*
X2999841Y8955735D01*
X3007868Y8961323D01*
X3014776Y8968232D01*
X3020364Y8976258D01*
X3024530Y8985097D01*
X3027019Y8994546D01*
X3027883Y9004300D01*
X3027019Y9014053D01*
X3024530Y9023502D01*
X3020364Y9032341D01*
X3014776Y9040368D01*
X3007868Y9047276D01*
X2999841Y9052864D01*
X2995828Y9054744D01*
X2992323Y9057436D01*
X2990291Y9061297D01*
X2990088Y9065615D01*
X2991713Y9069679D01*
X2994863Y9072676D01*
X2998368Y9074759D01*
X3014167Y9086494D01*
X3028797Y9099702D01*
X3042005Y9114332D01*
X3053740Y9130131D01*
X3063849Y9146997D01*
X3072282Y9164828D01*
X3078886Y9183370D01*
X3083661Y9202470D01*
X3086557Y9221927D01*
X3087522Y9241586D01*
X3086557Y9261246D01*
X3083661Y9280753D01*
X3078886Y9299854D01*
X3072282Y9318396D01*
X3063849Y9336176D01*
X3053740Y9353092D01*
X3042005Y9368891D01*
X3028797Y9383471D01*
X3014167Y9396679D01*
X2998368Y9408414D01*
X2981502Y9418574D01*
X2963672Y9426956D01*
X2945130Y9433610D01*
X2926029Y9438386D01*
X2908198Y9441027D01*
X2904134Y9442551D01*
X2901086Y9445599D01*
X2899613Y9449663D01*
X2899918Y9453981D01*
X2902000Y9457740D01*
X2905455Y9460331D01*
X2909671Y9461246D01*
X3138068Y9461246D01*
X3141929Y9460484D01*
X3145231Y9458248D01*
X3147466Y9454997D01*
X3148228Y9451086D01*
X3147466Y9447174D01*
X3145231Y9443923D01*
X3141472Y9440164D01*
X3138424Y9435287D01*
X3136544Y9429902D01*
X3135833Y9423654D01*
X3135833Y9270746D01*
X3136544Y9264497D01*
X3138424Y9259112D01*
X3141472Y9254236D01*
X3145536Y9250172D01*
X3150412Y9247124D01*
X3155797Y9245244D01*
X3162046Y9244533D01*
X3314954Y9244533D01*
X3321202Y9245244D01*
X3326587Y9247124D01*
X3331464Y9250172D01*
X3335528Y9254236D01*
X3338576Y9259112D01*
X3340455Y9264497D01*
X3341166Y9270746D01*
X3341166Y9423654D01*
X3340455Y9429902D01*
X3338576Y9435287D01*
X3335528Y9440164D01*
X3331768Y9443923D01*
X3329533Y9447174D01*
X3328771Y9451086D01*
X3329533Y9454997D01*
X3331768Y9458248D01*
X3335070Y9460484D01*
X3338931Y9461246D01*
X3449065Y9461246D01*
X3452977Y9460433D01*
X3456279Y9458198D01*
X3458464Y9454896D01*
X3459226Y9450933D01*
X3458362Y9447022D01*
X3456076Y9443770D01*
X3452672Y9441586D01*
X3449320Y9440316D01*
X3437280Y9433712D01*
X3426256Y9425584D01*
X3416401Y9416034D01*
X3407867Y9405264D01*
X3400907Y9393478D01*
X3395522Y9380880D01*
X3391915Y9367621D01*
X3390087Y9354058D01*
X3390087Y9340342D01*
X3391915Y9326778D01*
X3395522Y9313519D01*
X3400907Y9300921D01*
X3407867Y9289135D01*
X3416401Y9278366D01*
X3426256Y9268815D01*
X3437839Y9260281D01*
X3439820Y9258350D01*
X3441598Y9255048D01*
X3442309Y9251899D01*
X3442055Y9248698D01*
X3440785Y9245752D01*
X3437128Y9239910D01*
X3435248Y9234525D01*
X3434537Y9228226D01*
X3434537Y9189618D01*
X3433775Y9185757D01*
X3431590Y9182455D01*
X3428288Y9180220D01*
X3424377Y9179458D01*
X3383991Y9179458D01*
X3379673Y9180423D01*
X3372002Y9184030D01*
X3362553Y9186519D01*
X3352800Y9187383D01*
X3343046Y9186519D01*
X3333597Y9184030D01*
X3324758Y9179864D01*
X3316732Y9174276D01*
X3309823Y9167368D01*
X3304235Y9159341D01*
X3300069Y9150502D01*
X3297580Y9141053D01*
X3296716Y9131300D01*
X3297580Y9121546D01*
X3300069Y9112097D01*
X3304235Y9103258D01*
X3312464Y9091523D01*
X3313226Y9087612D01*
X3312464Y9083700D01*
X3310280Y9080449D01*
X3306978Y9078214D01*
X3303066Y9077452D01*
X3127298Y9077452D01*
X3120999Y9076740D01*
X3115614Y9074861D01*
X3110738Y9071813D01*
X3106724Y9067749D01*
X3103676Y9062923D01*
X3101746Y9057487D01*
X3101035Y9051239D01*
X3101035Y8962390D01*
X3101746Y8956090D01*
X3103676Y8950706D01*
X3104896Y8948724D01*
X3106267Y8945168D01*
X3106267Y8941409D01*
X3104896Y8937904D01*
X3103676Y8935923D01*
X3101746Y8930487D01*
X3101035Y8924239D01*
X3101035Y8835390D01*
X3101746Y8829090D01*
X3103676Y8823706D01*
X3104896Y8821724D01*
X3106267Y8818168D01*
X3106267Y8814409D01*
X3104896Y8810904D01*
X3103676Y8808923D01*
X3101746Y8803487D01*
X3101035Y8797239D01*
X3101035Y8773414D01*
X3100273Y8769502D01*
X3098088Y8766251D01*
X3094786Y8764016D01*
X3090875Y8763254D01*
X3080207Y8763254D01*
X3076295Y8764016D01*
X3072993Y8766251D01*
X3071368Y8767876D01*
X3063341Y8773464D01*
X3054502Y8777630D01*
X3045053Y8780119D01*
X3035300Y8780983D01*
X3025546Y8780119D01*
X3016097Y8777630D01*
X3007258Y8773464D01*
X2999232Y8767876D01*
X2992323Y8760968D01*
X2986735Y8752941D01*
X2982569Y8744102D01*
X2980080Y8734653D01*
X2979216Y8724900D01*
X2980080Y8715146D01*
X2982569Y8705697D01*
X2986735Y8696858D01*
X2992323Y8688832D01*
X2999232Y8681923D01*
X3007258Y8676335D01*
X3016097Y8672169D01*
X3025546Y8669680D01*
X3035300Y8668816D01*
X3045053Y8669680D01*
X3054502Y8672169D01*
X3063341Y8676335D01*
X3071368Y8681923D01*
X3072993Y8683548D01*
X3076295Y8685784D01*
X3080207Y8686546D01*
X3091535Y8686546D01*
X3095650Y8685682D01*
X3099104Y8683142D01*
X3101187Y8679484D01*
X3101644Y8675268D01*
X3101035Y8670239D01*
X3101035Y8581390D01*
X3101746Y8575090D01*
X3103676Y8569706D01*
X3104896Y8567724D01*
X3106267Y8564168D01*
X3106267Y8560409D01*
X3104896Y8556904D01*
X3103676Y8554923D01*
X3101746Y8549487D01*
X3101035Y8543239D01*
X3101035Y8454390D01*
X3101746Y8448090D01*
X3103676Y8442706D01*
X3104896Y8440724D01*
X3106267Y8437168D01*
X3106267Y8433409D01*
X3104896Y8429904D01*
X3103676Y8427923D01*
X3101746Y8422487D01*
X3101086Y8416696D01*
X3100019Y8413140D01*
X3097784Y8410244D01*
X3094634Y8408314D01*
X3091027Y8407654D01*
X3004616Y8407654D01*
X3000705Y8408416D01*
X2997403Y8410651D01*
X2991967Y8416086D01*
X2989630Y8419795D01*
X2989021Y8424113D01*
X2989783Y8432800D01*
X2988919Y8442553D01*
X2986430Y8452002D01*
X2982264Y8460841D01*
X2976676Y8468868D01*
X2969768Y8475776D01*
X2961741Y8481364D01*
X2952902Y8485530D01*
X2943453Y8488019D01*
X2933700Y8488883D01*
X2923946Y8488019D01*
X2914497Y8485530D01*
X2905658Y8481364D01*
X2897632Y8475776D01*
X2890723Y8468868D01*
X2885135Y8460841D01*
X2880969Y8452002D01*
X2878480Y8442553D01*
X2877616Y8432800D01*
X2878480Y8423046D01*
X2880969Y8413597D01*
X2885135Y8404758D01*
X2890723Y8396732D01*
X2897632Y8389823D01*
X2905658Y8384235D01*
X2914497Y8380069D01*
X2918663Y8379002D01*
X2921101Y8377986D01*
X2923235Y8376361D01*
X2957017Y8342528D01*
X2963214Y8337448D01*
X2969818Y8333892D01*
X2977032Y8331708D01*
X2985008Y8330946D01*
X3091586Y8330946D01*
X3095193Y8330285D01*
X3098342Y8328355D01*
X3100578Y8325459D01*
X3101746Y8321090D01*
X3103676Y8315706D01*
X3104896Y8313724D01*
X3106267Y8310168D01*
X3106267Y8306409D01*
X3104896Y8302904D01*
X3103676Y8300923D01*
X3101746Y8295487D01*
X3101035Y8289239D01*
X3101035Y8200390D01*
X3101746Y8194090D01*
X3103676Y8188706D01*
X3104896Y8186724D01*
X3106267Y8183168D01*
X3106267Y8179409D01*
X3104896Y8175904D01*
X3103676Y8173923D01*
X3101746Y8168487D01*
X3101035Y8162239D01*
X3101035Y8073390D01*
X3101746Y8067090D01*
X3103676Y8061706D01*
X3104896Y8059724D01*
X3106267Y8056168D01*
X3106267Y8052409D01*
X3104896Y8048904D01*
X3103676Y8046923D01*
X3101746Y8041487D01*
X3101390Y8038185D01*
X3100324Y8034680D01*
X3098038Y8031734D01*
X3094939Y8029803D01*
X3091281Y8029143D01*
X2976676Y8029143D01*
X2972816Y8029956D01*
X2969514Y8032140D01*
X2821482Y8180171D01*
X2815285Y8185251D01*
X2808681Y8188807D01*
X2801467Y8190992D01*
X2793492Y8191753D01*
X2725216Y8191753D01*
X2721305Y8192516D01*
X2718003Y8194751D01*
X2675077Y8237677D01*
X2673045Y8240522D01*
X2672130Y8243976D01*
X2671419Y8252053D01*
X2668930Y8261502D01*
X2664764Y8270341D01*
X2659176Y8278368D01*
X2652268Y8285276D01*
X2644241Y8290864D01*
X2635402Y8295030D01*
X2625953Y8297519D01*
X2616200Y8298383D01*
X2606446Y8297519D01*
X2596997Y8295030D01*
X2588158Y8290864D01*
X2580132Y8285276D01*
X2569921Y8275218D01*
X2565908Y8273846D01*
X2561640Y8274253D01*
X2557983Y8276336D01*
X2555443Y8279739D01*
X2554579Y8283905D01*
X2554579Y8724849D01*
X2553919Y8730843D01*
X2551988Y8736279D01*
X2548940Y8741156D01*
X2546858Y8743492D01*
X2509164Y8781186D01*
X2504440Y8784945D01*
X2499258Y8787434D01*
X2493670Y8788755D01*
X2490520Y8788908D01*
X2389479Y8788908D01*
X2383485Y8788247D01*
X2378100Y8786368D01*
X2373223Y8783320D01*
X2370886Y8781186D01*
X2335834Y8746185D01*
X2332990Y8744153D01*
X2329535Y8743238D01*
X2326030Y8743543D01*
X2319731Y8745220D01*
X2309977Y8746083D01*
X2300274Y8745220D01*
X2290826Y8742730D01*
X2281936Y8738565D01*
X2273960Y8732977D01*
X2267051Y8726068D01*
X2261412Y8718042D01*
X2257298Y8709202D01*
X2255570Y8702649D01*
X2254046Y8699449D01*
X2251557Y8696960D01*
X2248357Y8695486D01*
X2244801Y8695182D01*
X2239822Y8695639D01*
X2234285Y8694978D01*
X2228900Y8693099D01*
X2224024Y8690051D01*
X2221636Y8687968D01*
X2151735Y8618016D01*
X2148941Y8616035D01*
X2144318Y8614968D01*
X2138883Y8613038D01*
X2134057Y8609990D01*
X2129993Y8605977D01*
X2126945Y8601100D01*
X2125065Y8595715D01*
X2124354Y8589416D01*
X2124354Y7790586D01*
X2125065Y7784287D01*
X2126945Y7778902D01*
X2129993Y7774025D01*
X2134057Y7770012D01*
X2138883Y7766964D01*
X2144318Y7765034D01*
X2148941Y7763967D01*
X2151735Y7761986D01*
X2221636Y7692085D01*
X2226360Y7688275D01*
X2231542Y7685786D01*
X2237130Y7684516D01*
X2243175Y7684566D01*
X2247036Y7684008D01*
X2250440Y7682077D01*
X2252827Y7678978D01*
X2253894Y7675219D01*
X2254758Y7664246D01*
X2257298Y7654798D01*
X2261412Y7645958D01*
X2267051Y7637932D01*
X2273960Y7631023D01*
X2281936Y7625435D01*
X2290826Y7621270D01*
X2300274Y7618780D01*
X2309977Y7617917D01*
X2314397Y7618272D01*
X2318562Y7617764D01*
X2322169Y7615681D01*
X2324608Y7612278D01*
X2325471Y7608163D01*
X2325471Y7595158D01*
X2326132Y7589164D01*
X2328011Y7583728D01*
X2331059Y7578852D01*
X2333142Y7576515D01*
X2370886Y7538821D01*
X2375560Y7535062D01*
X2380742Y7532573D01*
X2386330Y7531252D01*
X2389479Y7531100D01*
X2490520Y7531100D01*
X2496515Y7531760D01*
X2501950Y7533640D01*
X2506776Y7536688D01*
X2509164Y7538821D01*
X2546858Y7576515D01*
X2550617Y7581188D01*
X2553106Y7586370D01*
X2554376Y7591958D01*
X2554579Y7595158D01*
X2554579Y8200694D01*
X2555443Y8204860D01*
X2557983Y8208264D01*
X2561640Y8210346D01*
X2565908Y8210753D01*
X2569921Y8209381D01*
X2580132Y8199323D01*
X2588158Y8193735D01*
X2596997Y8189569D01*
X2606446Y8187080D01*
X2614523Y8186369D01*
X2617978Y8185454D01*
X2620822Y8183422D01*
X2677617Y8126628D01*
X2683814Y8121548D01*
X2690418Y8117992D01*
X2697632Y8115808D01*
X2705608Y8115046D01*
X2750108Y8115046D01*
X2754376Y8114080D01*
X2755900Y8112912D01*
X2757424Y8114080D01*
X2761691Y8115046D01*
X2773883Y8115046D01*
X2777794Y8114284D01*
X2781096Y8112048D01*
X2784144Y8109000D01*
X2786532Y8105292D01*
X2787091Y8100923D01*
X2785770Y8096758D01*
X2782773Y8093506D01*
X2778709Y8091830D01*
X2774340Y8092033D01*
X2765653Y8094319D01*
X2760827Y8094776D01*
X2756611Y8096097D01*
X2755188Y8096097D01*
X2750972Y8094776D01*
X2746146Y8094319D01*
X2736697Y8091830D01*
X2727858Y8087664D01*
X2719832Y8082076D01*
X2712923Y8075168D01*
X2707335Y8067141D01*
X2703169Y8058302D01*
X2700680Y8048853D01*
X2699816Y8039100D01*
X2700680Y8029346D01*
X2703169Y8019897D01*
X2707335Y8011058D01*
X2712923Y8003031D01*
X2719832Y7996123D01*
X2727858Y7990535D01*
X2736697Y7986369D01*
X2746146Y7983880D01*
X2755900Y7983016D01*
X2765653Y7983880D01*
X2775102Y7986369D01*
X2783941Y7990535D01*
X2787040Y7992668D01*
X2790190Y7994142D01*
X2793746Y7994446D01*
X2797149Y7993532D01*
X2800045Y7991551D01*
X2834182Y7957362D01*
X2836367Y7954111D01*
X2837129Y7950200D01*
X2836367Y7946288D01*
X2834182Y7943037D01*
X2806496Y7915351D01*
X2803194Y7913116D01*
X2799283Y7912353D01*
X2788107Y7912353D01*
X2784195Y7913116D01*
X2780893Y7915351D01*
X2779268Y7916976D01*
X2771241Y7922564D01*
X2762402Y7926730D01*
X2752953Y7929219D01*
X2743200Y7930083D01*
X2733446Y7929219D01*
X2723997Y7926730D01*
X2715158Y7922564D01*
X2707132Y7916976D01*
X2700223Y7910068D01*
X2694635Y7902041D01*
X2690469Y7893202D01*
X2687980Y7883753D01*
X2687116Y7874000D01*
X2687980Y7864246D01*
X2690469Y7854797D01*
X2694635Y7845958D01*
X2700223Y7837931D01*
X2707132Y7831023D01*
X2715158Y7825435D01*
X2723997Y7821269D01*
X2733446Y7818780D01*
X2743200Y7817916D01*
X2752953Y7818780D01*
X2762402Y7821269D01*
X2771241Y7825435D01*
X2779268Y7831023D01*
X2780893Y7832648D01*
X2784195Y7834884D01*
X2788107Y7835646D01*
X2818892Y7835646D01*
X2826867Y7836408D01*
X2834081Y7838592D01*
X2840685Y7842148D01*
X2846882Y7847228D01*
X2865323Y7865668D01*
X2868574Y7867853D01*
X2872486Y7868615D01*
X2876397Y7867853D01*
X2879648Y7865668D01*
X2881884Y7862366D01*
X2882646Y7858455D01*
X2882646Y7798308D01*
X2883408Y7790332D01*
X2885592Y7783118D01*
X2889148Y7776514D01*
X2894228Y7770317D01*
X3081477Y7583068D01*
X3087624Y7578039D01*
X3095599Y7573873D01*
X3098241Y7571892D01*
X3100120Y7569149D01*
X3100984Y7565999D01*
X3101746Y7559090D01*
X3103676Y7553706D01*
X3104896Y7551724D01*
X3106267Y7548168D01*
X3106267Y7544409D01*
X3104896Y7540904D01*
X3103676Y7538923D01*
X3101746Y7533487D01*
X3101035Y7527239D01*
X3101035Y7511643D01*
X3170377Y7511643D01*
X3170377Y7528966D01*
X3171139Y7532878D01*
X3173323Y7536180D01*
X3176625Y7538364D01*
X3180537Y7539126D01*
X3272891Y7539126D01*
X3276803Y7538364D01*
X3280105Y7536180D01*
X3282289Y7532878D01*
X3283051Y7528966D01*
X3283051Y7511643D01*
X3338068Y7511643D01*
X3342132Y7510780D01*
X3345535Y7508341D01*
X3347669Y7504734D01*
X3348177Y7500620D01*
X3347516Y7493000D01*
X3348380Y7483246D01*
X3350869Y7473797D01*
X3353409Y7468412D01*
X3354374Y7464450D01*
X3353663Y7460488D01*
X3351529Y7457033D01*
X3348177Y7454747D01*
X3344214Y7453934D01*
X3283051Y7453934D01*
X3283051Y7436612D01*
X3282289Y7432700D01*
X3280105Y7429449D01*
X3276803Y7427214D01*
X3272891Y7426452D01*
X3180537Y7426452D01*
X3176625Y7427214D01*
X3173323Y7429449D01*
X3171139Y7432700D01*
X3170377Y7436612D01*
X3170377Y7453934D01*
X3101035Y7453934D01*
X3101035Y7438390D01*
X3101746Y7432090D01*
X3103676Y7426706D01*
X3104896Y7424724D01*
X3106267Y7421168D01*
X3106267Y7417409D01*
X3104896Y7413904D01*
X3103676Y7411923D01*
X3101746Y7406487D01*
X3101035Y7398816D01*
X3100120Y7394600D01*
X3097580Y7391146D01*
X3093770Y7389063D01*
X3089452Y7388758D01*
X3085439Y7390231D01*
X3082391Y7393279D01*
X3080867Y7397343D01*
X3079699Y7405166D01*
X3074924Y7424267D01*
X3068269Y7442758D01*
X3059836Y7460589D01*
X3049727Y7477455D01*
X3037992Y7493304D01*
X3024784Y7507884D01*
X3010204Y7521092D01*
X2994355Y7532827D01*
X2977489Y7542936D01*
X2959658Y7551369D01*
X2941167Y7558024D01*
X2922066Y7562799D01*
X2902559Y7565694D01*
X2882900Y7566659D01*
X2863240Y7565694D01*
X2843733Y7562799D01*
X2824632Y7558024D01*
X2806141Y7551369D01*
X2788310Y7542936D01*
X2771444Y7532827D01*
X2755595Y7521092D01*
X2741015Y7507884D01*
X2727807Y7493304D01*
X2716072Y7477455D01*
X2705963Y7460589D01*
X2697530Y7442758D01*
X2690876Y7424267D01*
X2686100Y7405166D01*
X2683205Y7385659D01*
X2682240Y7366000D01*
X2683205Y7346340D01*
X2686100Y7326833D01*
X2690876Y7307732D01*
X2697530Y7289241D01*
X2705963Y7271410D01*
X2716072Y7254544D01*
X2727807Y7238695D01*
X2741015Y7224115D01*
X2755595Y7210907D01*
X2771444Y7199172D01*
X2788310Y7189063D01*
X2806141Y7180630D01*
X2824632Y7173975D01*
X2843733Y7169200D01*
X2863240Y7166305D01*
X2882900Y7165340D01*
X2902559Y7166305D01*
X2922066Y7169200D01*
X2941167Y7173975D01*
X2959658Y7180630D01*
X2977489Y7189063D01*
X2994355Y7199172D01*
X3010204Y7210907D01*
X3024784Y7224115D01*
X3037992Y7238695D01*
X3049727Y7254544D01*
X3059836Y7271410D01*
X3068269Y7289241D01*
X3074924Y7307732D01*
X3079699Y7326833D01*
X3080867Y7334656D01*
X3082391Y7338720D01*
X3085439Y7341768D01*
X3089452Y7343241D01*
X3093770Y7342936D01*
X3097580Y7340853D01*
X3100120Y7337399D01*
X3101035Y7333183D01*
X3101035Y7311390D01*
X3101746Y7305090D01*
X3103676Y7299706D01*
X3106724Y7294829D01*
X3110738Y7290816D01*
X3114294Y7287768D01*
X3115970Y7284567D01*
X3116376Y7280960D01*
X3115462Y7277455D01*
X3113430Y7274458D01*
X3106775Y7267803D01*
X3103880Y7265771D01*
X3096158Y7262164D01*
X3088132Y7256576D01*
X3081223Y7249668D01*
X3075635Y7241641D01*
X3071469Y7232802D01*
X3068980Y7223353D01*
X3068116Y7213600D01*
X3068980Y7203846D01*
X3071469Y7194397D01*
X3075635Y7185558D01*
X3081223Y7177531D01*
X3088132Y7170623D01*
X3096158Y7165035D01*
X3104997Y7160869D01*
X3114446Y7158380D01*
X3124200Y7157516D01*
X3133953Y7158380D01*
X3143402Y7160869D01*
X3152241Y7165035D01*
X3160268Y7170623D01*
X3167176Y7177531D01*
X3172764Y7185558D01*
X3176371Y7193280D01*
X3178403Y7196175D01*
X3262223Y7279995D01*
X3263493Y7281519D01*
X3266998Y7284212D01*
X3271265Y7285126D01*
X3326129Y7285126D01*
X3332378Y7285837D01*
X3337814Y7287768D01*
X3342640Y7290816D01*
X3346704Y7294829D01*
X3349751Y7299706D01*
X3351682Y7305090D01*
X3352342Y7311390D01*
X3352342Y7400239D01*
X3351682Y7406487D01*
X3349751Y7411923D01*
X3348532Y7413904D01*
X3347110Y7417409D01*
X3347110Y7421168D01*
X3348532Y7424724D01*
X3349751Y7426706D01*
X3351682Y7432090D01*
X3352342Y7438390D01*
X3352342Y7441133D01*
X3353308Y7445451D01*
X3356000Y7448905D01*
X3359912Y7450937D01*
X3364280Y7451140D01*
X3368344Y7449464D01*
X3375558Y7444435D01*
X3384397Y7440269D01*
X3393846Y7437780D01*
X3403600Y7436916D01*
X3413353Y7437780D01*
X3415944Y7438440D01*
X3419652Y7438745D01*
X3423208Y7437678D01*
X3426155Y7435443D01*
X3428085Y7432294D01*
X3428746Y7428636D01*
X3428746Y7246416D01*
X3427984Y7242505D01*
X3425748Y7239203D01*
X3212896Y7026351D01*
X3209594Y7024116D01*
X3205683Y7023353D01*
X2934208Y7023353D01*
X2926232Y7022592D01*
X2919018Y7020407D01*
X2912414Y7016851D01*
X2906217Y7011771D01*
X2781096Y6886651D01*
X2777794Y6884416D01*
X2773883Y6883653D01*
X2350008Y6883653D01*
X2342032Y6882892D01*
X2334818Y6880707D01*
X2328214Y6877151D01*
X2322017Y6872071D01*
X2095296Y6645351D01*
X2091994Y6643116D01*
X2088083Y6642353D01*
X2007107Y6642353D01*
X1999132Y6641592D01*
X1991918Y6639407D01*
X1985314Y6635851D01*
X1979117Y6630771D01*
X1921662Y6573316D01*
X1918411Y6571132D01*
X1914601Y6570370D01*
X1910740Y6571081D01*
X1902612Y6574281D01*
X1888591Y6577888D01*
X1874164Y6579717D01*
X1859635Y6579717D01*
X1845208Y6577888D01*
X1831187Y6574281D01*
X1817674Y6568948D01*
X1804924Y6561937D01*
X1793189Y6553403D01*
X1782622Y6543446D01*
X1773326Y6532270D01*
X1765554Y6520027D01*
X1759407Y6506870D01*
X1754886Y6493052D01*
X1752193Y6478778D01*
X1751279Y6464300D01*
X1752193Y6449822D01*
X1754886Y6435547D01*
X1759407Y6421729D01*
X1765554Y6408572D01*
X1773326Y6396329D01*
X1782622Y6385153D01*
X1793189Y6375196D01*
X1804924Y6366662D01*
X1817674Y6359652D01*
X1831187Y6354318D01*
X1845208Y6350711D01*
X1859635Y6348882D01*
X1874164Y6348882D01*
X1888591Y6350711D01*
X1902612Y6354318D01*
X1916125Y6359652D01*
X1928875Y6366662D01*
X1940610Y6375196D01*
X1951177Y6385153D01*
X1960473Y6396329D01*
X1968246Y6408572D01*
X1974392Y6421729D01*
X1978914Y6435547D01*
X1981606Y6449822D01*
X1982520Y6464300D01*
X1981606Y6478778D01*
X1978914Y6493052D01*
X1974392Y6506870D01*
X1973072Y6511696D01*
X1973783Y6515760D01*
X1976018Y6519214D01*
X2019503Y6562648D01*
X2022805Y6564884D01*
X2026716Y6565646D01*
X2034590Y6565646D01*
X2038502Y6564833D01*
X2041855Y6562598D01*
X2044039Y6559245D01*
X2044750Y6555282D01*
X2043836Y6551371D01*
X2041550Y6548069D01*
X2036622Y6543446D01*
X2027326Y6532270D01*
X2019554Y6520027D01*
X2013407Y6506870D01*
X2008886Y6493052D01*
X2006193Y6478778D01*
X2005279Y6464300D01*
X2006193Y6449822D01*
X2008886Y6435547D01*
X2013407Y6421729D01*
X2019554Y6408572D01*
X2027326Y6396329D01*
X2036622Y6385153D01*
X2047189Y6375196D01*
X2058924Y6366662D01*
X2071674Y6359652D01*
X2085187Y6354318D01*
X2099208Y6350711D01*
X2113635Y6348882D01*
X2128164Y6348882D01*
X2142591Y6350711D01*
X2156612Y6354318D01*
X2170125Y6359652D01*
X2182876Y6366662D01*
X2194610Y6375196D01*
X2205177Y6385153D01*
X2214473Y6396329D01*
X2222246Y6408572D01*
X2228392Y6421729D01*
X2232914Y6435547D01*
X2235606Y6449822D01*
X2236520Y6464300D01*
X2235606Y6478778D01*
X2232914Y6493052D01*
X2228392Y6506870D01*
X2227072Y6511696D01*
X2227783Y6515760D01*
X2230018Y6519214D01*
X2451303Y6740448D01*
X2454605Y6742684D01*
X2458516Y6743446D01*
X2575255Y6743446D01*
X2579166Y6742684D01*
X2582468Y6740448D01*
X2584653Y6737197D01*
X2585415Y6733286D01*
X2584653Y6729374D01*
X2582468Y6726123D01*
X2429662Y6573316D01*
X2426411Y6571132D01*
X2422601Y6570370D01*
X2418740Y6571081D01*
X2410612Y6574281D01*
X2396591Y6577888D01*
X2382164Y6579717D01*
X2367635Y6579717D01*
X2353208Y6577888D01*
X2339187Y6574281D01*
X2325674Y6568948D01*
X2312924Y6561937D01*
X2301189Y6553403D01*
X2290622Y6543446D01*
X2281326Y6532270D01*
X2273554Y6520027D01*
X2267407Y6506870D01*
X2262886Y6493052D01*
X2260193Y6478778D01*
X2259279Y6464300D01*
X2260193Y6449822D01*
X2262886Y6435547D01*
X2267407Y6421729D01*
X2273554Y6408572D01*
X2281326Y6396329D01*
X2290622Y6385153D01*
X2301189Y6375196D01*
X2312924Y6366662D01*
X2325674Y6359652D01*
X2339187Y6354318D01*
X2353208Y6350711D01*
X2367635Y6348882D01*
X2382164Y6348882D01*
X2396591Y6350711D01*
X2410612Y6354318D01*
X2424125Y6359652D01*
X2436876Y6366662D01*
X2448610Y6375196D01*
X2459177Y6385153D01*
X2468473Y6396329D01*
X2476246Y6408572D01*
X2482392Y6421729D01*
X2486914Y6435547D01*
X2489606Y6449822D01*
X2490520Y6464300D01*
X2489606Y6478778D01*
X2486914Y6493052D01*
X2482392Y6506870D01*
X2481072Y6511696D01*
X2481783Y6515760D01*
X2484018Y6519214D01*
X2629103Y6664248D01*
X2632405Y6666484D01*
X2636316Y6667246D01*
X2664155Y6667246D01*
X2668066Y6666484D01*
X2671368Y6664248D01*
X2673553Y6660997D01*
X2674315Y6657086D01*
X2673553Y6653174D01*
X2671368Y6649923D01*
X2602128Y6580682D01*
X2599994Y6578041D01*
X2597607Y6575907D01*
X2579674Y6568948D01*
X2566924Y6561937D01*
X2555189Y6553403D01*
X2544622Y6543446D01*
X2535326Y6532270D01*
X2527554Y6520027D01*
X2521407Y6506870D01*
X2516886Y6493052D01*
X2514193Y6478778D01*
X2513279Y6464300D01*
X2514193Y6449822D01*
X2516886Y6435547D01*
X2521407Y6421729D01*
X2527554Y6408572D01*
X2535326Y6396329D01*
X2544622Y6385153D01*
X2555189Y6375196D01*
X2566924Y6366662D01*
X2579674Y6359652D01*
X2593187Y6354318D01*
X2607208Y6350711D01*
X2621635Y6348882D01*
X2636164Y6348882D01*
X2650591Y6350711D01*
X2664612Y6354318D01*
X2678125Y6359652D01*
X2690876Y6366662D01*
X2702610Y6375196D01*
X2713177Y6385153D01*
X2722473Y6396329D01*
X2730246Y6408572D01*
X2736392Y6421729D01*
X2740914Y6435547D01*
X2743606Y6449822D01*
X2744520Y6464300D01*
X2743606Y6478778D01*
X2740914Y6493052D01*
X2736392Y6506870D01*
X2730246Y6520027D01*
X2722473Y6532270D01*
X2713177Y6543446D01*
X2702610Y6553403D01*
X2701086Y6554520D01*
X2698191Y6557772D01*
X2696921Y6561937D01*
X2697530Y6566255D01*
X2699867Y6569913D01*
X2730703Y6600748D01*
X2734005Y6602984D01*
X2737916Y6603746D01*
X2844292Y6603746D01*
X2846070Y6603898D01*
X2850286Y6603441D01*
X2853893Y6601358D01*
X2856382Y6597903D01*
X2857246Y6593789D01*
X2857246Y6584746D01*
X2856280Y6580428D01*
X2853537Y6576923D01*
X2849626Y6574891D01*
X2847187Y6574281D01*
X2833674Y6568948D01*
X2820924Y6561937D01*
X2809189Y6553403D01*
X2798622Y6543446D01*
X2789326Y6532270D01*
X2781554Y6520027D01*
X2775407Y6506870D01*
X2770886Y6493052D01*
X2768193Y6478778D01*
X2767279Y6464300D01*
X2768193Y6449822D01*
X2770886Y6435547D01*
X2775407Y6421729D01*
X2781554Y6408572D01*
X2789326Y6396329D01*
X2798622Y6385153D01*
X2809189Y6375196D01*
X2820924Y6366662D01*
X2833674Y6359652D01*
X2847187Y6354318D01*
X2861208Y6350711D01*
X2875635Y6348882D01*
X2890164Y6348882D01*
X2904591Y6350711D01*
X2918612Y6354318D01*
X2932125Y6359652D01*
X2944876Y6366662D01*
X2956610Y6375196D01*
X2967177Y6385153D01*
X2976473Y6396329D01*
X2984246Y6408572D01*
X2990392Y6421729D01*
X2994914Y6435547D01*
X2997606Y6449822D01*
X2998520Y6464300D01*
X2997606Y6478778D01*
X2994914Y6493052D01*
X2990392Y6506870D01*
X2984246Y6520027D01*
X2976473Y6532270D01*
X2967177Y6543446D01*
X2956610Y6553403D01*
X2944876Y6561937D01*
X2939237Y6565036D01*
X2936443Y6567322D01*
X2934614Y6570370D01*
X2933954Y6573926D01*
X2933954Y6596583D01*
X2934716Y6600494D01*
X2936951Y6603796D01*
X3073603Y6740448D01*
X3076905Y6742684D01*
X3080816Y6743446D01*
X3377692Y6743446D01*
X3385667Y6744208D01*
X3392881Y6746392D01*
X3399485Y6749948D01*
X3405682Y6755028D01*
X3697071Y7046417D01*
X3702151Y7052614D01*
X3705707Y7059218D01*
X3707892Y7066432D01*
X3708654Y7074408D01*
X3708654Y7824978D01*
X3709517Y7829143D01*
X3712057Y7832547D01*
X3715715Y7834680D01*
X3719931Y7835087D01*
X3725570Y7834426D01*
X4224426Y7834426D01*
X4230268Y7835087D01*
X4234484Y7834680D01*
X4238142Y7832598D01*
X4240682Y7829143D01*
X4241546Y7825028D01*
X4241546Y7652816D01*
X4240784Y7648905D01*
X4238548Y7645603D01*
X4037228Y7444282D01*
X4032148Y7438085D01*
X4028592Y7431481D01*
X4026408Y7424267D01*
X4025646Y7416292D01*
X4025646Y6916216D01*
X4024884Y6912305D01*
X4022648Y6909003D01*
X3885996Y6772351D01*
X3882694Y6770116D01*
X3878783Y6769353D01*
X3493008Y6769353D01*
X3485032Y6768592D01*
X3477818Y6766407D01*
X3471214Y6762851D01*
X3465017Y6757771D01*
X3352596Y6645351D01*
X3349294Y6643116D01*
X3345383Y6642353D01*
X3251708Y6642353D01*
X3243732Y6641592D01*
X3236518Y6639407D01*
X3229914Y6635851D01*
X3223717Y6630771D01*
X3172409Y6579463D01*
X3169564Y6577482D01*
X3166211Y6576568D01*
X3162706Y6576822D01*
X3158591Y6577888D01*
X3144164Y6579717D01*
X3129635Y6579717D01*
X3115208Y6577888D01*
X3101187Y6574281D01*
X3087674Y6568948D01*
X3074924Y6561937D01*
X3063189Y6553403D01*
X3052622Y6543446D01*
X3043326Y6532270D01*
X3035554Y6520027D01*
X3029407Y6506870D01*
X3024886Y6493052D01*
X3022193Y6478778D01*
X3021279Y6464300D01*
X3022193Y6449822D01*
X3024886Y6435547D01*
X3029407Y6421729D01*
X3035554Y6408572D01*
X3043326Y6396329D01*
X3052622Y6385153D01*
X3063189Y6375196D01*
X3074924Y6366662D01*
X3087674Y6359652D01*
X3101187Y6354318D01*
X3115208Y6350711D01*
X3129635Y6348882D01*
X3144164Y6348882D01*
X3158591Y6350711D01*
X3172612Y6354318D01*
X3186125Y6359652D01*
X3198876Y6366662D01*
X3210610Y6375196D01*
X3221177Y6385153D01*
X3230473Y6396329D01*
X3238246Y6408572D01*
X3244392Y6421729D01*
X3248914Y6435547D01*
X3251606Y6449822D01*
X3252520Y6464300D01*
X3251606Y6478778D01*
X3248914Y6493052D01*
X3244392Y6506870D01*
X3238246Y6520027D01*
X3236061Y6523380D01*
X3234740Y6526530D01*
X3234537Y6529984D01*
X3235502Y6533235D01*
X3237484Y6536029D01*
X3264103Y6562648D01*
X3267405Y6564884D01*
X3271316Y6565646D01*
X3304590Y6565646D01*
X3308502Y6564833D01*
X3311855Y6562598D01*
X3314039Y6559245D01*
X3314750Y6555282D01*
X3313836Y6551371D01*
X3311550Y6548069D01*
X3306622Y6543446D01*
X3297326Y6532270D01*
X3289554Y6520027D01*
X3283407Y6506870D01*
X3278886Y6493052D01*
X3276193Y6478778D01*
X3275279Y6464300D01*
X3276193Y6449822D01*
X3278886Y6435547D01*
X3283407Y6421729D01*
X3289554Y6408572D01*
X3297326Y6396329D01*
X3306622Y6385153D01*
X3317189Y6375196D01*
X3328924Y6366662D01*
X3341674Y6359652D01*
X3355187Y6354318D01*
X3369208Y6350711D01*
X3383635Y6348882D01*
X3398164Y6348882D01*
X3412591Y6350711D01*
X3426612Y6354318D01*
X3440125Y6359652D01*
X3452876Y6366662D01*
X3464610Y6375196D01*
X3475177Y6385153D01*
X3484473Y6396329D01*
X3492246Y6408572D01*
X3498392Y6421729D01*
X3502914Y6435547D01*
X3505606Y6449822D01*
X3506520Y6464300D01*
X3505606Y6478778D01*
X3502914Y6493052D01*
X3498392Y6506870D01*
X3492246Y6520027D01*
X3485134Y6531152D01*
X3483813Y6534302D01*
X3483610Y6537706D01*
X3484575Y6541007D01*
X3486556Y6543802D01*
X3581603Y6638848D01*
X3584905Y6641084D01*
X3588816Y6641846D01*
X3756355Y6641846D01*
X3760266Y6641084D01*
X3763568Y6638848D01*
X3765753Y6635597D01*
X3766515Y6631686D01*
X3765753Y6627774D01*
X3763568Y6624523D01*
X3708450Y6569405D01*
X3704844Y6567068D01*
X3700526Y6566458D01*
X3696411Y6567678D01*
X3694125Y6568948D01*
X3680612Y6574281D01*
X3666591Y6577888D01*
X3652164Y6579717D01*
X3637635Y6579717D01*
X3623208Y6577888D01*
X3609187Y6574281D01*
X3595674Y6568948D01*
X3582924Y6561937D01*
X3571189Y6553403D01*
X3560622Y6543446D01*
X3551326Y6532270D01*
X3543554Y6520027D01*
X3537407Y6506870D01*
X3532886Y6493052D01*
X3530193Y6478778D01*
X3529279Y6464300D01*
X3530193Y6449822D01*
X3532886Y6435547D01*
X3537407Y6421729D01*
X3543554Y6408572D01*
X3551326Y6396329D01*
X3560622Y6385153D01*
X3571189Y6375196D01*
X3582924Y6366662D01*
X3595674Y6359652D01*
X3609187Y6354318D01*
X3623208Y6350711D01*
X3637635Y6348882D01*
X3652164Y6348882D01*
X3666591Y6350711D01*
X3680612Y6354318D01*
X3694125Y6359652D01*
X3706876Y6366662D01*
X3718610Y6375196D01*
X3729177Y6385153D01*
X3738473Y6396329D01*
X3746246Y6408572D01*
X3752392Y6421729D01*
X3756914Y6435547D01*
X3759606Y6449822D01*
X3760520Y6464300D01*
X3759606Y6478778D01*
X3756914Y6493052D01*
X3754831Y6499453D01*
X3754323Y6503111D01*
X3755186Y6506718D01*
X3757320Y6509766D01*
X3784650Y6537096D01*
X3788156Y6539382D01*
X3792321Y6540042D01*
X3796385Y6538976D01*
X3799687Y6536334D01*
X3801618Y6532626D01*
X3801872Y6528409D01*
X3800398Y6524447D01*
X3797554Y6520027D01*
X3791407Y6506870D01*
X3786886Y6493052D01*
X3784193Y6478778D01*
X3783279Y6464300D01*
X3784193Y6449822D01*
X3786886Y6435547D01*
X3791407Y6421729D01*
X3797554Y6408572D01*
X3805326Y6396329D01*
X3814622Y6385153D01*
X3825189Y6375196D01*
X3836924Y6366662D01*
X3849674Y6359652D01*
X3863187Y6354318D01*
X3877208Y6350711D01*
X3891635Y6348882D01*
X3906164Y6348882D01*
X3920591Y6350711D01*
X3934612Y6354318D01*
X3948125Y6359652D01*
X3960876Y6366662D01*
X3972610Y6375196D01*
X3983177Y6385153D01*
X3992473Y6396329D01*
X4000246Y6408572D01*
X4006392Y6421729D01*
X4010914Y6435547D01*
X4013606Y6449822D01*
X4014520Y6464300D01*
X4013606Y6478778D01*
X4010914Y6493052D01*
X4006392Y6506870D01*
X4000246Y6520027D01*
X3993134Y6531152D01*
X3991813Y6534302D01*
X3991610Y6537706D01*
X3992575Y6541007D01*
X3994556Y6543802D01*
X4097223Y6646468D01*
X4100474Y6648653D01*
X4104386Y6649415D01*
X4108297Y6648653D01*
X4111548Y6646468D01*
X4113784Y6643166D01*
X4114546Y6639255D01*
X4114546Y6580124D01*
X4113733Y6576212D01*
X4111498Y6572859D01*
X4108145Y6570675D01*
X4103674Y6568948D01*
X4090924Y6561937D01*
X4079189Y6553403D01*
X4068622Y6543446D01*
X4059326Y6532270D01*
X4051554Y6520027D01*
X4045407Y6506870D01*
X4040886Y6493052D01*
X4038193Y6478778D01*
X4037279Y6464300D01*
X4038193Y6449822D01*
X4040886Y6435547D01*
X4045407Y6421729D01*
X4051554Y6408572D01*
X4059326Y6396329D01*
X4068622Y6385153D01*
X4079189Y6375196D01*
X4090924Y6366662D01*
X4103674Y6359652D01*
X4117187Y6354318D01*
X4131208Y6350711D01*
X4145635Y6348882D01*
X4160164Y6348882D01*
X4174591Y6350711D01*
X4188612Y6354318D01*
X4202125Y6359652D01*
X4214876Y6366662D01*
X4226610Y6375196D01*
X4237177Y6385153D01*
X4246473Y6396329D01*
X4254246Y6408572D01*
X4260392Y6421729D01*
X4264914Y6435547D01*
X4267606Y6449822D01*
X4268520Y6464300D01*
X4267606Y6478778D01*
X4264914Y6493052D01*
X4260392Y6506870D01*
X4254246Y6520027D01*
X4246473Y6532270D01*
X4237177Y6543446D01*
X4226610Y6553403D01*
X4214876Y6561937D01*
X4202125Y6568948D01*
X4197654Y6570675D01*
X4194301Y6572859D01*
X4192066Y6576212D01*
X4191254Y6580124D01*
X4191254Y6660083D01*
X4192015Y6663994D01*
X4194251Y6667296D01*
X4291787Y6764832D01*
X4295038Y6767017D01*
X4298950Y6767779D01*
X4302861Y6767017D01*
X4306112Y6764832D01*
X4403648Y6667296D01*
X4405884Y6663994D01*
X4406646Y6660083D01*
X4406646Y6589572D01*
X4405985Y6585966D01*
X4404106Y6582816D01*
X4401261Y6580581D01*
X4397756Y6579463D01*
X4385208Y6577888D01*
X4371187Y6574281D01*
X4357674Y6568948D01*
X4344924Y6561937D01*
X4333189Y6553403D01*
X4322622Y6543446D01*
X4313326Y6532270D01*
X4305554Y6520027D01*
X4299407Y6506870D01*
X4294886Y6493052D01*
X4292193Y6478778D01*
X4291279Y6464300D01*
X4292193Y6449822D01*
X4294886Y6435547D01*
X4299407Y6421729D01*
X4305554Y6408572D01*
X4313326Y6396329D01*
X4322622Y6385153D01*
X4333189Y6375196D01*
X4344924Y6366662D01*
X4357674Y6359652D01*
X4371187Y6354318D01*
X4385208Y6350711D01*
X4399635Y6348882D01*
X4414164Y6348882D01*
X4428591Y6350711D01*
X4442612Y6354318D01*
X4456125Y6359652D01*
X4468876Y6366662D01*
X4480610Y6375196D01*
X4491177Y6385153D01*
X4500473Y6396329D01*
X4508246Y6408572D01*
X4514392Y6421729D01*
X4518914Y6435547D01*
X4521606Y6449822D01*
X4522520Y6464300D01*
X4521606Y6478778D01*
X4518914Y6493052D01*
X4514392Y6506870D01*
X4508246Y6520027D01*
X4500473Y6532270D01*
X4491177Y6543446D01*
X4485538Y6548780D01*
X4483608Y6551218D01*
X4482541Y6554114D01*
X4482388Y6557213D01*
X4483354Y6566408D01*
X4483354Y6626555D01*
X4484116Y6630466D01*
X4486351Y6633768D01*
X4489602Y6635953D01*
X4493514Y6636715D01*
X4497425Y6635953D01*
X4500676Y6633768D01*
X4576622Y6557822D01*
X4578705Y6554774D01*
X4579569Y6551117D01*
X4579061Y6547408D01*
X4577232Y6544157D01*
X4567326Y6532270D01*
X4559554Y6520027D01*
X4553407Y6506870D01*
X4548886Y6493052D01*
X4546193Y6478778D01*
X4545279Y6464300D01*
X4546193Y6449822D01*
X4548886Y6435547D01*
X4553407Y6421729D01*
X4559554Y6408572D01*
X4567326Y6396329D01*
X4576622Y6385153D01*
X4587189Y6375196D01*
X4598924Y6366662D01*
X4611674Y6359652D01*
X4625187Y6354318D01*
X4639208Y6350711D01*
X4653635Y6348882D01*
X4668164Y6348882D01*
X4682591Y6350711D01*
X4696612Y6354318D01*
X4710125Y6359652D01*
X4722876Y6366662D01*
X4734610Y6375196D01*
X4745177Y6385153D01*
X4754473Y6396329D01*
X4762246Y6408572D01*
X4768392Y6421729D01*
X4772914Y6435547D01*
X4775606Y6449822D01*
X4776520Y6464300D01*
X4775606Y6478778D01*
X4772914Y6493052D01*
X4768392Y6506870D01*
X4762246Y6520027D01*
X4754473Y6532270D01*
X4745177Y6543446D01*
X4734610Y6553403D01*
X4722876Y6561937D01*
X4710125Y6568948D01*
X4696612Y6574281D01*
X4682591Y6577888D01*
X4668164Y6579717D01*
X4663541Y6580479D01*
X4660239Y6582664D01*
X4656531Y6586423D01*
X4654346Y6589674D01*
X4653584Y6593586D01*
X4654346Y6597497D01*
X4656531Y6600748D01*
X4659833Y6602984D01*
X4663744Y6603746D01*
X5009083Y6603746D01*
X5012994Y6602984D01*
X5016296Y6600748D01*
X5073243Y6543802D01*
X5075224Y6541007D01*
X5076190Y6537706D01*
X5075986Y6534302D01*
X5074666Y6531152D01*
X5067554Y6520027D01*
X5061407Y6506870D01*
X5056886Y6493052D01*
X5054193Y6478778D01*
X5053279Y6464300D01*
X5054193Y6449822D01*
X5056886Y6435547D01*
X5061407Y6421729D01*
X5067554Y6408572D01*
X5075326Y6396329D01*
X5084622Y6385153D01*
X5095189Y6375196D01*
X5106924Y6366662D01*
X5119674Y6359652D01*
X5133187Y6354318D01*
X5147208Y6350711D01*
X5161635Y6348882D01*
X5176164Y6348882D01*
X5190591Y6350711D01*
X5204612Y6354318D01*
X5218125Y6359652D01*
X5230876Y6366662D01*
X5242610Y6375196D01*
X5253177Y6385153D01*
X5262473Y6396329D01*
X5270246Y6408572D01*
X5276392Y6421729D01*
X5280914Y6435547D01*
X5283606Y6449822D01*
X5284520Y6464300D01*
X5283606Y6478778D01*
X5280914Y6493052D01*
X5276392Y6506870D01*
X5270246Y6520027D01*
X5262473Y6532270D01*
X5253177Y6543446D01*
X5242610Y6553403D01*
X5230876Y6561937D01*
X5218125Y6568948D01*
X5204612Y6574281D01*
X5190591Y6577888D01*
X5176164Y6579717D01*
X5161635Y6579717D01*
X5152542Y6578549D01*
X5149494Y6578650D01*
X5146548Y6579616D01*
X5144109Y6581444D01*
X5088331Y6637223D01*
X5086146Y6640474D01*
X5085384Y6644386D01*
X5086146Y6648297D01*
X5088331Y6651548D01*
X5091633Y6653784D01*
X5095544Y6654546D01*
X5263083Y6654546D01*
X5266994Y6653784D01*
X5270296Y6651548D01*
X5351932Y6569913D01*
X5354269Y6566255D01*
X5354878Y6561937D01*
X5353608Y6557772D01*
X5350713Y6554520D01*
X5349189Y6553403D01*
X5338622Y6543446D01*
X5329326Y6532270D01*
X5321554Y6520027D01*
X5315407Y6506870D01*
X5310886Y6493052D01*
X5308193Y6478778D01*
X5307279Y6464300D01*
X5308193Y6449822D01*
X5310886Y6435547D01*
X5315407Y6421729D01*
X5321554Y6408572D01*
X5329326Y6396329D01*
X5338622Y6385153D01*
X5349189Y6375196D01*
X5360924Y6366662D01*
X5373674Y6359652D01*
X5387187Y6354318D01*
X5401208Y6350711D01*
X5415635Y6348882D01*
X5430164Y6348882D01*
X5444591Y6350711D01*
X5458612Y6354318D01*
X5472125Y6359652D01*
X5484876Y6366662D01*
X5496610Y6375196D01*
X5507177Y6385153D01*
X5516473Y6396329D01*
X5524246Y6408572D01*
X5530392Y6421729D01*
X5534914Y6435547D01*
X5537606Y6449822D01*
X5538520Y6464300D01*
X5537606Y6478778D01*
X5534914Y6493052D01*
X5530392Y6506870D01*
X5524246Y6520027D01*
X5516473Y6532270D01*
X5507177Y6543446D01*
X5496610Y6553403D01*
X5484876Y6561937D01*
X5472125Y6568948D01*
X5454192Y6575907D01*
X5451805Y6578041D01*
X5449671Y6580682D01*
X5342331Y6688023D01*
X5340146Y6691274D01*
X5339384Y6695186D01*
X5340146Y6699097D01*
X5342331Y6702348D01*
X5345633Y6704584D01*
X5349544Y6705346D01*
X5504383Y6705346D01*
X5508294Y6704584D01*
X5511596Y6702348D01*
X5629300Y6584645D01*
X5631434Y6581546D01*
X5632246Y6577939D01*
X5631738Y6574231D01*
X5629910Y6570929D01*
X5627014Y6568592D01*
X5614924Y6561937D01*
X5603189Y6553403D01*
X5592622Y6543446D01*
X5583326Y6532270D01*
X5575554Y6520027D01*
X5569407Y6506870D01*
X5564886Y6493052D01*
X5562193Y6478778D01*
X5561279Y6464300D01*
X5562193Y6449822D01*
X5564886Y6435547D01*
X5569407Y6421729D01*
X5575554Y6408572D01*
X5583326Y6396329D01*
X5592622Y6385153D01*
X5603189Y6375196D01*
X5614924Y6366662D01*
X5627674Y6359652D01*
X5641187Y6354318D01*
X5655208Y6350711D01*
X5669635Y6348882D01*
X5684164Y6348882D01*
X5698591Y6350711D01*
X5712612Y6354318D01*
X5726125Y6359652D01*
X5738876Y6366662D01*
X5750610Y6375196D01*
X5761177Y6385153D01*
X5770473Y6396329D01*
X5778246Y6408572D01*
X5784392Y6421729D01*
X5788914Y6435547D01*
X5791606Y6449822D01*
X5792520Y6464300D01*
X5791606Y6478778D01*
X5788914Y6493052D01*
X5784392Y6506870D01*
X5778246Y6520027D01*
X5770473Y6532270D01*
X5761177Y6543446D01*
X5750610Y6553403D01*
X5738876Y6561937D01*
X5733237Y6565036D01*
X5730443Y6567322D01*
X5728614Y6570370D01*
X5727954Y6573926D01*
X5727954Y6578092D01*
X5727192Y6586067D01*
X5725007Y6593281D01*
X5721451Y6599885D01*
X5716371Y6606082D01*
X5583631Y6738823D01*
X5581446Y6742074D01*
X5580684Y6745986D01*
X5581446Y6749897D01*
X5583631Y6753148D01*
X5586933Y6755384D01*
X5590844Y6756146D01*
X5631383Y6756146D01*
X5635294Y6755384D01*
X5638596Y6753148D01*
X5840831Y6550914D01*
X5842965Y6547866D01*
X5843778Y6544208D01*
X5843270Y6540500D01*
X5841492Y6537248D01*
X5837326Y6532270D01*
X5829554Y6520027D01*
X5823407Y6506870D01*
X5818886Y6493052D01*
X5816193Y6478778D01*
X5815279Y6464300D01*
X5816193Y6449822D01*
X5818886Y6435547D01*
X5823407Y6421729D01*
X5829554Y6408572D01*
X5837326Y6396329D01*
X5846622Y6385153D01*
X5857189Y6375196D01*
X5868924Y6366662D01*
X5881674Y6359652D01*
X5895187Y6354318D01*
X5909208Y6350711D01*
X5923635Y6348882D01*
X5938164Y6348882D01*
X5952591Y6350711D01*
X5966612Y6354318D01*
X5980125Y6359652D01*
X5992876Y6366662D01*
X6004610Y6375196D01*
X6015177Y6385153D01*
X6024473Y6396329D01*
X6032246Y6408572D01*
X6038392Y6421729D01*
X6042914Y6435547D01*
X6045606Y6449822D01*
X6046520Y6464300D01*
X6045606Y6478778D01*
X6042914Y6493052D01*
X6038392Y6506870D01*
X6032246Y6520027D01*
X6024473Y6532270D01*
X6015177Y6543446D01*
X6004610Y6553403D01*
X5992876Y6561937D01*
X5980125Y6568948D01*
X5966612Y6574281D01*
X5952591Y6577888D01*
X5938164Y6579717D01*
X5924753Y6579717D01*
X5920841Y6580479D01*
X5917539Y6582664D01*
X5710631Y6789623D01*
X5708446Y6792874D01*
X5707684Y6796786D01*
X5708446Y6800697D01*
X5710631Y6803948D01*
X5713933Y6806184D01*
X5717844Y6806946D01*
X5872683Y6806946D01*
X5876594Y6806184D01*
X5879896Y6803948D01*
X6113932Y6569913D01*
X6116269Y6566255D01*
X6116878Y6561937D01*
X6115608Y6557772D01*
X6112713Y6554520D01*
X6111189Y6553403D01*
X6100622Y6543446D01*
X6091326Y6532270D01*
X6083554Y6520027D01*
X6077407Y6506870D01*
X6072886Y6493052D01*
X6070193Y6478778D01*
X6069279Y6464300D01*
X6070193Y6449822D01*
X6072886Y6435547D01*
X6077407Y6421729D01*
X6083554Y6408572D01*
X6091326Y6396329D01*
X6100622Y6385153D01*
X6111189Y6375196D01*
X6122924Y6366662D01*
X6135674Y6359652D01*
X6149187Y6354318D01*
X6163208Y6350711D01*
X6177635Y6348882D01*
X6192164Y6348882D01*
X6206591Y6350711D01*
X6220612Y6354318D01*
X6234125Y6359652D01*
X6246876Y6366662D01*
X6258610Y6375196D01*
X6269177Y6385153D01*
X6278473Y6396329D01*
X6286246Y6408572D01*
X6292392Y6421729D01*
X6296914Y6435547D01*
X6299606Y6449822D01*
X6300520Y6464300D01*
X6299606Y6478778D01*
X6296914Y6493052D01*
X6292392Y6506870D01*
X6286246Y6520027D01*
X6278473Y6532270D01*
X6269177Y6543446D01*
X6258610Y6553403D01*
X6246876Y6561937D01*
X6234125Y6568948D01*
X6220612Y6574281D01*
X6213754Y6576059D01*
X6209995Y6577888D01*
X6207302Y6581089D01*
X6204051Y6587185D01*
X6198971Y6593382D01*
X5920282Y6872071D01*
X5914085Y6877151D01*
X5907481Y6880707D01*
X5900267Y6882892D01*
X5892292Y6883653D01*
X4744516Y6883653D01*
X4740605Y6884416D01*
X4737303Y6886651D01*
X4664151Y6959803D01*
X4661916Y6963105D01*
X4661154Y6967016D01*
X4661154Y7218883D01*
X4661916Y7222794D01*
X4664151Y7226096D01*
X4783683Y7345629D01*
X4786985Y7347864D01*
X4790897Y7348626D01*
X4794758Y7347864D01*
X4798060Y7345629D01*
X4800244Y7342378D01*
X4801057Y7338466D01*
X4801057Y7311390D01*
X4801717Y7305090D01*
X4803648Y7299706D01*
X4806696Y7294829D01*
X4810760Y7290816D01*
X4815586Y7287768D01*
X4821021Y7285837D01*
X4827270Y7285126D01*
X4932629Y7285126D01*
X4936490Y7284364D01*
X4939792Y7282180D01*
X5025796Y7196175D01*
X5027828Y7193280D01*
X5031435Y7185558D01*
X5037023Y7177531D01*
X5043932Y7170623D01*
X5051958Y7165035D01*
X5060797Y7160869D01*
X5070246Y7158380D01*
X5080000Y7157516D01*
X5089753Y7158380D01*
X5099202Y7160869D01*
X5108041Y7165035D01*
X5116068Y7170623D01*
X5122976Y7177531D01*
X5128564Y7185558D01*
X5132730Y7194397D01*
X5135219Y7203846D01*
X5136083Y7213600D01*
X5135219Y7223353D01*
X5132730Y7232802D01*
X5128564Y7241641D01*
X5122976Y7249668D01*
X5116068Y7256576D01*
X5108041Y7262164D01*
X5100320Y7265771D01*
X5097424Y7267803D01*
X5055311Y7309916D01*
X5053126Y7313218D01*
X5052364Y7317079D01*
X5052364Y7400239D01*
X5051653Y7406487D01*
X5049723Y7411923D01*
X5048504Y7413904D01*
X5047132Y7417409D01*
X5047132Y7421168D01*
X5048504Y7424724D01*
X5049723Y7426706D01*
X5051653Y7432090D01*
X5052009Y7435443D01*
X5053076Y7438948D01*
X5055362Y7441895D01*
X5058511Y7443774D01*
X5062118Y7444435D01*
X5132832Y7444435D01*
X5140807Y7445248D01*
X5147970Y7447432D01*
X5154574Y7450988D01*
X5157876Y7453680D01*
X5161788Y7455662D01*
X5166156Y7455814D01*
X5170170Y7454087D01*
X5173116Y7450886D01*
X5174437Y7446721D01*
X5173878Y7442403D01*
X5167376Y7424267D01*
X5162600Y7405166D01*
X5159705Y7385659D01*
X5158740Y7366000D01*
X5159705Y7346340D01*
X5162600Y7326833D01*
X5167376Y7307732D01*
X5174030Y7289241D01*
X5182463Y7271410D01*
X5192572Y7254544D01*
X5204307Y7238695D01*
X5217515Y7224115D01*
X5232095Y7210907D01*
X5247944Y7199172D01*
X5264810Y7189063D01*
X5282641Y7180630D01*
X5301132Y7173975D01*
X5320233Y7169200D01*
X5339740Y7166305D01*
X5359400Y7165340D01*
X5379059Y7166305D01*
X5398566Y7169200D01*
X5417667Y7173975D01*
X5436158Y7180630D01*
X5453989Y7189063D01*
X5470855Y7199172D01*
X5486704Y7210907D01*
X5501284Y7224115D01*
X5514492Y7238695D01*
X5526227Y7254544D01*
X5536336Y7271410D01*
X5544769Y7289241D01*
X5551424Y7307732D01*
X5556199Y7326833D01*
X5559094Y7346340D01*
X5560060Y7366000D01*
X5559094Y7385659D01*
X5556199Y7405166D01*
X5551424Y7424267D01*
X5544769Y7442758D01*
X5536336Y7460589D01*
X5526227Y7477455D01*
X5514492Y7493304D01*
X5501284Y7507884D01*
X5486704Y7521092D01*
X5470855Y7532827D01*
X5453989Y7542936D01*
X5436158Y7551369D01*
X5417667Y7558024D01*
X5398566Y7562799D01*
X5379059Y7565694D01*
X5359400Y7566659D01*
X5339740Y7565694D01*
X5320233Y7562799D01*
X5301132Y7558024D01*
X5282641Y7551369D01*
X5264810Y7542936D01*
X5259984Y7540040D01*
X5255768Y7538669D01*
X5251348Y7539177D01*
X5247589Y7541564D01*
X5245201Y7545324D01*
X5244642Y7549743D01*
X5245354Y7557008D01*
X5245354Y7599883D01*
X5246116Y7603794D01*
X5248351Y7607096D01*
X5270703Y7629448D01*
X5274005Y7631684D01*
X5277916Y7632446D01*
X5289092Y7632446D01*
X5293004Y7631684D01*
X5296306Y7629448D01*
X5297932Y7627823D01*
X5305958Y7622235D01*
X5314797Y7618069D01*
X5324246Y7615580D01*
X5334000Y7614716D01*
X5343753Y7615580D01*
X5353202Y7618069D01*
X5362041Y7622235D01*
X5370068Y7627823D01*
X5376976Y7634731D01*
X5382564Y7642758D01*
X5386730Y7651597D01*
X5389219Y7661046D01*
X5390083Y7670800D01*
X5389219Y7680553D01*
X5386730Y7690002D01*
X5382564Y7698841D01*
X5376976Y7706868D01*
X5370068Y7713776D01*
X5362041Y7719364D01*
X5355844Y7722260D01*
X5352694Y7724546D01*
X5350611Y7727899D01*
X5350002Y7731709D01*
X5350814Y7735519D01*
X5353050Y7738770D01*
X5356301Y7740903D01*
X5360162Y7741615D01*
X5525109Y7741615D01*
X5529021Y7740853D01*
X5532323Y7738668D01*
X5533948Y7737043D01*
X5541975Y7731404D01*
X5550814Y7727289D01*
X5560263Y7724749D01*
X5570016Y7723886D01*
X5579770Y7724749D01*
X5589219Y7727289D01*
X5598058Y7731404D01*
X5606084Y7737043D01*
X5612993Y7743952D01*
X5618581Y7751927D01*
X5622747Y7760817D01*
X5625236Y7770266D01*
X5626100Y7779969D01*
X5625236Y7789722D01*
X5622747Y7799171D01*
X5618581Y7808061D01*
X5612993Y7816037D01*
X5606084Y7822946D01*
X5598058Y7828584D01*
X5589219Y7832699D01*
X5579770Y7835239D01*
X5570016Y7836103D01*
X5560263Y7835239D01*
X5550814Y7832699D01*
X5541975Y7828584D01*
X5533948Y7822946D01*
X5532323Y7821320D01*
X5529021Y7819136D01*
X5525109Y7818323D01*
X5518556Y7818323D01*
X5514594Y7819136D01*
X5511292Y7821472D01*
X5509107Y7824876D01*
X5508447Y7828838D01*
X5509361Y7832801D01*
X5513730Y7842097D01*
X5516219Y7851546D01*
X5517083Y7861300D01*
X5516219Y7871053D01*
X5513730Y7880502D01*
X5509564Y7889341D01*
X5503976Y7897368D01*
X5497068Y7904276D01*
X5489041Y7909864D01*
X5480202Y7914030D01*
X5470753Y7916519D01*
X5461000Y7917383D01*
X5451246Y7916519D01*
X5441797Y7914030D01*
X5432958Y7909864D01*
X5424576Y7904022D01*
X5421782Y7902651D01*
X5418734Y7902194D01*
X5062118Y7902194D01*
X5058460Y7902854D01*
X5055311Y7904734D01*
X5053076Y7907680D01*
X5052009Y7911185D01*
X5051653Y7914487D01*
X5049723Y7919923D01*
X5048504Y7921904D01*
X5047132Y7925409D01*
X5047132Y7929168D01*
X5048504Y7932724D01*
X5049723Y7934706D01*
X5051653Y7940090D01*
X5052009Y7943443D01*
X5053076Y7946999D01*
X5055362Y7949895D01*
X5058511Y7951825D01*
X5062118Y7952486D01*
X5110226Y7952486D01*
X5118201Y7953248D01*
X5125415Y7955432D01*
X5132019Y7958988D01*
X5138216Y7964068D01*
X5326735Y8152587D01*
X5331815Y8158784D01*
X5335371Y8165388D01*
X5337556Y8172602D01*
X5338318Y8180578D01*
X5338318Y8478469D01*
X5339232Y8482634D01*
X5341721Y8486038D01*
X5345430Y8488172D01*
X5349646Y8488527D01*
X5353710Y8487206D01*
X5363972Y8477046D01*
X5371947Y8471408D01*
X5380837Y8467293D01*
X5390286Y8464753D01*
X5404815Y8463483D01*
X5408422Y8461349D01*
X5410860Y8457946D01*
X5411724Y8453831D01*
X5411724Y8204962D01*
X5410962Y8201050D01*
X5408726Y8197799D01*
X5407050Y8196072D01*
X5401411Y8188045D01*
X5397296Y8179206D01*
X5394756Y8169757D01*
X5393893Y8160003D01*
X5394756Y8150250D01*
X5397296Y8140801D01*
X5401411Y8131962D01*
X5407050Y8123936D01*
X5413959Y8117027D01*
X5421934Y8111439D01*
X5430824Y8107273D01*
X5440273Y8104784D01*
X5450027Y8103920D01*
X5459730Y8104784D01*
X5469178Y8107273D01*
X5478068Y8111439D01*
X5486044Y8117027D01*
X5492953Y8123936D01*
X5498592Y8131962D01*
X5502706Y8140801D01*
X5505246Y8150250D01*
X5506110Y8160003D01*
X5505246Y8169757D01*
X5502706Y8179206D01*
X5498592Y8188045D01*
X5492953Y8196072D01*
X5491429Y8197646D01*
X5489194Y8200898D01*
X5488432Y8204809D01*
X5488432Y8487410D01*
X5487670Y8495385D01*
X5485485Y8502599D01*
X5481929Y8509203D01*
X5477154Y8514994D01*
X5471058Y8520023D01*
X5458460Y8528100D01*
X5455716Y8530640D01*
X5454091Y8534044D01*
X5452719Y8539175D01*
X5448604Y8548065D01*
X5442966Y8556040D01*
X5436057Y8562949D01*
X5428081Y8568588D01*
X5419191Y8572703D01*
X5409742Y8575243D01*
X5400040Y8576106D01*
X5390286Y8575243D01*
X5380837Y8572703D01*
X5371947Y8568588D01*
X5363972Y8562949D01*
X5353710Y8552789D01*
X5349646Y8551468D01*
X5345430Y8551824D01*
X5341721Y8553958D01*
X5339232Y8557361D01*
X5338318Y8561527D01*
X5338318Y8929624D01*
X5337556Y8937599D01*
X5335371Y8944813D01*
X5331815Y8951417D01*
X5326735Y8957614D01*
X5127548Y9156801D01*
X5121351Y9161881D01*
X5114747Y9165437D01*
X5107533Y9167622D01*
X5099558Y9168384D01*
X5030012Y9168384D01*
X5026101Y9169146D01*
X5022799Y9171381D01*
X4950002Y9244177D01*
X4947716Y9247581D01*
X4947056Y9251645D01*
X4947970Y9255658D01*
X4950460Y9258960D01*
X4954016Y9260992D01*
X4958130Y9261449D01*
X4962093Y9260281D01*
X4971643Y9254998D01*
X4971643Y9302343D01*
X4938522Y9302343D01*
X4934610Y9303105D01*
X4931359Y9305340D01*
X4929124Y9308642D01*
X4928362Y9312503D01*
X4928362Y9381896D01*
X4929124Y9385757D01*
X4931359Y9389059D01*
X4934610Y9391294D01*
X4938522Y9392056D01*
X4971643Y9392056D01*
X4971643Y9439402D01*
X4961280Y9433712D01*
X4950256Y9425584D01*
X4942738Y9418320D01*
X4939284Y9416135D01*
X4935220Y9415475D01*
X4931206Y9416542D01*
X4927955Y9419082D01*
X4925974Y9422688D01*
X4925415Y9424619D01*
X4921859Y9431223D01*
X4916779Y9437420D01*
X4872177Y9482023D01*
X4869992Y9485274D01*
X4869230Y9489186D01*
X4869992Y9493097D01*
X4872177Y9496348D01*
X4875479Y9498584D01*
X4879390Y9499346D01*
X5440883Y9499346D01*
X5444794Y9498584D01*
X5448096Y9496348D01*
X5597448Y9346996D01*
X5599684Y9343694D01*
X5600446Y9339783D01*
X5600446Y8960916D01*
X5599684Y8957005D01*
X5597448Y8953703D01*
X5537708Y8893962D01*
X5534456Y8891778D01*
X5530545Y8891016D01*
X5526633Y8891778D01*
X5514441Y8900464D01*
X5505602Y8904630D01*
X5496153Y8907119D01*
X5486400Y8907983D01*
X5476646Y8907119D01*
X5467197Y8904630D01*
X5458358Y8900464D01*
X5450332Y8894876D01*
X5443423Y8887968D01*
X5437835Y8879941D01*
X5433669Y8871102D01*
X5431180Y8861653D01*
X5430316Y8851900D01*
X5431180Y8842146D01*
X5433669Y8832697D01*
X5437835Y8823858D01*
X5443423Y8815832D01*
X5450332Y8808923D01*
X5458358Y8803335D01*
X5467197Y8799169D01*
X5476646Y8796680D01*
X5486400Y8795816D01*
X5496153Y8796680D01*
X5505602Y8799169D01*
X5514441Y8803335D01*
X5522468Y8808923D01*
X5524093Y8810548D01*
X5527395Y8812784D01*
X5531307Y8813546D01*
X5549392Y8813546D01*
X5557367Y8814308D01*
X5564581Y8816492D01*
X5571185Y8820048D01*
X5577382Y8825128D01*
X5665571Y8913317D01*
X5670651Y8919514D01*
X5674207Y8926118D01*
X5676392Y8933332D01*
X5677154Y8941308D01*
X5677154Y9359392D01*
X5676392Y9367367D01*
X5674207Y9374581D01*
X5670651Y9381185D01*
X5665571Y9387382D01*
X5488482Y9564471D01*
X5482285Y9569551D01*
X5475681Y9573107D01*
X5468467Y9575292D01*
X5460492Y9576054D01*
X4445508Y9576054D01*
X4437532Y9575292D01*
X4430318Y9573107D01*
X4423714Y9569551D01*
X4417517Y9564471D01*
X4299254Y9446209D01*
X4296257Y9444126D01*
X4292701Y9443262D01*
X4289094Y9443669D01*
X4278274Y9447022D01*
X4264761Y9449308D01*
X4251045Y9449765D01*
X4237431Y9448393D01*
X4224070Y9445244D01*
X4211320Y9440316D01*
X4199280Y9433712D01*
X4188256Y9425584D01*
X4178401Y9416034D01*
X4169867Y9405264D01*
X4162907Y9393478D01*
X4157522Y9380880D01*
X4153915Y9367621D01*
X4152087Y9354058D01*
X4152087Y9340342D01*
X4153915Y9326778D01*
X4157522Y9313519D01*
X4162907Y9300921D01*
X4169867Y9289135D01*
X4178401Y9278366D01*
X4185056Y9271914D01*
X4187342Y9268612D01*
X4188155Y9264700D01*
X4187393Y9260789D01*
X4185208Y9257436D01*
X4181906Y9255201D01*
X4177995Y9254439D01*
X4095750Y9254439D01*
X4089501Y9253728D01*
X4084116Y9251848D01*
X4082135Y9250578D01*
X4078732Y9249257D01*
X4075023Y9249206D01*
X4071569Y9250426D01*
X4068064Y9252508D01*
X4065168Y9255048D01*
X4063441Y9258503D01*
X4063085Y9262313D01*
X4064203Y9266021D01*
X4066641Y9269018D01*
X4071874Y9273438D01*
X4081068Y9283598D01*
X4088790Y9294876D01*
X4094987Y9307118D01*
X4099509Y9320072D01*
X4102201Y9333534D01*
X4103115Y9347200D01*
X4102201Y9360865D01*
X4099509Y9374327D01*
X4094987Y9387281D01*
X4088790Y9399524D01*
X4081068Y9410801D01*
X4071874Y9420961D01*
X4061358Y9429800D01*
X4049826Y9437217D01*
X4037380Y9442958D01*
X4024274Y9447022D01*
X4022293Y9447377D01*
X4018381Y9448901D01*
X4015435Y9451848D01*
X4013911Y9455759D01*
X4014114Y9459925D01*
X4015994Y9463684D01*
X4019194Y9466376D01*
X4021785Y9467748D01*
X4027982Y9472828D01*
X4128871Y9573717D01*
X4133951Y9579914D01*
X4137507Y9586518D01*
X4139692Y9593732D01*
X4140454Y9601708D01*
X4140454Y9632492D01*
X4141215Y9636404D01*
X4143451Y9639706D01*
X4145076Y9641332D01*
X4150664Y9649358D01*
X4154830Y9658197D01*
X4157319Y9667646D01*
X4158183Y9677400D01*
X4157319Y9687153D01*
X4154830Y9696602D01*
X4150664Y9705441D01*
X4145076Y9713468D01*
X4138168Y9720376D01*
X4130141Y9725964D01*
X4121302Y9730130D01*
X4111853Y9732619D01*
X4102100Y9733483D01*
X4092346Y9732619D01*
X4089755Y9731959D01*
X4086047Y9731654D01*
X4082491Y9732721D01*
X4079544Y9734956D01*
X4077614Y9738106D01*
X4076954Y9741763D01*
X4076954Y9797592D01*
X4077715Y9801504D01*
X4079951Y9804806D01*
X4081576Y9806432D01*
X4087164Y9814458D01*
X4091330Y9823297D01*
X4093819Y9832746D01*
X4094683Y9842500D01*
X4093819Y9852253D01*
X4091330Y9861702D01*
X4087164Y9870541D01*
X4081576Y9878568D01*
X4074668Y9885476D01*
X4066641Y9891064D01*
X4057802Y9895230D01*
X4048353Y9897719D01*
X4038600Y9898583D01*
X4028846Y9897719D01*
X4019397Y9895230D01*
X4010558Y9891064D01*
X4002532Y9885476D01*
X3995623Y9878568D01*
X3990035Y9870541D01*
X3985869Y9861702D01*
X3983380Y9852253D01*
X3982516Y9842500D01*
X3983380Y9832746D01*
X3985869Y9823297D01*
X3990035Y9814458D01*
X3995623Y9806432D01*
X3997248Y9804806D01*
X3999484Y9801504D01*
X4000246Y9797592D01*
X4000246Y9686544D01*
X3999433Y9682581D01*
X3997147Y9679228D01*
X3993743Y9677095D01*
X3989730Y9676384D01*
X3985768Y9677349D01*
X3981602Y9679330D01*
X3972153Y9681819D01*
X3962400Y9682683D01*
X3952646Y9681819D01*
X3943197Y9679330D01*
X3934358Y9675164D01*
X3926332Y9669576D01*
X3924706Y9667951D01*
X3921404Y9665716D01*
X3917492Y9664954D01*
X3213404Y9664954D01*
X3209493Y9665716D01*
X3206191Y9667951D01*
X3151327Y9722815D01*
X3149092Y9726117D01*
X3148330Y9730028D01*
X3148330Y9881616D01*
X3147568Y9889591D01*
X3145383Y9896805D01*
X3141827Y9903409D01*
X3136747Y9909606D01*
X3075482Y9970871D01*
X3069285Y9975951D01*
X3062681Y9979507D01*
X3057906Y9980930D01*
X3054553Y9982708D01*
X3052064Y9985603D01*
X3050794Y9989210D01*
X3050997Y9993020D01*
X3052521Y9996474D01*
X3058464Y10004958D01*
X3062630Y10013797D01*
X3065119Y10023246D01*
X3065983Y10033000D01*
X3065119Y10042753D01*
X3062630Y10052202D01*
X3058464Y10061041D01*
X3050438Y10072827D01*
X3049422Y10075672D01*
X3045460Y10082784D01*
X3040075Y10089235D01*
X2981655Y10147655D01*
X2979470Y10150957D01*
X2978708Y10154869D01*
X2979470Y10158730D01*
X2981655Y10162032D01*
X2984957Y10164216D01*
X2988868Y10165029D01*
X7147712Y10165029D01*
X7151573Y10164216D01*
X7154875Y10162032D01*
X7225131Y10091775D01*
X7227316Y10088473D01*
X7228078Y10084612D01*
X7228078Y10052964D01*
X7227316Y10049052D01*
X7219391Y10029850D01*
X7212787Y10008971D01*
X7208062Y9987635D01*
X7205218Y9965944D01*
X7204252Y9944100D01*
X7205218Y9922256D01*
X7208062Y9900564D01*
X7212787Y9879228D01*
X7219391Y9858400D01*
X7227722Y9838182D01*
X7237831Y9818776D01*
X7249566Y9800336D01*
X7262875Y9783013D01*
X7277658Y9766858D01*
X7293762Y9752126D01*
X7311136Y9738817D01*
X7329576Y9727031D01*
X7348981Y9716973D01*
X7369149Y9708591D01*
X7390028Y9701987D01*
X7411364Y9697262D01*
X7433056Y9694418D01*
X7454900Y9693452D01*
X7476744Y9694418D01*
X7498435Y9697262D01*
X7519771Y9701987D01*
X7537958Y9707727D01*
X7541564Y9708184D01*
X7545171Y9707321D01*
X7548168Y9705238D01*
X7656931Y9596475D01*
X7659116Y9593173D01*
X7659878Y9589312D01*
X7659878Y6371894D01*
X7659116Y6368034D01*
X7656931Y6364732D01*
X7535875Y6243675D01*
X7532573Y6241491D01*
X7528712Y6240729D01*
X7343394Y6240729D01*
X7341717Y6240018D01*
X7294778Y6193078D01*
X7293051Y6191656D01*
X7285736Y6187033D01*
X7268362Y6173724D01*
X7252258Y6158941D01*
X7237475Y6142837D01*
X7224166Y6125464D01*
X7219543Y6118148D01*
X7218121Y6116472D01*
X7152589Y6050889D01*
X7151878Y6049213D01*
X7151878Y5863894D01*
X7151116Y5860034D01*
X7148931Y5856732D01*
X7053275Y5761075D01*
X7049973Y5758891D01*
X7046112Y5758129D01*
G37*

%LPC*%
G36*
X7171486Y7600899D02*
G01*
X7181494Y7600899D01*
X7191349Y7602524D01*
X7200849Y7605775D01*
X7209637Y7610551D01*
X7217562Y7616698D01*
X7224318Y7624064D01*
X7229805Y7632446D01*
X7233818Y7641640D01*
X7236307Y7651343D01*
X7237120Y7661300D01*
X7236307Y7671257D01*
X7233818Y7680959D01*
X7229805Y7690154D01*
X7224318Y7698536D01*
X7217562Y7705902D01*
X7209637Y7712049D01*
X7200849Y7716824D01*
X7191349Y7720075D01*
X7181494Y7721701D01*
X7171486Y7721701D01*
X7161631Y7720075D01*
X7152131Y7716824D01*
X7143343Y7712049D01*
X7135418Y7705902D01*
X7128662Y7698536D01*
X7123175Y7690154D01*
X7119162Y7680959D01*
X7116673Y7671257D01*
X7115860Y7661300D01*
X7116673Y7651343D01*
X7119162Y7641640D01*
X7123175Y7632446D01*
X7128662Y7624064D01*
X7135418Y7616698D01*
X7143343Y7610551D01*
X7152131Y7605775D01*
X7161631Y7602524D01*
G37*
G36*
X1664258Y6069228D02*
G01*
X1702307Y6069228D01*
X1708607Y6069939D01*
X1713992Y6071819D01*
X1718868Y6074918D01*
X1722882Y6078931D01*
X1725980Y6083808D01*
X1727860Y6089192D01*
X1728571Y6095492D01*
X1728571Y6133541D01*
X1664258Y6133541D01*
G37*
G36*
X5161635Y6069482D02*
G01*
X5176164Y6069482D01*
X5190591Y6071311D01*
X5204612Y6074918D01*
X5218125Y6080252D01*
X5230876Y6087262D01*
X5242610Y6095796D01*
X5253177Y6105753D01*
X5262473Y6116929D01*
X5270246Y6129172D01*
X5276392Y6142329D01*
X5280914Y6156147D01*
X5283606Y6170422D01*
X5284520Y6184900D01*
X5283606Y6199378D01*
X5280914Y6213652D01*
X5276392Y6227470D01*
X5270246Y6240627D01*
X5262473Y6252870D01*
X5253177Y6264046D01*
X5242610Y6274003D01*
X5230876Y6282537D01*
X5218125Y6289548D01*
X5204612Y6294882D01*
X5190591Y6298488D01*
X5176164Y6300317D01*
X5161635Y6300317D01*
X5147208Y6298488D01*
X5133187Y6294882D01*
X5119674Y6289548D01*
X5106924Y6282537D01*
X5095189Y6274003D01*
X5084622Y6264046D01*
X5075326Y6252870D01*
X5067554Y6240627D01*
X5061407Y6227470D01*
X5056886Y6213652D01*
X5054193Y6199378D01*
X5053279Y6184900D01*
X5054193Y6170422D01*
X5056886Y6156147D01*
X5061407Y6142329D01*
X5067554Y6129172D01*
X5075326Y6116929D01*
X5084622Y6105753D01*
X5095189Y6095796D01*
X5106924Y6087262D01*
X5119674Y6080252D01*
X5133187Y6074918D01*
X5147208Y6071311D01*
G37*
G36*
X3129635Y6069482D02*
G01*
X3144164Y6069482D01*
X3158591Y6071311D01*
X3172612Y6074918D01*
X3186125Y6080252D01*
X3198876Y6087262D01*
X3210610Y6095796D01*
X3221177Y6105753D01*
X3230473Y6116929D01*
X3238246Y6129172D01*
X3244392Y6142329D01*
X3248914Y6156147D01*
X3251606Y6170422D01*
X3252520Y6184900D01*
X3251606Y6199378D01*
X3248914Y6213652D01*
X3244392Y6227470D01*
X3238246Y6240627D01*
X3230473Y6252870D01*
X3221177Y6264046D01*
X3210610Y6274003D01*
X3198876Y6282537D01*
X3186125Y6289548D01*
X3172612Y6294882D01*
X3158591Y6298488D01*
X3144164Y6300317D01*
X3129635Y6300317D01*
X3115208Y6298488D01*
X3101187Y6294882D01*
X3087674Y6289548D01*
X3074924Y6282537D01*
X3063189Y6274003D01*
X3052622Y6264046D01*
X3043326Y6252870D01*
X3035554Y6240627D01*
X3029407Y6227470D01*
X3024886Y6213652D01*
X3022193Y6199378D01*
X3021279Y6184900D01*
X3022193Y6170422D01*
X3024886Y6156147D01*
X3029407Y6142329D01*
X3035554Y6129172D01*
X3043326Y6116929D01*
X3052622Y6105753D01*
X3063189Y6095796D01*
X3074924Y6087262D01*
X3087674Y6080252D01*
X3101187Y6074918D01*
X3115208Y6071311D01*
G37*
G36*
X5415635Y6069482D02*
G01*
X5430164Y6069482D01*
X5444591Y6071311D01*
X5458612Y6074918D01*
X5472125Y6080252D01*
X5484876Y6087262D01*
X5496610Y6095796D01*
X5507177Y6105753D01*
X5516473Y6116929D01*
X5524246Y6129172D01*
X5530392Y6142329D01*
X5534914Y6156147D01*
X5537606Y6170422D01*
X5538520Y6184900D01*
X5537606Y6199378D01*
X5534914Y6213652D01*
X5530392Y6227470D01*
X5524246Y6240627D01*
X5516473Y6252870D01*
X5507177Y6264046D01*
X5496610Y6274003D01*
X5484876Y6282537D01*
X5472125Y6289548D01*
X5458612Y6294882D01*
X5444591Y6298488D01*
X5430164Y6300317D01*
X5415635Y6300317D01*
X5401208Y6298488D01*
X5387187Y6294882D01*
X5373674Y6289548D01*
X5360924Y6282537D01*
X5349189Y6274003D01*
X5338622Y6264046D01*
X5329326Y6252870D01*
X5321554Y6240627D01*
X5315407Y6227470D01*
X5310886Y6213652D01*
X5308193Y6199378D01*
X5307279Y6184900D01*
X5308193Y6170422D01*
X5310886Y6156147D01*
X5315407Y6142329D01*
X5321554Y6129172D01*
X5329326Y6116929D01*
X5338622Y6105753D01*
X5349189Y6095796D01*
X5360924Y6087262D01*
X5373674Y6080252D01*
X5387187Y6074918D01*
X5401208Y6071311D01*
G37*
G36*
X2875635Y6069482D02*
G01*
X2890164Y6069482D01*
X2904591Y6071311D01*
X2918612Y6074918D01*
X2932125Y6080252D01*
X2944876Y6087262D01*
X2956610Y6095796D01*
X2967177Y6105753D01*
X2976473Y6116929D01*
X2984246Y6129172D01*
X2990392Y6142329D01*
X2994914Y6156147D01*
X2997606Y6170422D01*
X2998520Y6184900D01*
X2997606Y6199378D01*
X2994914Y6213652D01*
X2990392Y6227470D01*
X2984246Y6240627D01*
X2976473Y6252870D01*
X2967177Y6264046D01*
X2956610Y6274003D01*
X2944876Y6282537D01*
X2932125Y6289548D01*
X2918612Y6294882D01*
X2904591Y6298488D01*
X2890164Y6300317D01*
X2875635Y6300317D01*
X2861208Y6298488D01*
X2847187Y6294882D01*
X2833674Y6289548D01*
X2820924Y6282537D01*
X2809189Y6274003D01*
X2798622Y6264046D01*
X2789326Y6252870D01*
X2781554Y6240627D01*
X2775407Y6227470D01*
X2770886Y6213652D01*
X2768193Y6199378D01*
X2767279Y6184900D01*
X2768193Y6170422D01*
X2770886Y6156147D01*
X2775407Y6142329D01*
X2781554Y6129172D01*
X2789326Y6116929D01*
X2798622Y6105753D01*
X2809189Y6095796D01*
X2820924Y6087262D01*
X2833674Y6080252D01*
X2847187Y6074918D01*
X2861208Y6071311D01*
G37*
G36*
X5669635Y6069482D02*
G01*
X5684164Y6069482D01*
X5698591Y6071311D01*
X5712612Y6074918D01*
X5726125Y6080252D01*
X5738876Y6087262D01*
X5750610Y6095796D01*
X5761177Y6105753D01*
X5770473Y6116929D01*
X5778246Y6129172D01*
X5784392Y6142329D01*
X5788914Y6156147D01*
X5791606Y6170422D01*
X5792520Y6184900D01*
X5791606Y6199378D01*
X5788914Y6213652D01*
X5784392Y6227470D01*
X5778246Y6240627D01*
X5770473Y6252870D01*
X5761177Y6264046D01*
X5750610Y6274003D01*
X5738876Y6282537D01*
X5726125Y6289548D01*
X5712612Y6294882D01*
X5698591Y6298488D01*
X5684164Y6300317D01*
X5669635Y6300317D01*
X5655208Y6298488D01*
X5641187Y6294882D01*
X5627674Y6289548D01*
X5614924Y6282537D01*
X5603189Y6274003D01*
X5592622Y6264046D01*
X5583326Y6252870D01*
X5575554Y6240627D01*
X5569407Y6227470D01*
X5564886Y6213652D01*
X5562193Y6199378D01*
X5561279Y6184900D01*
X5562193Y6170422D01*
X5564886Y6156147D01*
X5569407Y6142329D01*
X5575554Y6129172D01*
X5583326Y6116929D01*
X5592622Y6105753D01*
X5603189Y6095796D01*
X5614924Y6087262D01*
X5627674Y6080252D01*
X5641187Y6074918D01*
X5655208Y6071311D01*
G37*
G36*
X2621635Y6069482D02*
G01*
X2636164Y6069482D01*
X2650591Y6071311D01*
X2664612Y6074918D01*
X2678125Y6080252D01*
X2690876Y6087262D01*
X2702610Y6095796D01*
X2713177Y6105753D01*
X2722473Y6116929D01*
X2730246Y6129172D01*
X2736392Y6142329D01*
X2740914Y6156147D01*
X2743606Y6170422D01*
X2744520Y6184900D01*
X2743606Y6199378D01*
X2740914Y6213652D01*
X2736392Y6227470D01*
X2730246Y6240627D01*
X2722473Y6252870D01*
X2713177Y6264046D01*
X2702610Y6274003D01*
X2690876Y6282537D01*
X2678125Y6289548D01*
X2664612Y6294882D01*
X2650591Y6298488D01*
X2636164Y6300317D01*
X2621635Y6300317D01*
X2607208Y6298488D01*
X2593187Y6294882D01*
X2579674Y6289548D01*
X2566924Y6282537D01*
X2555189Y6274003D01*
X2544622Y6264046D01*
X2535326Y6252870D01*
X2527554Y6240627D01*
X2521407Y6227470D01*
X2516886Y6213652D01*
X2514193Y6199378D01*
X2513279Y6184900D01*
X2514193Y6170422D01*
X2516886Y6156147D01*
X2521407Y6142329D01*
X2527554Y6129172D01*
X2535326Y6116929D01*
X2544622Y6105753D01*
X2555189Y6095796D01*
X2566924Y6087262D01*
X2579674Y6080252D01*
X2593187Y6074918D01*
X2607208Y6071311D01*
G37*
G36*
X5923635Y6069482D02*
G01*
X5938164Y6069482D01*
X5952591Y6071311D01*
X5966612Y6074918D01*
X5980125Y6080252D01*
X5992876Y6087262D01*
X6004610Y6095796D01*
X6015177Y6105753D01*
X6024473Y6116929D01*
X6032246Y6129172D01*
X6038392Y6142329D01*
X6042914Y6156147D01*
X6045606Y6170422D01*
X6046520Y6184900D01*
X6045606Y6199378D01*
X6042914Y6213652D01*
X6038392Y6227470D01*
X6032246Y6240627D01*
X6024473Y6252870D01*
X6015177Y6264046D01*
X6004610Y6274003D01*
X5992876Y6282537D01*
X5980125Y6289548D01*
X5966612Y6294882D01*
X5952591Y6298488D01*
X5938164Y6300317D01*
X5923635Y6300317D01*
X5909208Y6298488D01*
X5895187Y6294882D01*
X5881674Y6289548D01*
X5868924Y6282537D01*
X5857189Y6274003D01*
X5846622Y6264046D01*
X5837326Y6252870D01*
X5829554Y6240627D01*
X5823407Y6227470D01*
X5818886Y6213652D01*
X5816193Y6199378D01*
X5815279Y6184900D01*
X5816193Y6170422D01*
X5818886Y6156147D01*
X5823407Y6142329D01*
X5829554Y6129172D01*
X5837326Y6116929D01*
X5846622Y6105753D01*
X5857189Y6095796D01*
X5868924Y6087262D01*
X5881674Y6080252D01*
X5895187Y6074918D01*
X5909208Y6071311D01*
G37*
G36*
X2367635Y6069482D02*
G01*
X2382164Y6069482D01*
X2396591Y6071311D01*
X2410612Y6074918D01*
X2424125Y6080252D01*
X2436876Y6087262D01*
X2448610Y6095796D01*
X2459177Y6105753D01*
X2468473Y6116929D01*
X2476246Y6129172D01*
X2482392Y6142329D01*
X2486914Y6156147D01*
X2489606Y6170422D01*
X2490520Y6184900D01*
X2489606Y6199378D01*
X2486914Y6213652D01*
X2482392Y6227470D01*
X2476246Y6240627D01*
X2468473Y6252870D01*
X2459177Y6264046D01*
X2448610Y6274003D01*
X2436876Y6282537D01*
X2424125Y6289548D01*
X2410612Y6294882D01*
X2396591Y6298488D01*
X2382164Y6300317D01*
X2367635Y6300317D01*
X2353208Y6298488D01*
X2339187Y6294882D01*
X2325674Y6289548D01*
X2312924Y6282537D01*
X2301189Y6274003D01*
X2290622Y6264046D01*
X2281326Y6252870D01*
X2273554Y6240627D01*
X2267407Y6227470D01*
X2262886Y6213652D01*
X2260193Y6199378D01*
X2259279Y6184900D01*
X2260193Y6170422D01*
X2262886Y6156147D01*
X2267407Y6142329D01*
X2273554Y6129172D01*
X2281326Y6116929D01*
X2290622Y6105753D01*
X2301189Y6095796D01*
X2312924Y6087262D01*
X2325674Y6080252D01*
X2339187Y6074918D01*
X2353208Y6071311D01*
G37*
G36*
X3891635Y6069482D02*
G01*
X3906164Y6069482D01*
X3920591Y6071311D01*
X3934612Y6074918D01*
X3948125Y6080252D01*
X3960876Y6087262D01*
X3972610Y6095796D01*
X3983177Y6105753D01*
X3992473Y6116929D01*
X4000246Y6129172D01*
X4006392Y6142329D01*
X4010914Y6156147D01*
X4013606Y6170422D01*
X4014520Y6184900D01*
X4013606Y6199378D01*
X4010914Y6213652D01*
X4006392Y6227470D01*
X4000246Y6240627D01*
X3992473Y6252870D01*
X3983177Y6264046D01*
X3972610Y6274003D01*
X3960876Y6282537D01*
X3948125Y6289548D01*
X3934612Y6294882D01*
X3920591Y6298488D01*
X3906164Y6300317D01*
X3891635Y6300317D01*
X3877208Y6298488D01*
X3863187Y6294882D01*
X3849674Y6289548D01*
X3836924Y6282537D01*
X3825189Y6274003D01*
X3814622Y6264046D01*
X3805326Y6252870D01*
X3797554Y6240627D01*
X3791407Y6227470D01*
X3786886Y6213652D01*
X3784193Y6199378D01*
X3783279Y6184900D01*
X3784193Y6170422D01*
X3786886Y6156147D01*
X3791407Y6142329D01*
X3797554Y6129172D01*
X3805326Y6116929D01*
X3814622Y6105753D01*
X3825189Y6095796D01*
X3836924Y6087262D01*
X3849674Y6080252D01*
X3863187Y6074918D01*
X3877208Y6071311D01*
G37*
G36*
X3383635Y6069482D02*
G01*
X3398164Y6069482D01*
X3412591Y6071311D01*
X3426612Y6074918D01*
X3440125Y6080252D01*
X3452876Y6087262D01*
X3464610Y6095796D01*
X3475177Y6105753D01*
X3484473Y6116929D01*
X3492246Y6129172D01*
X3498392Y6142329D01*
X3502914Y6156147D01*
X3505606Y6170422D01*
X3506520Y6184900D01*
X3505606Y6199378D01*
X3502914Y6213652D01*
X3498392Y6227470D01*
X3492246Y6240627D01*
X3484473Y6252870D01*
X3475177Y6264046D01*
X3464610Y6274003D01*
X3452876Y6282537D01*
X3440125Y6289548D01*
X3426612Y6294882D01*
X3412591Y6298488D01*
X3398164Y6300317D01*
X3383635Y6300317D01*
X3369208Y6298488D01*
X3355187Y6294882D01*
X3341674Y6289548D01*
X3328924Y6282537D01*
X3317189Y6274003D01*
X3306622Y6264046D01*
X3297326Y6252870D01*
X3289554Y6240627D01*
X3283407Y6227470D01*
X3278886Y6213652D01*
X3276193Y6199378D01*
X3275279Y6184900D01*
X3276193Y6170422D01*
X3278886Y6156147D01*
X3283407Y6142329D01*
X3289554Y6129172D01*
X3297326Y6116929D01*
X3306622Y6105753D01*
X3317189Y6095796D01*
X3328924Y6087262D01*
X3341674Y6080252D01*
X3355187Y6074918D01*
X3369208Y6071311D01*
G37*
G36*
X4399635Y6069482D02*
G01*
X4414164Y6069482D01*
X4428591Y6071311D01*
X4442612Y6074918D01*
X4456125Y6080252D01*
X4468876Y6087262D01*
X4480610Y6095796D01*
X4491177Y6105753D01*
X4500473Y6116929D01*
X4508246Y6129172D01*
X4514392Y6142329D01*
X4518914Y6156147D01*
X4521606Y6170422D01*
X4522520Y6184900D01*
X4521606Y6199378D01*
X4518914Y6213652D01*
X4514392Y6227470D01*
X4508246Y6240627D01*
X4500473Y6252870D01*
X4491177Y6264046D01*
X4480610Y6274003D01*
X4468876Y6282537D01*
X4456125Y6289548D01*
X4442612Y6294882D01*
X4428591Y6298488D01*
X4414164Y6300317D01*
X4399635Y6300317D01*
X4385208Y6298488D01*
X4371187Y6294882D01*
X4357674Y6289548D01*
X4344924Y6282537D01*
X4333189Y6274003D01*
X4322622Y6264046D01*
X4313326Y6252870D01*
X4305554Y6240627D01*
X4299407Y6227470D01*
X4294886Y6213652D01*
X4292193Y6199378D01*
X4291279Y6184900D01*
X4292193Y6170422D01*
X4294886Y6156147D01*
X4299407Y6142329D01*
X4305554Y6129172D01*
X4313326Y6116929D01*
X4322622Y6105753D01*
X4333189Y6095796D01*
X4344924Y6087262D01*
X4357674Y6080252D01*
X4371187Y6074918D01*
X4385208Y6071311D01*
G37*
G36*
X4907635Y6069482D02*
G01*
X4922164Y6069482D01*
X4936591Y6071311D01*
X4950612Y6074918D01*
X4964125Y6080252D01*
X4976876Y6087262D01*
X4988610Y6095796D01*
X4999177Y6105753D01*
X5008473Y6116929D01*
X5016246Y6129172D01*
X5022392Y6142329D01*
X5026914Y6156147D01*
X5029606Y6170422D01*
X5030520Y6184900D01*
X5029606Y6199378D01*
X5026914Y6213652D01*
X5022392Y6227470D01*
X5016246Y6240627D01*
X5008473Y6252870D01*
X4999177Y6264046D01*
X4988610Y6274003D01*
X4976876Y6282537D01*
X4964125Y6289548D01*
X4950612Y6294882D01*
X4936591Y6298488D01*
X4922164Y6300317D01*
X4907635Y6300317D01*
X4893208Y6298488D01*
X4879187Y6294882D01*
X4865674Y6289548D01*
X4852924Y6282537D01*
X4841189Y6274003D01*
X4830622Y6264046D01*
X4821326Y6252870D01*
X4813554Y6240627D01*
X4807407Y6227470D01*
X4802886Y6213652D01*
X4800193Y6199378D01*
X4799279Y6184900D01*
X4800193Y6170422D01*
X4802886Y6156147D01*
X4807407Y6142329D01*
X4813554Y6129172D01*
X4821326Y6116929D01*
X4830622Y6105753D01*
X4841189Y6095796D01*
X4852924Y6087262D01*
X4865674Y6080252D01*
X4879187Y6074918D01*
X4893208Y6071311D01*
G37*
G36*
X6177635Y6069482D02*
G01*
X6192164Y6069482D01*
X6206591Y6071311D01*
X6220612Y6074918D01*
X6234125Y6080252D01*
X6246876Y6087262D01*
X6258610Y6095796D01*
X6269177Y6105753D01*
X6278473Y6116929D01*
X6286246Y6129172D01*
X6292392Y6142329D01*
X6296914Y6156147D01*
X6299606Y6170422D01*
X6300520Y6184900D01*
X6299606Y6199378D01*
X6296914Y6213652D01*
X6292392Y6227470D01*
X6286246Y6240627D01*
X6278473Y6252870D01*
X6269177Y6264046D01*
X6258610Y6274003D01*
X6246876Y6282537D01*
X6234125Y6289548D01*
X6220612Y6294882D01*
X6206591Y6298488D01*
X6192164Y6300317D01*
X6177635Y6300317D01*
X6163208Y6298488D01*
X6149187Y6294882D01*
X6135674Y6289548D01*
X6122924Y6282537D01*
X6111189Y6274003D01*
X6100622Y6264046D01*
X6091326Y6252870D01*
X6083554Y6240627D01*
X6077407Y6227470D01*
X6072886Y6213652D01*
X6070193Y6199378D01*
X6069279Y6184900D01*
X6070193Y6170422D01*
X6072886Y6156147D01*
X6077407Y6142329D01*
X6083554Y6129172D01*
X6091326Y6116929D01*
X6100622Y6105753D01*
X6111189Y6095796D01*
X6122924Y6087262D01*
X6135674Y6080252D01*
X6149187Y6074918D01*
X6163208Y6071311D01*
G37*
G36*
X3637635Y6069482D02*
G01*
X3652164Y6069482D01*
X3666591Y6071311D01*
X3680612Y6074918D01*
X3694125Y6080252D01*
X3706876Y6087262D01*
X3718610Y6095796D01*
X3729177Y6105753D01*
X3738473Y6116929D01*
X3746246Y6129172D01*
X3752392Y6142329D01*
X3756914Y6156147D01*
X3759606Y6170422D01*
X3760520Y6184900D01*
X3759606Y6199378D01*
X3756914Y6213652D01*
X3752392Y6227470D01*
X3746246Y6240627D01*
X3738473Y6252870D01*
X3729177Y6264046D01*
X3718610Y6274003D01*
X3706876Y6282537D01*
X3694125Y6289548D01*
X3680612Y6294882D01*
X3666591Y6298488D01*
X3652164Y6300317D01*
X3637635Y6300317D01*
X3623208Y6298488D01*
X3609187Y6294882D01*
X3595674Y6289548D01*
X3582924Y6282537D01*
X3571189Y6274003D01*
X3560622Y6264046D01*
X3551326Y6252870D01*
X3543554Y6240627D01*
X3537407Y6227470D01*
X3532886Y6213652D01*
X3530193Y6199378D01*
X3529279Y6184900D01*
X3530193Y6170422D01*
X3532886Y6156147D01*
X3537407Y6142329D01*
X3543554Y6129172D01*
X3551326Y6116929D01*
X3560622Y6105753D01*
X3571189Y6095796D01*
X3582924Y6087262D01*
X3595674Y6080252D01*
X3609187Y6074918D01*
X3623208Y6071311D01*
G37*
G36*
X2113635Y6069482D02*
G01*
X2128164Y6069482D01*
X2142591Y6071311D01*
X2156612Y6074918D01*
X2170125Y6080252D01*
X2182876Y6087262D01*
X2194610Y6095796D01*
X2205177Y6105753D01*
X2214473Y6116929D01*
X2222246Y6129172D01*
X2228392Y6142329D01*
X2232914Y6156147D01*
X2235606Y6170422D01*
X2236520Y6184900D01*
X2235606Y6199378D01*
X2232914Y6213652D01*
X2228392Y6227470D01*
X2222246Y6240627D01*
X2214473Y6252870D01*
X2205177Y6264046D01*
X2194610Y6274003D01*
X2182876Y6282537D01*
X2170125Y6289548D01*
X2156612Y6294882D01*
X2142591Y6298488D01*
X2128164Y6300317D01*
X2113635Y6300317D01*
X2099208Y6298488D01*
X2085187Y6294882D01*
X2071674Y6289548D01*
X2058924Y6282537D01*
X2047189Y6274003D01*
X2036622Y6264046D01*
X2027326Y6252870D01*
X2019554Y6240627D01*
X2013407Y6227470D01*
X2008886Y6213652D01*
X2006193Y6199378D01*
X2005279Y6184900D01*
X2006193Y6170422D01*
X2008886Y6156147D01*
X2013407Y6142329D01*
X2019554Y6129172D01*
X2027326Y6116929D01*
X2036622Y6105753D01*
X2047189Y6095796D01*
X2058924Y6087262D01*
X2071674Y6080252D01*
X2085187Y6074918D01*
X2099208Y6071311D01*
G37*
G36*
X4653635Y6069482D02*
G01*
X4668164Y6069482D01*
X4682591Y6071311D01*
X4696612Y6074918D01*
X4710125Y6080252D01*
X4722876Y6087262D01*
X4734610Y6095796D01*
X4745177Y6105753D01*
X4754473Y6116929D01*
X4762246Y6129172D01*
X4768392Y6142329D01*
X4772914Y6156147D01*
X4775606Y6170422D01*
X4776520Y6184900D01*
X4775606Y6199378D01*
X4772914Y6213652D01*
X4768392Y6227470D01*
X4762246Y6240627D01*
X4754473Y6252870D01*
X4745177Y6264046D01*
X4734610Y6274003D01*
X4722876Y6282537D01*
X4710125Y6289548D01*
X4696612Y6294882D01*
X4682591Y6298488D01*
X4668164Y6300317D01*
X4653635Y6300317D01*
X4639208Y6298488D01*
X4625187Y6294882D01*
X4611674Y6289548D01*
X4598924Y6282537D01*
X4587189Y6274003D01*
X4576622Y6264046D01*
X4567326Y6252870D01*
X4559554Y6240627D01*
X4553407Y6227470D01*
X4548886Y6213652D01*
X4546193Y6199378D01*
X4545279Y6184900D01*
X4546193Y6170422D01*
X4548886Y6156147D01*
X4553407Y6142329D01*
X4559554Y6129172D01*
X4567326Y6116929D01*
X4576622Y6105753D01*
X4587189Y6095796D01*
X4598924Y6087262D01*
X4611674Y6080252D01*
X4625187Y6074918D01*
X4639208Y6071311D01*
G37*
G36*
X6431635Y6069482D02*
G01*
X6446164Y6069482D01*
X6460591Y6071311D01*
X6474612Y6074918D01*
X6488125Y6080252D01*
X6500876Y6087262D01*
X6512610Y6095796D01*
X6523177Y6105753D01*
X6532473Y6116929D01*
X6540246Y6129172D01*
X6546392Y6142329D01*
X6550914Y6156147D01*
X6553606Y6170422D01*
X6554520Y6184900D01*
X6553606Y6199378D01*
X6550914Y6213652D01*
X6546392Y6227470D01*
X6540246Y6240627D01*
X6532473Y6252870D01*
X6523177Y6264046D01*
X6512610Y6274003D01*
X6500876Y6282537D01*
X6488125Y6289548D01*
X6474612Y6294882D01*
X6460591Y6298488D01*
X6446164Y6300317D01*
X6431635Y6300317D01*
X6417208Y6298488D01*
X6403187Y6294882D01*
X6389674Y6289548D01*
X6376924Y6282537D01*
X6365189Y6274003D01*
X6354622Y6264046D01*
X6345326Y6252870D01*
X6337554Y6240627D01*
X6331407Y6227470D01*
X6326886Y6213652D01*
X6324193Y6199378D01*
X6323279Y6184900D01*
X6324193Y6170422D01*
X6326886Y6156147D01*
X6331407Y6142329D01*
X6337554Y6129172D01*
X6345326Y6116929D01*
X6354622Y6105753D01*
X6365189Y6095796D01*
X6376924Y6087262D01*
X6389674Y6080252D01*
X6403187Y6074918D01*
X6417208Y6071311D01*
G37*
G36*
X4145635Y6069482D02*
G01*
X4160164Y6069482D01*
X4174591Y6071311D01*
X4188612Y6074918D01*
X4202125Y6080252D01*
X4214876Y6087262D01*
X4226610Y6095796D01*
X4237177Y6105753D01*
X4246473Y6116929D01*
X4254246Y6129172D01*
X4260392Y6142329D01*
X4264914Y6156147D01*
X4267606Y6170422D01*
X4268520Y6184900D01*
X4267606Y6199378D01*
X4264914Y6213652D01*
X4260392Y6227470D01*
X4254246Y6240627D01*
X4246473Y6252870D01*
X4237177Y6264046D01*
X4226610Y6274003D01*
X4214876Y6282537D01*
X4202125Y6289548D01*
X4188612Y6294882D01*
X4174591Y6298488D01*
X4160164Y6300317D01*
X4145635Y6300317D01*
X4131208Y6298488D01*
X4117187Y6294882D01*
X4103674Y6289548D01*
X4090924Y6282537D01*
X4079189Y6274003D01*
X4068622Y6264046D01*
X4059326Y6252870D01*
X4051554Y6240627D01*
X4045407Y6227470D01*
X4040886Y6213652D01*
X4038193Y6199378D01*
X4037279Y6184900D01*
X4038193Y6170422D01*
X4040886Y6156147D01*
X4045407Y6142329D01*
X4051554Y6129172D01*
X4059326Y6116929D01*
X4068622Y6105753D01*
X4079189Y6095796D01*
X4090924Y6087262D01*
X4103674Y6080252D01*
X4117187Y6074918D01*
X4131208Y6071311D01*
G37*
G36*
X1859635Y6069482D02*
G01*
X1874164Y6069482D01*
X1888591Y6071311D01*
X1902612Y6074918D01*
X1916125Y6080252D01*
X1928875Y6087262D01*
X1940610Y6095796D01*
X1951177Y6105753D01*
X1960473Y6116929D01*
X1968246Y6129172D01*
X1974392Y6142329D01*
X1978914Y6156147D01*
X1981606Y6170422D01*
X1982520Y6184900D01*
X1981606Y6199378D01*
X1978914Y6213652D01*
X1974392Y6227470D01*
X1968246Y6240627D01*
X1960473Y6252870D01*
X1951177Y6264046D01*
X1940610Y6274003D01*
X1928875Y6282537D01*
X1916125Y6289548D01*
X1902612Y6294882D01*
X1888591Y6298488D01*
X1874164Y6300317D01*
X1859635Y6300317D01*
X1845208Y6298488D01*
X1831187Y6294882D01*
X1817674Y6289548D01*
X1804924Y6282537D01*
X1793189Y6274003D01*
X1782622Y6264046D01*
X1773326Y6252870D01*
X1765554Y6240627D01*
X1759407Y6227470D01*
X1754886Y6213652D01*
X1752193Y6199378D01*
X1751279Y6184900D01*
X1752193Y6170422D01*
X1754886Y6156147D01*
X1759407Y6142329D01*
X1765554Y6129172D01*
X1773326Y6116929D01*
X1782622Y6105753D01*
X1793189Y6095796D01*
X1804924Y6087262D01*
X1817674Y6080252D01*
X1831187Y6074918D01*
X1845208Y6071311D01*
G37*
G36*
X1664258Y6236258D02*
G01*
X1728571Y6236258D01*
X1728571Y6274308D01*
X1727860Y6280607D01*
X1725980Y6285992D01*
X1722882Y6290868D01*
X1718868Y6294882D01*
X1713992Y6297930D01*
X1708607Y6299860D01*
X1702307Y6300571D01*
X1664258Y6300571D01*
G37*
G36*
X1497228Y6236258D02*
G01*
X1561541Y6236258D01*
X1561541Y6300571D01*
X1523492Y6300571D01*
X1517192Y6299860D01*
X1511808Y6297930D01*
X1506931Y6294882D01*
X1502918Y6290868D01*
X1499870Y6285992D01*
X1497939Y6280607D01*
X1497228Y6274308D01*
G37*
G36*
X6349492Y6348628D02*
G01*
X6528307Y6348628D01*
X6534607Y6349339D01*
X6539992Y6351219D01*
X6544868Y6354318D01*
X6548881Y6358331D01*
X6551980Y6363208D01*
X6553860Y6368592D01*
X6554571Y6374892D01*
X6554571Y6553708D01*
X6553860Y6560007D01*
X6551980Y6565392D01*
X6548881Y6570268D01*
X6544868Y6574281D01*
X6539992Y6577330D01*
X6534607Y6579260D01*
X6528307Y6579971D01*
X6349492Y6579971D01*
X6343192Y6579260D01*
X6337808Y6577330D01*
X6332931Y6574281D01*
X6328918Y6570268D01*
X6325870Y6565392D01*
X6323939Y6560007D01*
X6323228Y6553708D01*
X6323228Y6374892D01*
X6323939Y6368592D01*
X6325870Y6363208D01*
X6328918Y6358331D01*
X6332931Y6354318D01*
X6337808Y6351219D01*
X6343192Y6349339D01*
G37*
G36*
X1605635Y6348882D02*
G01*
X1620164Y6348882D01*
X1634591Y6350711D01*
X1648612Y6354318D01*
X1662125Y6359652D01*
X1674875Y6366662D01*
X1686610Y6375196D01*
X1697177Y6385153D01*
X1706473Y6396329D01*
X1714246Y6408572D01*
X1720392Y6421729D01*
X1724914Y6435547D01*
X1727606Y6449822D01*
X1728520Y6464300D01*
X1727606Y6478778D01*
X1724914Y6493052D01*
X1720392Y6506870D01*
X1714246Y6520027D01*
X1706473Y6532270D01*
X1697177Y6543446D01*
X1686610Y6553403D01*
X1674875Y6561937D01*
X1662125Y6568948D01*
X1648612Y6574281D01*
X1634591Y6577888D01*
X1620164Y6579717D01*
X1605635Y6579717D01*
X1591208Y6577888D01*
X1577187Y6574281D01*
X1563674Y6568948D01*
X1550924Y6561937D01*
X1539189Y6553403D01*
X1528622Y6543446D01*
X1519326Y6532270D01*
X1511554Y6520027D01*
X1505407Y6506870D01*
X1500886Y6493052D01*
X1498193Y6478778D01*
X1497279Y6464300D01*
X1498193Y6449822D01*
X1500886Y6435547D01*
X1505407Y6421729D01*
X1511554Y6408572D01*
X1519326Y6396329D01*
X1528622Y6385153D01*
X1539189Y6375196D01*
X1550924Y6366662D01*
X1563674Y6359652D01*
X1577187Y6354318D01*
X1591208Y6350711D01*
G37*
G36*
X4907635Y6348882D02*
G01*
X4922164Y6348882D01*
X4936591Y6350711D01*
X4950612Y6354318D01*
X4964125Y6359652D01*
X4976876Y6366662D01*
X4988610Y6375196D01*
X4999177Y6385153D01*
X5008473Y6396329D01*
X5016246Y6408572D01*
X5022392Y6421729D01*
X5026914Y6435547D01*
X5029606Y6449822D01*
X5030520Y6464300D01*
X5029606Y6478778D01*
X5026914Y6493052D01*
X5022392Y6506870D01*
X5016246Y6520027D01*
X5008473Y6532270D01*
X4999177Y6543446D01*
X4988610Y6553403D01*
X4976876Y6561937D01*
X4964125Y6568948D01*
X4950612Y6574281D01*
X4936591Y6577888D01*
X4922164Y6579717D01*
X4907635Y6579717D01*
X4893208Y6577888D01*
X4879187Y6574281D01*
X4865674Y6568948D01*
X4852924Y6561937D01*
X4841189Y6553403D01*
X4830622Y6543446D01*
X4821326Y6532270D01*
X4813554Y6520027D01*
X4807407Y6506870D01*
X4802886Y6493052D01*
X4800193Y6478778D01*
X4799279Y6464300D01*
X4800193Y6449822D01*
X4802886Y6435547D01*
X4807407Y6421729D01*
X4813554Y6408572D01*
X4821326Y6396329D01*
X4830622Y6385153D01*
X4841189Y6375196D01*
X4852924Y6366662D01*
X4865674Y6359652D01*
X4879187Y6354318D01*
X4893208Y6350711D01*
G37*
G36*
X1612290Y9912045D02*
G01*
X1623263Y9912451D01*
X1633982Y9914636D01*
X1644243Y9918547D01*
X1653743Y9924034D01*
X1662226Y9930942D01*
X1669491Y9939172D01*
X1675333Y9948418D01*
X1679651Y9958527D01*
X1682292Y9969144D01*
X1683156Y9980066D01*
X1682292Y9991039D01*
X1679651Y10001656D01*
X1675333Y10011765D01*
X1669491Y10021011D01*
X1662226Y10029240D01*
X1653743Y10036149D01*
X1644243Y10041636D01*
X1633982Y10045547D01*
X1623263Y10047732D01*
X1612290Y10048138D01*
X1601419Y10046817D01*
X1590852Y10043769D01*
X1580997Y10039096D01*
X1571955Y10032847D01*
X1564030Y10025278D01*
X1557477Y10016490D01*
X1552346Y10006787D01*
X1548892Y9996373D01*
X1547114Y9985552D01*
X1547114Y9974630D01*
X1548892Y9963810D01*
X1552346Y9953396D01*
X1557477Y9943693D01*
X1564030Y9934905D01*
X1571955Y9927336D01*
X1580997Y9921087D01*
X1590852Y9916414D01*
X1601419Y9913366D01*
G37*
G36*
X1782318Y9912045D02*
G01*
X1793239Y9912451D01*
X1804009Y9914636D01*
X1814220Y9918547D01*
X1823720Y9924034D01*
X1832203Y9930942D01*
X1839518Y9939172D01*
X1845360Y9948418D01*
X1849628Y9958527D01*
X1852269Y9969144D01*
X1853133Y9980066D01*
X1852269Y9991039D01*
X1849628Y10001656D01*
X1845360Y10011765D01*
X1839518Y10021011D01*
X1832203Y10029240D01*
X1823720Y10036149D01*
X1814220Y10041636D01*
X1804009Y10045547D01*
X1793239Y10047732D01*
X1782318Y10048138D01*
X1771396Y10046817D01*
X1760880Y10043769D01*
X1750974Y10039096D01*
X1741932Y10032847D01*
X1734057Y10025278D01*
X1727454Y10016490D01*
X1722374Y10006787D01*
X1718919Y9996373D01*
X1717141Y9985552D01*
X1717141Y9974630D01*
X1718919Y9963810D01*
X1722374Y9953396D01*
X1727454Y9943693D01*
X1734057Y9934905D01*
X1741932Y9927336D01*
X1750974Y9921087D01*
X1760880Y9916414D01*
X1771396Y9913366D01*
G37*
G36*
X6990435Y9765182D02*
G01*
X7004964Y9765182D01*
X7019391Y9767011D01*
X7033412Y9770618D01*
X7046925Y9775952D01*
X7059675Y9782962D01*
X7071410Y9791496D01*
X7081977Y9801453D01*
X7091273Y9812629D01*
X7099046Y9824872D01*
X7105192Y9838029D01*
X7109714Y9851847D01*
X7112406Y9866122D01*
X7113320Y9880600D01*
X7112406Y9895078D01*
X7109714Y9909352D01*
X7105192Y9923170D01*
X7099046Y9936327D01*
X7091273Y9948570D01*
X7081977Y9959746D01*
X7071410Y9969703D01*
X7059675Y9978237D01*
X7046925Y9985248D01*
X7033412Y9990582D01*
X7019391Y9994188D01*
X7004964Y9996017D01*
X6990435Y9996017D01*
X6976008Y9994188D01*
X6961987Y9990582D01*
X6948474Y9985248D01*
X6935724Y9978237D01*
X6923989Y9969703D01*
X6913422Y9959746D01*
X6904126Y9948570D01*
X6896353Y9936327D01*
X6890207Y9923170D01*
X6885686Y9909352D01*
X6882993Y9895078D01*
X6882079Y9880600D01*
X6882993Y9866122D01*
X6885686Y9851847D01*
X6890207Y9838029D01*
X6896353Y9824872D01*
X6904126Y9812629D01*
X6913422Y9801453D01*
X6923989Y9791496D01*
X6935724Y9782962D01*
X6948474Y9775952D01*
X6961987Y9770618D01*
X6976008Y9767011D01*
G37*
G36*
X6654292Y9764928D02*
G01*
X6833108Y9764928D01*
X6839407Y9765639D01*
X6844792Y9767519D01*
X6849668Y9770618D01*
X6853681Y9774631D01*
X6856780Y9779508D01*
X6858660Y9784892D01*
X6859371Y9791192D01*
X6859371Y9970008D01*
X6858660Y9976307D01*
X6856780Y9981692D01*
X6853681Y9986568D01*
X6849668Y9990582D01*
X6844792Y9993630D01*
X6839407Y9995560D01*
X6833108Y9996271D01*
X6654292Y9996271D01*
X6647992Y9995560D01*
X6642608Y9993630D01*
X6637731Y9990582D01*
X6633718Y9986568D01*
X6630670Y9981692D01*
X6628739Y9976307D01*
X6628028Y9970008D01*
X6628028Y9791192D01*
X6628739Y9784892D01*
X6630670Y9779508D01*
X6633718Y9774631D01*
X6637731Y9770618D01*
X6642608Y9767519D01*
X6647992Y9765639D01*
G37*
G36*
X5676392Y9650628D02*
G01*
X5855208Y9650628D01*
X5861507Y9651339D01*
X5866892Y9653219D01*
X5871768Y9656318D01*
X5875782Y9660331D01*
X5878880Y9665208D01*
X5880760Y9670592D01*
X5881471Y9676892D01*
X5881471Y9855708D01*
X5880760Y9862007D01*
X5878880Y9867392D01*
X5875782Y9872268D01*
X5871768Y9876282D01*
X5866892Y9879330D01*
X5861507Y9881260D01*
X5855208Y9881971D01*
X5760567Y9881971D01*
X5756656Y9882733D01*
X5753354Y9884918D01*
X5569915Y10068356D01*
X5562549Y10073894D01*
X5554573Y10077856D01*
X5546039Y10080294D01*
X5536742Y10081158D01*
X3321151Y10081107D01*
X3312007Y10079837D01*
X3303574Y10076992D01*
X3295802Y10072674D01*
X3288639Y10066731D01*
X3237941Y10016032D01*
X3235807Y10014407D01*
X3230829Y10012730D01*
X3221939Y10008565D01*
X3213963Y10002977D01*
X3207054Y9996068D01*
X3201416Y9988042D01*
X3197301Y9979202D01*
X3194761Y9969754D01*
X3193897Y9960000D01*
X3194761Y9950246D01*
X3197301Y9940798D01*
X3200908Y9933076D01*
X3201873Y9928809D01*
X3201873Y9828123D01*
X3203194Y9818979D01*
X3205988Y9810546D01*
X3210306Y9802825D01*
X3216300Y9795611D01*
X3253994Y9757918D01*
X3255568Y9755835D01*
X3257296Y9750806D01*
X3261410Y9741966D01*
X3267049Y9733940D01*
X3273958Y9727031D01*
X3281934Y9721443D01*
X3290824Y9717278D01*
X3300272Y9714788D01*
X3309975Y9713925D01*
X3319729Y9714788D01*
X3329178Y9717278D01*
X3338068Y9721443D01*
X3346043Y9727031D01*
X3352952Y9733940D01*
X3358591Y9741966D01*
X3362706Y9750806D01*
X3365246Y9760254D01*
X3366109Y9770008D01*
X3365246Y9779762D01*
X3362706Y9789210D01*
X3358591Y9798050D01*
X3352952Y9806076D01*
X3346043Y9812985D01*
X3338068Y9818573D01*
X3329178Y9822738D01*
X3324199Y9824415D01*
X3322065Y9826040D01*
X3301136Y9846970D01*
X3298951Y9850272D01*
X3298139Y9854133D01*
X3298139Y9928809D01*
X3299104Y9933076D01*
X3302711Y9940798D01*
X3304438Y9945827D01*
X3306013Y9947910D01*
X3339998Y9981844D01*
X3343249Y9984079D01*
X3347161Y9984841D01*
X5513070Y9984841D01*
X5516930Y9984079D01*
X5520232Y9981844D01*
X5647182Y9854946D01*
X5649366Y9851644D01*
X5650128Y9847732D01*
X5650128Y9676892D01*
X5650839Y9670592D01*
X5652770Y9665208D01*
X5655818Y9660331D01*
X5659831Y9656318D01*
X5664708Y9653219D01*
X5670092Y9651339D01*
G37*
G36*
X6184392Y9650628D02*
G01*
X6363208Y9650628D01*
X6369507Y9651339D01*
X6374892Y9653219D01*
X6379768Y9656318D01*
X6383782Y9660331D01*
X6386880Y9665208D01*
X6388760Y9670592D01*
X6389471Y9676892D01*
X6389471Y9855708D01*
X6388760Y9862007D01*
X6386880Y9867392D01*
X6383782Y9872268D01*
X6379768Y9876282D01*
X6374892Y9879330D01*
X6369507Y9881260D01*
X6363208Y9881971D01*
X6184392Y9881971D01*
X6178092Y9881260D01*
X6172708Y9879330D01*
X6167831Y9876282D01*
X6163818Y9872268D01*
X6160770Y9867392D01*
X6158839Y9862007D01*
X6158128Y9855708D01*
X6158128Y9676892D01*
X6158839Y9670592D01*
X6160770Y9665208D01*
X6163818Y9660331D01*
X6167831Y9656318D01*
X6172708Y9653219D01*
X6178092Y9651339D01*
G37*
G36*
X1922119Y9553092D02*
G01*
X1982724Y9553092D01*
X1982724Y9587433D01*
X1982012Y9593732D01*
X1980082Y9599117D01*
X1977034Y9603994D01*
X1973021Y9608007D01*
X1968144Y9611055D01*
X1962759Y9612985D01*
X1956460Y9613646D01*
X1922119Y9613646D01*
G37*
G36*
X1766316Y9553092D02*
G01*
X1826869Y9553092D01*
X1826869Y9613646D01*
X1792528Y9613646D01*
X1786229Y9612985D01*
X1780844Y9611055D01*
X1775968Y9608007D01*
X1771954Y9603994D01*
X1768906Y9599117D01*
X1766976Y9593732D01*
X1766316Y9587433D01*
G37*
G36*
X1620520Y9397288D02*
G01*
X1634642Y9398203D01*
X1648510Y9400946D01*
X1661922Y9405518D01*
X1674571Y9411766D01*
X1686356Y9419640D01*
X1696974Y9428988D01*
X1706321Y9439605D01*
X1714195Y9451390D01*
X1720443Y9464090D01*
X1725015Y9477451D01*
X1727758Y9491370D01*
X1728673Y9505442D01*
X1727758Y9519564D01*
X1725015Y9533483D01*
X1720443Y9546844D01*
X1714195Y9559544D01*
X1706321Y9571329D01*
X1696974Y9581946D01*
X1686356Y9591294D01*
X1674571Y9599168D01*
X1661922Y9605416D01*
X1648510Y9609988D01*
X1634642Y9612731D01*
X1620520Y9613646D01*
X1606397Y9612731D01*
X1592478Y9609988D01*
X1579118Y9605416D01*
X1566418Y9599168D01*
X1554632Y9591294D01*
X1544015Y9581946D01*
X1534668Y9571329D01*
X1526794Y9559544D01*
X1520545Y9546844D01*
X1516024Y9533483D01*
X1513230Y9519564D01*
X1512316Y9505442D01*
X1513230Y9491370D01*
X1516024Y9477451D01*
X1520545Y9464090D01*
X1526794Y9451390D01*
X1534668Y9439605D01*
X1544015Y9428988D01*
X1554632Y9419640D01*
X1566418Y9411766D01*
X1579118Y9405518D01*
X1592478Y9400946D01*
X1606397Y9398203D01*
G37*
G36*
X1366520Y9397288D02*
G01*
X1380642Y9398203D01*
X1394510Y9400946D01*
X1407922Y9405518D01*
X1420571Y9411766D01*
X1432356Y9419640D01*
X1442974Y9428988D01*
X1452321Y9439605D01*
X1460195Y9451390D01*
X1466443Y9464090D01*
X1471015Y9477451D01*
X1473758Y9491370D01*
X1474673Y9505442D01*
X1473758Y9519564D01*
X1471015Y9533483D01*
X1466443Y9546844D01*
X1460195Y9559544D01*
X1452321Y9571329D01*
X1442974Y9581946D01*
X1432356Y9591294D01*
X1420571Y9599168D01*
X1407922Y9605416D01*
X1394510Y9609988D01*
X1380642Y9612731D01*
X1366520Y9613646D01*
X1352397Y9612731D01*
X1338478Y9609988D01*
X1325118Y9605416D01*
X1312418Y9599168D01*
X1300632Y9591294D01*
X1290015Y9581946D01*
X1280668Y9571329D01*
X1272794Y9559544D01*
X1266545Y9546844D01*
X1262024Y9533483D01*
X1259230Y9519564D01*
X1258316Y9505442D01*
X1259230Y9491370D01*
X1262024Y9477451D01*
X1266545Y9464090D01*
X1272794Y9451390D01*
X1280668Y9439605D01*
X1290015Y9428988D01*
X1300632Y9419640D01*
X1312418Y9411766D01*
X1325118Y9405518D01*
X1338478Y9400946D01*
X1352397Y9398203D01*
G37*
G36*
X1112520Y9397288D02*
G01*
X1126642Y9398203D01*
X1140510Y9400946D01*
X1153922Y9405518D01*
X1166571Y9411766D01*
X1178356Y9419640D01*
X1188974Y9428988D01*
X1198321Y9439605D01*
X1206195Y9451390D01*
X1212443Y9464090D01*
X1217015Y9477451D01*
X1219758Y9491370D01*
X1220673Y9505442D01*
X1219758Y9519564D01*
X1217015Y9533483D01*
X1212443Y9546844D01*
X1206195Y9559544D01*
X1198321Y9571329D01*
X1188974Y9581946D01*
X1178356Y9591294D01*
X1166571Y9599168D01*
X1153922Y9605416D01*
X1140510Y9609988D01*
X1126642Y9612731D01*
X1112520Y9613646D01*
X1098397Y9612731D01*
X1084478Y9609988D01*
X1071118Y9605416D01*
X1058418Y9599168D01*
X1046632Y9591294D01*
X1036015Y9581946D01*
X1026668Y9571329D01*
X1018794Y9559544D01*
X1012545Y9546844D01*
X1008024Y9533483D01*
X1005230Y9519564D01*
X1004316Y9505442D01*
X1005230Y9491370D01*
X1008024Y9477451D01*
X1012545Y9464090D01*
X1018794Y9451390D01*
X1026668Y9439605D01*
X1036015Y9428988D01*
X1046632Y9419640D01*
X1058418Y9411766D01*
X1071118Y9405518D01*
X1084478Y9400946D01*
X1098397Y9398203D01*
G37*
G36*
X1922119Y9397238D02*
G01*
X1956460Y9397238D01*
X1962759Y9397949D01*
X1968144Y9399879D01*
X1973021Y9402927D01*
X1977034Y9406940D01*
X1980082Y9411817D01*
X1982012Y9417202D01*
X1982724Y9423501D01*
X1982724Y9457842D01*
X1922119Y9457842D01*
G37*
G36*
X1792528Y9397238D02*
G01*
X1826869Y9397238D01*
X1826869Y9457842D01*
X1766316Y9457842D01*
X1766316Y9423501D01*
X1766976Y9417202D01*
X1768906Y9411817D01*
X1771954Y9406940D01*
X1775968Y9402927D01*
X1780844Y9399879D01*
X1786229Y9397949D01*
G37*
G36*
X5930392Y9396628D02*
G01*
X6109208Y9396628D01*
X6115507Y9397339D01*
X6120892Y9399219D01*
X6125768Y9402318D01*
X6129782Y9406331D01*
X6132880Y9411208D01*
X6134760Y9416592D01*
X6135471Y9422892D01*
X6135471Y9601708D01*
X6134760Y9608007D01*
X6132880Y9613392D01*
X6129782Y9618268D01*
X6125768Y9622282D01*
X6120892Y9625330D01*
X6115507Y9627260D01*
X6109208Y9627971D01*
X5930392Y9627971D01*
X5924092Y9627260D01*
X5918708Y9625330D01*
X5913831Y9622282D01*
X5909818Y9618268D01*
X5906770Y9613392D01*
X5904839Y9608007D01*
X5904128Y9601708D01*
X5904128Y9422892D01*
X5904839Y9416592D01*
X5906770Y9411208D01*
X5909818Y9406331D01*
X5913831Y9402318D01*
X5918708Y9399219D01*
X5924092Y9397339D01*
G37*
G36*
X5061356Y9392056D02*
G01*
X5108549Y9392056D01*
X5104790Y9399524D01*
X5097068Y9410801D01*
X5087874Y9420961D01*
X5077358Y9429800D01*
X5065826Y9437217D01*
X5061356Y9439300D01*
G37*
G36*
X5061356Y9255099D02*
G01*
X5065826Y9257182D01*
X5077358Y9264599D01*
X5087874Y9273438D01*
X5097068Y9283598D01*
X5104790Y9294876D01*
X5108549Y9302343D01*
X5061356Y9302343D01*
G37*
G36*
X7277100Y9151416D02*
G01*
X7286853Y9152280D01*
X7296302Y9154769D01*
X7305141Y9158935D01*
X7313168Y9164523D01*
X7320076Y9171432D01*
X7325664Y9179458D01*
X7329830Y9188297D01*
X7332319Y9197746D01*
X7333183Y9207500D01*
X7332319Y9217253D01*
X7329830Y9226702D01*
X7325664Y9235541D01*
X7320076Y9243568D01*
X7318451Y9245193D01*
X7316216Y9248495D01*
X7315453Y9252407D01*
X7315453Y9333992D01*
X7314692Y9341967D01*
X7312507Y9349181D01*
X7308951Y9355785D01*
X7303871Y9361982D01*
X7208977Y9456877D01*
X7206945Y9459722D01*
X7206030Y9463176D01*
X7205319Y9471253D01*
X7202830Y9480702D01*
X7198664Y9489541D01*
X7193076Y9497568D01*
X7186168Y9504476D01*
X7178141Y9510064D01*
X7169302Y9514230D01*
X7159853Y9516719D01*
X7150100Y9517583D01*
X7140346Y9516719D01*
X7130897Y9514230D01*
X7122058Y9510064D01*
X7114031Y9504476D01*
X7107123Y9497568D01*
X7101535Y9489541D01*
X7097369Y9480702D01*
X7094880Y9471253D01*
X7094016Y9461500D01*
X7094880Y9451746D01*
X7097369Y9442297D01*
X7101535Y9433458D01*
X7107123Y9425432D01*
X7114031Y9418523D01*
X7122058Y9412935D01*
X7130897Y9408769D01*
X7140346Y9406280D01*
X7148423Y9405569D01*
X7151878Y9404654D01*
X7154722Y9402622D01*
X7235748Y9321596D01*
X7237984Y9318294D01*
X7238746Y9314383D01*
X7238746Y9252407D01*
X7237984Y9248495D01*
X7235748Y9245193D01*
X7234123Y9243568D01*
X7228535Y9235541D01*
X7224369Y9226702D01*
X7221880Y9217253D01*
X7221016Y9207500D01*
X7221880Y9197746D01*
X7224369Y9188297D01*
X7228535Y9179458D01*
X7234123Y9171432D01*
X7241031Y9164523D01*
X7249058Y9158935D01*
X7257897Y9154769D01*
X7267346Y9152280D01*
G37*
G36*
X6858000Y9151416D02*
G01*
X6867753Y9152280D01*
X6877202Y9154769D01*
X6886041Y9158935D01*
X6894068Y9164523D01*
X6900976Y9171432D01*
X6906564Y9179458D01*
X6910730Y9188297D01*
X6913219Y9197746D01*
X6914083Y9207500D01*
X6913219Y9217253D01*
X6910730Y9226702D01*
X6906564Y9235541D01*
X6900976Y9243568D01*
X6899351Y9245193D01*
X6897116Y9248495D01*
X6896353Y9252407D01*
X6896353Y9416592D01*
X6897116Y9420504D01*
X6899351Y9423806D01*
X6900976Y9425432D01*
X6906564Y9433458D01*
X6910730Y9442297D01*
X6913219Y9451746D01*
X6914083Y9461500D01*
X6913219Y9471253D01*
X6910730Y9480702D01*
X6906564Y9489541D01*
X6900976Y9497568D01*
X6894068Y9504476D01*
X6886041Y9510064D01*
X6877202Y9514230D01*
X6867753Y9516719D01*
X6858000Y9517583D01*
X6848246Y9516719D01*
X6838797Y9514230D01*
X6829958Y9510064D01*
X6821931Y9504476D01*
X6815023Y9497568D01*
X6809435Y9489541D01*
X6805269Y9480702D01*
X6802780Y9471253D01*
X6801916Y9461500D01*
X6802780Y9451746D01*
X6805269Y9442297D01*
X6809435Y9433458D01*
X6815023Y9425432D01*
X6816648Y9423806D01*
X6818884Y9420504D01*
X6819646Y9416592D01*
X6819646Y9252407D01*
X6818884Y9248495D01*
X6816648Y9245193D01*
X6815023Y9243568D01*
X6809435Y9235541D01*
X6805269Y9226702D01*
X6802780Y9217253D01*
X6801916Y9207500D01*
X6802780Y9197746D01*
X6805269Y9188297D01*
X6809435Y9179458D01*
X6815023Y9171432D01*
X6821931Y9164523D01*
X6829958Y9158935D01*
X6838797Y9154769D01*
X6848246Y9152280D01*
G37*
G36*
X5370880Y9040977D02*
G01*
X5390591Y9041942D01*
X5410047Y9044838D01*
X5429148Y9049613D01*
X5447690Y9056217D01*
X5465470Y9064650D01*
X5482386Y9074759D01*
X5498185Y9086494D01*
X5512765Y9099702D01*
X5526024Y9114332D01*
X5537708Y9130131D01*
X5547868Y9146997D01*
X5556250Y9164828D01*
X5562904Y9183370D01*
X5567680Y9202470D01*
X5570575Y9221927D01*
X5571540Y9241586D01*
X5570575Y9261246D01*
X5567680Y9280753D01*
X5562904Y9299854D01*
X5556250Y9318396D01*
X5547868Y9336176D01*
X5537708Y9353092D01*
X5526024Y9368891D01*
X5512765Y9383471D01*
X5498185Y9396679D01*
X5482386Y9408414D01*
X5465470Y9418574D01*
X5447690Y9426956D01*
X5429148Y9433610D01*
X5410047Y9438386D01*
X5390591Y9441281D01*
X5370880Y9442246D01*
X5351221Y9441281D01*
X5331764Y9438386D01*
X5312664Y9433610D01*
X5294122Y9426956D01*
X5276342Y9418574D01*
X5259425Y9408414D01*
X5243626Y9396679D01*
X5229047Y9383471D01*
X5215788Y9368891D01*
X5204053Y9353092D01*
X5193944Y9336176D01*
X5185511Y9318396D01*
X5178907Y9299854D01*
X5174132Y9280753D01*
X5171236Y9261246D01*
X5170271Y9241586D01*
X5171236Y9221927D01*
X5174132Y9202470D01*
X5178907Y9183370D01*
X5185511Y9164828D01*
X5193944Y9146997D01*
X5204053Y9130131D01*
X5215788Y9114332D01*
X5229047Y9099702D01*
X5243626Y9086494D01*
X5259425Y9074759D01*
X5276342Y9064650D01*
X5294122Y9056217D01*
X5312664Y9049613D01*
X5331764Y9044838D01*
X5351221Y9041942D01*
G37*
G36*
X1659991Y8883904D02*
G01*
X1669745Y8884767D01*
X1679193Y8887307D01*
X1688033Y8891422D01*
X1696059Y8897061D01*
X1702968Y8903970D01*
X1708556Y8911945D01*
X1712722Y8920835D01*
X1715211Y8930284D01*
X1716074Y8939987D01*
X1715211Y8949740D01*
X1712722Y8959189D01*
X1708556Y8968079D01*
X1702968Y8976055D01*
X1696059Y8982964D01*
X1688033Y8988602D01*
X1679193Y8992717D01*
X1669745Y8995257D01*
X1659991Y8996121D01*
X1650238Y8995257D01*
X1640789Y8992717D01*
X1631950Y8988602D01*
X1623923Y8982964D01*
X1617014Y8976055D01*
X1611426Y8968079D01*
X1607261Y8959189D01*
X1604772Y8949740D01*
X1603908Y8939987D01*
X1604772Y8930284D01*
X1607261Y8920835D01*
X1611426Y8911945D01*
X1617014Y8903970D01*
X1623923Y8897061D01*
X1631950Y8891422D01*
X1640789Y8887307D01*
X1650238Y8884767D01*
G37*
G36*
X1100582Y8659368D02*
G01*
X1899412Y8659368D01*
X1905711Y8660079D01*
X1911096Y8661958D01*
X1915972Y8665006D01*
X1919986Y8669070D01*
X1923084Y8673896D01*
X1924964Y8679332D01*
X1926031Y8683955D01*
X1928012Y8686749D01*
X1997964Y8756650D01*
X2001723Y8761374D01*
X2004212Y8766556D01*
X2005482Y8772144D01*
X2005482Y8777884D01*
X2004212Y8783472D01*
X2001723Y8788654D01*
X1998116Y8793124D01*
X1993646Y8796731D01*
X1988464Y8799220D01*
X1982876Y8800490D01*
X1979726Y8800642D01*
X1020267Y8800642D01*
X1014272Y8799982D01*
X1008887Y8798102D01*
X1004011Y8795054D01*
X999947Y8790990D01*
X996899Y8786114D01*
X995019Y8780729D01*
X994359Y8774988D01*
X995019Y8769299D01*
X996899Y8763863D01*
X999947Y8759037D01*
X1002080Y8756650D01*
X1071981Y8686749D01*
X1073962Y8683955D01*
X1075029Y8679332D01*
X1076960Y8673896D01*
X1080008Y8669070D01*
X1084072Y8665006D01*
X1088898Y8661958D01*
X1094333Y8660079D01*
G37*
G36*
X5710021Y8193887D02*
G01*
X5719724Y8194751D01*
X5729173Y8197291D01*
X5738063Y8201406D01*
X5746038Y8207044D01*
X5752947Y8213953D01*
X5758586Y8221929D01*
X5762701Y8230819D01*
X5765241Y8240268D01*
X5766104Y8249970D01*
X5765241Y8259724D01*
X5762701Y8269173D01*
X5758586Y8278063D01*
X5752947Y8286038D01*
X5751322Y8287715D01*
X5749137Y8290966D01*
X5748375Y8294878D01*
X5748375Y8369604D01*
X5749137Y8373465D01*
X5751322Y8376767D01*
X5977077Y8602522D01*
X5979922Y8604554D01*
X5983376Y8605469D01*
X5991453Y8606180D01*
X6000902Y8608669D01*
X6009741Y8612835D01*
X6017768Y8618423D01*
X6024676Y8625332D01*
X6030264Y8633358D01*
X6034430Y8642197D01*
X6036919Y8651646D01*
X6037783Y8661400D01*
X6036919Y8671153D01*
X6034430Y8680602D01*
X6030264Y8689441D01*
X6024676Y8697468D01*
X6017768Y8704376D01*
X6009741Y8709964D01*
X6000902Y8714130D01*
X5991453Y8716619D01*
X5981700Y8717483D01*
X5971946Y8716619D01*
X5962497Y8714130D01*
X5953658Y8709964D01*
X5945632Y8704376D01*
X5938723Y8697468D01*
X5933135Y8689441D01*
X5928969Y8680602D01*
X5926480Y8671153D01*
X5925769Y8663076D01*
X5924854Y8659622D01*
X5922822Y8656777D01*
X5683250Y8417153D01*
X5678170Y8410956D01*
X5674614Y8404352D01*
X5672429Y8397189D01*
X5671667Y8389213D01*
X5671667Y8294878D01*
X5670854Y8290966D01*
X5668670Y8287715D01*
X5667044Y8286038D01*
X5661406Y8278063D01*
X5657291Y8269173D01*
X5654751Y8259724D01*
X5653887Y8249970D01*
X5654751Y8240268D01*
X5657291Y8230819D01*
X5661406Y8221929D01*
X5667044Y8213953D01*
X5673953Y8207044D01*
X5681929Y8201406D01*
X5690819Y8197291D01*
X5700268Y8194751D01*
G37*
G36*
X1464564Y6994448D02*
G01*
X1486306Y6994906D01*
X1507896Y6997293D01*
X1529181Y7001611D01*
X1550009Y7007758D01*
X1570228Y7015734D01*
X1589684Y7025487D01*
X1608175Y7036917D01*
X1625549Y7049922D01*
X1641754Y7064400D01*
X1656588Y7080300D01*
X1669999Y7097369D01*
X1681835Y7115606D01*
X1691995Y7134859D01*
X1700428Y7154875D01*
X1707032Y7175550D01*
X1711807Y7196785D01*
X1714652Y7218324D01*
X1715617Y7240016D01*
X1714652Y7261707D01*
X1711807Y7283246D01*
X1707032Y7304481D01*
X1700428Y7325156D01*
X1691995Y7345172D01*
X1681835Y7364425D01*
X1669999Y7382662D01*
X1656588Y7399731D01*
X1641754Y7415631D01*
X1625549Y7430109D01*
X1608175Y7443114D01*
X1589684Y7454544D01*
X1570228Y7464298D01*
X1550009Y7472273D01*
X1529181Y7478420D01*
X1507896Y7482738D01*
X1486306Y7485125D01*
X1464564Y7485583D01*
X1442872Y7484160D01*
X1421384Y7480808D01*
X1400302Y7475575D01*
X1379778Y7468514D01*
X1359916Y7459624D01*
X1340967Y7449058D01*
X1322984Y7436815D01*
X1306169Y7423048D01*
X1290624Y7407859D01*
X1276502Y7391349D01*
X1263904Y7373670D01*
X1252880Y7354925D01*
X1243584Y7335266D01*
X1236014Y7314895D01*
X1230325Y7293914D01*
X1226515Y7272528D01*
X1224584Y7250887D01*
X1224584Y7229144D01*
X1226515Y7207503D01*
X1230325Y7186117D01*
X1236014Y7165136D01*
X1243584Y7144766D01*
X1252880Y7125106D01*
X1263904Y7106361D01*
X1276502Y7088682D01*
X1290624Y7072172D01*
X1306169Y7056983D01*
X1322984Y7043216D01*
X1340967Y7030974D01*
X1359916Y7020407D01*
X1379778Y7011517D01*
X1400302Y7004456D01*
X1421384Y6999224D01*
X1442872Y6995871D01*
G37*
G36*
X7569200Y7144816D02*
G01*
X7578953Y7145680D01*
X7588402Y7148169D01*
X7597241Y7152335D01*
X7605268Y7157923D01*
X7612176Y7164831D01*
X7617764Y7172858D01*
X7621930Y7181697D01*
X7624419Y7191146D01*
X7625283Y7200900D01*
X7624419Y7210653D01*
X7621930Y7220102D01*
X7620812Y7222439D01*
X7619847Y7226757D01*
X7619847Y7365796D01*
X7619644Y7370419D01*
X7619085Y7374788D01*
X7618120Y7379106D01*
X7616799Y7383322D01*
X7615123Y7387386D01*
X7613040Y7391298D01*
X7610703Y7395057D01*
X7608011Y7398562D01*
X7604861Y7401966D01*
X7554366Y7452461D01*
X7550962Y7455611D01*
X7547457Y7458303D01*
X7543698Y7460640D01*
X7539786Y7462723D01*
X7535722Y7464399D01*
X7531506Y7465720D01*
X7527188Y7466685D01*
X7522819Y7467244D01*
X7518196Y7467447D01*
X7252157Y7467447D01*
X7247839Y7468412D01*
X7245502Y7469530D01*
X7236053Y7472019D01*
X7226300Y7472883D01*
X7216546Y7472019D01*
X7207097Y7469530D01*
X7198258Y7465364D01*
X7190231Y7459776D01*
X7183323Y7452868D01*
X7177735Y7444841D01*
X7173569Y7436002D01*
X7171080Y7426553D01*
X7170216Y7416800D01*
X7171080Y7407046D01*
X7173569Y7397597D01*
X7177735Y7388758D01*
X7183323Y7380731D01*
X7190231Y7373823D01*
X7198258Y7368235D01*
X7207097Y7364069D01*
X7216546Y7361580D01*
X7226300Y7360716D01*
X7236053Y7361580D01*
X7245502Y7364069D01*
X7247839Y7365187D01*
X7252157Y7366152D01*
X7493203Y7366152D01*
X7497114Y7365390D01*
X7500416Y7363155D01*
X7515555Y7348016D01*
X7517790Y7344714D01*
X7518552Y7340803D01*
X7518552Y7226757D01*
X7517587Y7222439D01*
X7516469Y7220102D01*
X7513980Y7210653D01*
X7513116Y7200900D01*
X7513980Y7191146D01*
X7516469Y7181697D01*
X7520635Y7172858D01*
X7526223Y7164831D01*
X7533131Y7157923D01*
X7541158Y7152335D01*
X7549997Y7148169D01*
X7559446Y7145680D01*
G37*
G36*
X7336891Y8070748D02*
G01*
X7446162Y8070748D01*
X7457440Y8071561D01*
X7468057Y8073999D01*
X7478268Y8078012D01*
X7487716Y8083448D01*
X7496251Y8090255D01*
X7503718Y8098281D01*
X7509865Y8107324D01*
X7514590Y8117179D01*
X7517841Y8127593D01*
X7519466Y8138414D01*
X7519466Y8149336D01*
X7517841Y8160156D01*
X7514590Y8170621D01*
X7509865Y8180425D01*
X7503718Y8189468D01*
X7496251Y8197494D01*
X7487716Y8204301D01*
X7478268Y8209788D01*
X7468057Y8213750D01*
X7457440Y8216188D01*
X7446162Y8217052D01*
X7336891Y8217052D01*
X7325614Y8216188D01*
X7314996Y8213750D01*
X7304786Y8209788D01*
X7295337Y8204301D01*
X7286802Y8197494D01*
X7279335Y8189468D01*
X7273188Y8180425D01*
X7268464Y8170621D01*
X7265212Y8160156D01*
X7263587Y8149336D01*
X7263587Y8138414D01*
X7265212Y8127593D01*
X7268464Y8117179D01*
X7273188Y8107324D01*
X7279335Y8098281D01*
X7286802Y8090255D01*
X7295337Y8083448D01*
X7304786Y8078012D01*
X7314996Y8073999D01*
X7325614Y8071561D01*
G37*
G36*
X6578600Y8008416D02*
G01*
X6588353Y8009280D01*
X6597802Y8011769D01*
X6606641Y8015935D01*
X6614668Y8021523D01*
X6616293Y8023148D01*
X6619595Y8025384D01*
X6623507Y8026146D01*
X6820306Y8026146D01*
X6824624Y8025180D01*
X6826097Y8024469D01*
X6835546Y8021980D01*
X6845300Y8021116D01*
X6855053Y8021980D01*
X6864502Y8024469D01*
X6873341Y8028635D01*
X6881368Y8034223D01*
X6888276Y8041131D01*
X6893864Y8049158D01*
X6898030Y8057997D01*
X6900519Y8067446D01*
X6901383Y8077200D01*
X6900519Y8086953D01*
X6898030Y8096402D01*
X6893864Y8105241D01*
X6888276Y8113268D01*
X6881368Y8120176D01*
X6873341Y8125764D01*
X6864502Y8129930D01*
X6855053Y8132419D01*
X6845300Y8133283D01*
X6835546Y8132419D01*
X6826097Y8129930D01*
X6817258Y8125764D01*
X6809231Y8120176D01*
X6802323Y8113268D01*
X6798056Y8107172D01*
X6795820Y8104886D01*
X6792975Y8103362D01*
X6789775Y8102853D01*
X6732524Y8102853D01*
X6728256Y8103819D01*
X6724751Y8106460D01*
X6722719Y8110372D01*
X6722516Y8114792D01*
X6724243Y8118856D01*
X6728764Y8125358D01*
X6732930Y8134197D01*
X6735419Y8143646D01*
X6736283Y8153400D01*
X6735419Y8163153D01*
X6732930Y8172602D01*
X6728764Y8181441D01*
X6723176Y8189468D01*
X6716268Y8196376D01*
X6708241Y8201964D01*
X6699402Y8206130D01*
X6689953Y8208619D01*
X6680200Y8209483D01*
X6670446Y8208619D01*
X6660997Y8206130D01*
X6652158Y8201964D01*
X6644131Y8196376D01*
X6637223Y8189468D01*
X6632956Y8183372D01*
X6630720Y8181086D01*
X6627875Y8179562D01*
X6624675Y8179053D01*
X6560007Y8179053D01*
X6556095Y8179816D01*
X6552793Y8182051D01*
X6551168Y8183676D01*
X6543141Y8189264D01*
X6534302Y8193430D01*
X6524853Y8195919D01*
X6515100Y8196783D01*
X6505346Y8195919D01*
X6495897Y8193430D01*
X6487058Y8189264D01*
X6479032Y8183676D01*
X6472123Y8176768D01*
X6466535Y8168741D01*
X6462369Y8159902D01*
X6459880Y8150453D01*
X6459016Y8140700D01*
X6459880Y8130946D01*
X6462369Y8121497D01*
X6466535Y8112658D01*
X6472123Y8104631D01*
X6479032Y8097723D01*
X6487058Y8092135D01*
X6495897Y8087969D01*
X6505346Y8085480D01*
X6514084Y8084718D01*
X6517894Y8083600D01*
X6520992Y8081111D01*
X6522872Y8077606D01*
X6523329Y8073694D01*
X6522516Y8064500D01*
X6523380Y8054746D01*
X6525869Y8045297D01*
X6530035Y8036458D01*
X6535623Y8028431D01*
X6542531Y8021523D01*
X6550558Y8015935D01*
X6559397Y8011769D01*
X6568846Y8009280D01*
G37*
G36*
X7171486Y8000898D02*
G01*
X7181494Y8000898D01*
X7191349Y8002524D01*
X7200849Y8005775D01*
X7209637Y8010550D01*
X7217562Y8016697D01*
X7224318Y8024063D01*
X7229805Y8032445D01*
X7233818Y8041640D01*
X7236307Y8051342D01*
X7237120Y8061299D01*
X7236307Y8071256D01*
X7233818Y8080959D01*
X7229805Y8090153D01*
X7224318Y8098536D01*
X7217562Y8105902D01*
X7209637Y8112048D01*
X7200849Y8116824D01*
X7191349Y8120075D01*
X7181494Y8121700D01*
X7171486Y8121700D01*
X7161631Y8120075D01*
X7152131Y8116824D01*
X7143343Y8112048D01*
X7135418Y8105902D01*
X7128662Y8098536D01*
X7123175Y8090153D01*
X7119162Y8080959D01*
X7116673Y8071256D01*
X7115860Y8061299D01*
X7116673Y8051342D01*
X7119162Y8041640D01*
X7123175Y8032445D01*
X7128662Y8024063D01*
X7135418Y8016697D01*
X7143343Y8010550D01*
X7152131Y8005775D01*
X7161631Y8002524D01*
G37*
G36*
X1523492Y6069228D02*
G01*
X1561541Y6069228D01*
X1561541Y6133541D01*
X1497228Y6133541D01*
X1497228Y6095492D01*
X1497939Y6089192D01*
X1499870Y6083808D01*
X1502918Y6078931D01*
X1506931Y6074918D01*
X1511808Y6071819D01*
X1517192Y6069939D01*
G37*
G36*
X1059992Y7533894D02*
G01*
X1069746Y7534757D01*
X1079195Y7537297D01*
X1087424Y7541158D01*
X1091742Y7542123D01*
X1096060Y7541158D01*
X1104290Y7537297D01*
X1113739Y7534757D01*
X1123492Y7533894D01*
X1133246Y7534757D01*
X1142695Y7537297D01*
X1150924Y7541158D01*
X1155242Y7542123D01*
X1159560Y7541158D01*
X1167790Y7537297D01*
X1177239Y7534757D01*
X1186992Y7533894D01*
X1196746Y7534757D01*
X1206195Y7537297D01*
X1214424Y7541158D01*
X1218742Y7542123D01*
X1223060Y7541158D01*
X1231290Y7537297D01*
X1240739Y7534757D01*
X1250492Y7533894D01*
X1260246Y7534757D01*
X1269695Y7537297D01*
X1277924Y7541158D01*
X1282242Y7542123D01*
X1286560Y7541158D01*
X1294790Y7537297D01*
X1304239Y7534757D01*
X1313992Y7533894D01*
X1323746Y7534757D01*
X1333195Y7537297D01*
X1341424Y7541158D01*
X1345742Y7542123D01*
X1350060Y7541158D01*
X1358290Y7537297D01*
X1367739Y7534757D01*
X1377492Y7533894D01*
X1387246Y7534757D01*
X1396695Y7537297D01*
X1404924Y7541158D01*
X1409242Y7542123D01*
X1413560Y7541158D01*
X1421790Y7537297D01*
X1431239Y7534757D01*
X1440992Y7533894D01*
X1450746Y7534757D01*
X1460195Y7537297D01*
X1468424Y7541158D01*
X1472742Y7542123D01*
X1477060Y7541158D01*
X1485290Y7537297D01*
X1494739Y7534757D01*
X1504492Y7533894D01*
X1514246Y7534757D01*
X1523695Y7537297D01*
X1531924Y7541158D01*
X1536242Y7542123D01*
X1540560Y7541158D01*
X1548790Y7537297D01*
X1558239Y7534757D01*
X1567992Y7533894D01*
X1577746Y7534757D01*
X1587195Y7537297D01*
X1595424Y7541158D01*
X1599742Y7542123D01*
X1604060Y7541158D01*
X1612290Y7537297D01*
X1621739Y7534757D01*
X1631492Y7533894D01*
X1641246Y7534757D01*
X1650695Y7537297D01*
X1658924Y7541158D01*
X1663242Y7542123D01*
X1667560Y7541158D01*
X1675790Y7537297D01*
X1685239Y7534757D01*
X1694992Y7533894D01*
X1704746Y7534757D01*
X1714195Y7537297D01*
X1722424Y7541158D01*
X1726742Y7542123D01*
X1731060Y7541158D01*
X1739290Y7537297D01*
X1748739Y7534757D01*
X1758492Y7533894D01*
X1768246Y7534757D01*
X1777695Y7537297D01*
X1785924Y7541158D01*
X1790242Y7542123D01*
X1794560Y7541158D01*
X1802790Y7537297D01*
X1812239Y7534757D01*
X1821992Y7533894D01*
X1831746Y7534757D01*
X1841195Y7537297D01*
X1849424Y7541158D01*
X1853742Y7542123D01*
X1858060Y7541158D01*
X1866290Y7537297D01*
X1875739Y7534757D01*
X1885492Y7533894D01*
X1895246Y7534757D01*
X1904695Y7537297D01*
X1912924Y7541158D01*
X1917242Y7542123D01*
X1921560Y7541158D01*
X1929790Y7537297D01*
X1939239Y7534757D01*
X1948992Y7533894D01*
X1958746Y7534757D01*
X1968195Y7537297D01*
X1977034Y7541412D01*
X1985060Y7547051D01*
X1991969Y7553959D01*
X1997557Y7561935D01*
X2001723Y7570825D01*
X2004212Y7580274D01*
X2005075Y7589977D01*
X2004212Y7599730D01*
X2001723Y7609179D01*
X1995322Y7623048D01*
X1995576Y7627518D01*
X1997760Y7631430D01*
X2001723Y7636357D01*
X2004212Y7641539D01*
X2005482Y7647127D01*
X2005482Y7652867D01*
X2004212Y7658455D01*
X2001723Y7663637D01*
X1997964Y7668361D01*
X1928012Y7738262D01*
X1926031Y7741056D01*
X1924964Y7745679D01*
X1923034Y7751114D01*
X1919986Y7755940D01*
X1915972Y7760004D01*
X1911096Y7763052D01*
X1905711Y7764932D01*
X1899412Y7765643D01*
X1100582Y7765643D01*
X1094282Y7764932D01*
X1088898Y7763052D01*
X1084021Y7760004D01*
X1080008Y7755940D01*
X1076960Y7751114D01*
X1075029Y7745679D01*
X1073962Y7741056D01*
X1071981Y7738262D01*
X1002080Y7668361D01*
X998270Y7663637D01*
X995781Y7658455D01*
X994511Y7652867D01*
X994511Y7647127D01*
X995781Y7641539D01*
X998270Y7636357D01*
X1001877Y7631887D01*
X1006856Y7627975D01*
X1009294Y7625486D01*
X1010767Y7622286D01*
X1011072Y7618780D01*
X1010158Y7615377D01*
X1007262Y7609179D01*
X1004773Y7599730D01*
X1003909Y7589977D01*
X1004773Y7580274D01*
X1007262Y7570825D01*
X1011428Y7561935D01*
X1017016Y7553959D01*
X1023924Y7547051D01*
X1031951Y7541412D01*
X1040790Y7537297D01*
X1050239Y7534757D01*
G37*
G36*
X6604000Y7360716D02*
G01*
X6613753Y7361580D01*
X6623202Y7364069D01*
X6632041Y7368235D01*
X6640068Y7373823D01*
X6646976Y7380731D01*
X6652564Y7388758D01*
X6656730Y7397597D01*
X6659219Y7407046D01*
X6660083Y7416800D01*
X6659219Y7426553D01*
X6656730Y7436002D01*
X6652564Y7444841D01*
X6646976Y7452868D01*
X6640068Y7459776D01*
X6632041Y7465364D01*
X6623202Y7469530D01*
X6613753Y7472019D01*
X6605676Y7472730D01*
X6602222Y7473645D01*
X6599377Y7475677D01*
X6531051Y7544003D01*
X6528816Y7547305D01*
X6528054Y7551216D01*
X6528054Y7835392D01*
X6527292Y7843367D01*
X6525107Y7850581D01*
X6521551Y7857185D01*
X6516471Y7863382D01*
X6509207Y7870596D01*
X6506819Y7874355D01*
X6506311Y7878775D01*
X6507683Y7883042D01*
X6510781Y7886242D01*
X6514896Y7887868D01*
X6528307Y7886446D01*
X6609283Y7886446D01*
X6613194Y7885684D01*
X6616496Y7883448D01*
X6638848Y7861096D01*
X6641084Y7857794D01*
X6641846Y7853883D01*
X6641846Y7830007D01*
X6641084Y7826095D01*
X6638848Y7822793D01*
X6637223Y7821168D01*
X6631635Y7813141D01*
X6627469Y7804302D01*
X6624980Y7794853D01*
X6624116Y7785100D01*
X6624980Y7775346D01*
X6627469Y7765897D01*
X6631635Y7757058D01*
X6637223Y7749031D01*
X6644131Y7742123D01*
X6652158Y7736535D01*
X6660997Y7732369D01*
X6670446Y7729880D01*
X6680200Y7729016D01*
X6689953Y7729880D01*
X6699402Y7732369D01*
X6708241Y7736535D01*
X6716268Y7742123D01*
X6723176Y7749031D01*
X6728764Y7757058D01*
X6732930Y7765897D01*
X6735419Y7775346D01*
X6736283Y7785100D01*
X6735419Y7794853D01*
X6732930Y7804302D01*
X6728764Y7813141D01*
X6723176Y7821168D01*
X6721551Y7822793D01*
X6719316Y7826095D01*
X6718553Y7830007D01*
X6718553Y7873492D01*
X6717792Y7881467D01*
X6715607Y7888681D01*
X6712051Y7895285D01*
X6706971Y7901482D01*
X6656882Y7951571D01*
X6650685Y7956651D01*
X6644081Y7960207D01*
X6636867Y7962392D01*
X6628892Y7963153D01*
X6547916Y7963153D01*
X6544005Y7963916D01*
X6540703Y7966151D01*
X6429451Y8077403D01*
X6427216Y8080705D01*
X6426454Y8084616D01*
X6426454Y8190992D01*
X6425692Y8198967D01*
X6423507Y8206181D01*
X6419951Y8212785D01*
X6414871Y8218982D01*
X6277051Y8356803D01*
X6274816Y8360105D01*
X6274054Y8364016D01*
X6274054Y8425383D01*
X6274816Y8429294D01*
X6277051Y8432596D01*
X6307277Y8462822D01*
X6310122Y8464854D01*
X6313576Y8465769D01*
X6321653Y8466480D01*
X6331102Y8468969D01*
X6339941Y8473135D01*
X6347968Y8478723D01*
X6354876Y8485632D01*
X6360464Y8493658D01*
X6364630Y8502497D01*
X6367119Y8511946D01*
X6367983Y8521700D01*
X6367119Y8531453D01*
X6364630Y8540902D01*
X6360464Y8549741D01*
X6354876Y8557768D01*
X6347968Y8564676D01*
X6339941Y8570264D01*
X6331102Y8574430D01*
X6321653Y8576919D01*
X6311900Y8577783D01*
X6302146Y8576919D01*
X6292697Y8574430D01*
X6283858Y8570264D01*
X6275832Y8564676D01*
X6268923Y8557768D01*
X6263335Y8549741D01*
X6259169Y8540902D01*
X6256680Y8531453D01*
X6255969Y8523376D01*
X6255054Y8519922D01*
X6253022Y8517077D01*
X6208928Y8472982D01*
X6203848Y8466785D01*
X6200292Y8460181D01*
X6198108Y8452967D01*
X6197346Y8444992D01*
X6197346Y8344408D01*
X6198108Y8336432D01*
X6200292Y8329218D01*
X6203848Y8322614D01*
X6208928Y8316417D01*
X6224981Y8300364D01*
X6227318Y8296808D01*
X6227978Y8292642D01*
X6226860Y8288578D01*
X6224219Y8285276D01*
X6220460Y8283346D01*
X6216497Y8282330D01*
X6207658Y8278164D01*
X6199632Y8272576D01*
X6192723Y8265668D01*
X6187135Y8257641D01*
X6182969Y8248802D01*
X6180480Y8239353D01*
X6179616Y8229600D01*
X6180480Y8219846D01*
X6182969Y8210397D01*
X6187135Y8201558D01*
X6192723Y8193531D01*
X6199632Y8186623D01*
X6207658Y8181035D01*
X6216497Y8176869D01*
X6225946Y8174380D01*
X6235700Y8173516D01*
X6245453Y8174380D01*
X6252921Y8176361D01*
X6256426Y8176666D01*
X6259830Y8175752D01*
X6262725Y8173720D01*
X6295948Y8140496D01*
X6298184Y8137194D01*
X6298946Y8133283D01*
X6298946Y7988808D01*
X6299708Y7980832D01*
X6300317Y7978902D01*
X6300673Y7974634D01*
X6299200Y7970621D01*
X6296253Y7967522D01*
X6292240Y7965948D01*
X6287973Y7966151D01*
X6283553Y7967319D01*
X6275476Y7968030D01*
X6272072Y7968945D01*
X6269177Y7970977D01*
X6267145Y7973872D01*
X6266230Y7977276D01*
X6265519Y7985353D01*
X6263030Y7994802D01*
X6258864Y8003641D01*
X6253276Y8011668D01*
X6246368Y8018576D01*
X6238341Y8024164D01*
X6229502Y8028330D01*
X6220053Y8030819D01*
X6210300Y8031683D01*
X6200546Y8030819D01*
X6191097Y8028330D01*
X6182258Y8024164D01*
X6174232Y8018576D01*
X6167323Y8011668D01*
X6161735Y8003641D01*
X6157569Y7994802D01*
X6155080Y7985353D01*
X6154369Y7977276D01*
X6153454Y7973872D01*
X6151422Y7970977D01*
X6148527Y7968945D01*
X6145123Y7968030D01*
X6137046Y7967319D01*
X6127597Y7964830D01*
X6118758Y7960664D01*
X6110732Y7955076D01*
X6103823Y7948168D01*
X6098235Y7940141D01*
X6094069Y7931302D01*
X6091580Y7921853D01*
X6090869Y7913776D01*
X6089954Y7910372D01*
X6087922Y7907477D01*
X6085027Y7905445D01*
X6081623Y7904530D01*
X6073546Y7903819D01*
X6064097Y7901330D01*
X6055258Y7897164D01*
X6047232Y7891576D01*
X6040323Y7884668D01*
X6034735Y7876641D01*
X6030569Y7867802D01*
X6028080Y7858353D01*
X6027369Y7850276D01*
X6026454Y7846872D01*
X6024422Y7843977D01*
X6021527Y7841945D01*
X6018123Y7841030D01*
X6010046Y7840319D01*
X6000597Y7837830D01*
X5991758Y7833664D01*
X5983732Y7828076D01*
X5976823Y7821168D01*
X5971235Y7813141D01*
X5967069Y7804302D01*
X5964580Y7794853D01*
X5963716Y7785100D01*
X5964580Y7775346D01*
X5967069Y7765897D01*
X5971235Y7757058D01*
X5976823Y7749031D01*
X5983732Y7742123D01*
X5991758Y7736535D01*
X6000597Y7732369D01*
X6010046Y7729880D01*
X6018123Y7729169D01*
X6021527Y7728254D01*
X6024422Y7726222D01*
X6026454Y7723327D01*
X6027369Y7719923D01*
X6028080Y7711846D01*
X6030569Y7702397D01*
X6034735Y7693558D01*
X6040323Y7685531D01*
X6047232Y7678623D01*
X6055258Y7673035D01*
X6064097Y7668869D01*
X6073546Y7666380D01*
X6081623Y7665669D01*
X6085027Y7664754D01*
X6087922Y7662722D01*
X6089954Y7659827D01*
X6090869Y7656423D01*
X6091580Y7648346D01*
X6094069Y7638897D01*
X6098235Y7630058D01*
X6103823Y7622031D01*
X6110732Y7615123D01*
X6118758Y7609535D01*
X6127597Y7605369D01*
X6137046Y7602880D01*
X6145123Y7602169D01*
X6148527Y7601254D01*
X6151422Y7599222D01*
X6153454Y7596327D01*
X6154369Y7592923D01*
X6155080Y7584846D01*
X6157569Y7575397D01*
X6161735Y7566558D01*
X6167323Y7558531D01*
X6174232Y7551623D01*
X6182258Y7546035D01*
X6191097Y7541869D01*
X6200546Y7539380D01*
X6210300Y7538516D01*
X6220053Y7539380D01*
X6229502Y7541869D01*
X6238341Y7546035D01*
X6246368Y7551623D01*
X6253276Y7558531D01*
X6258864Y7566558D01*
X6263030Y7575397D01*
X6265519Y7584846D01*
X6266230Y7592923D01*
X6267145Y7596327D01*
X6269177Y7599222D01*
X6272072Y7601254D01*
X6275476Y7602169D01*
X6283553Y7602880D01*
X6293002Y7605369D01*
X6301841Y7609535D01*
X6309868Y7615123D01*
X6316776Y7622031D01*
X6322364Y7630058D01*
X6326530Y7638897D01*
X6329019Y7648346D01*
X6329730Y7656423D01*
X6330645Y7659827D01*
X6332677Y7662722D01*
X6335572Y7664754D01*
X6338976Y7665669D01*
X6347053Y7666380D01*
X6356502Y7668869D01*
X6365341Y7673035D01*
X6373368Y7678623D01*
X6380276Y7685531D01*
X6385864Y7693558D01*
X6390030Y7702397D01*
X6392519Y7711846D01*
X6393230Y7719923D01*
X6394145Y7723327D01*
X6396177Y7726222D01*
X6399072Y7728254D01*
X6402476Y7729169D01*
X6410553Y7729880D01*
X6420002Y7732369D01*
X6428841Y7736535D01*
X6435344Y7741056D01*
X6439408Y7742783D01*
X6443827Y7742580D01*
X6447739Y7740548D01*
X6450380Y7737043D01*
X6451346Y7732775D01*
X6451346Y7531608D01*
X6452108Y7523632D01*
X6454292Y7516418D01*
X6457848Y7509814D01*
X6462928Y7503617D01*
X6545122Y7421422D01*
X6547154Y7418578D01*
X6548069Y7415123D01*
X6548780Y7407046D01*
X6551269Y7397597D01*
X6555435Y7388758D01*
X6561023Y7380731D01*
X6567931Y7373823D01*
X6575958Y7368235D01*
X6584797Y7364069D01*
X6594246Y7361580D01*
G37*
G36*
X7336891Y7505750D02*
G01*
X7446162Y7505750D01*
X7457440Y7506563D01*
X7468057Y7509002D01*
X7478268Y7513015D01*
X7487716Y7518450D01*
X7496251Y7525258D01*
X7503718Y7533284D01*
X7509865Y7542326D01*
X7514590Y7552181D01*
X7517841Y7562596D01*
X7519466Y7573416D01*
X7519466Y7584338D01*
X7517841Y7595158D01*
X7514590Y7605623D01*
X7509865Y7615428D01*
X7503718Y7624470D01*
X7496251Y7632496D01*
X7487716Y7639303D01*
X7478268Y7644790D01*
X7468057Y7648752D01*
X7457440Y7651191D01*
X7446162Y7652054D01*
X7336891Y7652054D01*
X7325614Y7651191D01*
X7314996Y7648752D01*
X7304786Y7644790D01*
X7295337Y7639303D01*
X7286802Y7632496D01*
X7279335Y7624470D01*
X7273188Y7615428D01*
X7268464Y7605623D01*
X7265212Y7595158D01*
X7263587Y7584338D01*
X7263587Y7573416D01*
X7265212Y7562596D01*
X7268464Y7552181D01*
X7273188Y7542326D01*
X7279335Y7533284D01*
X7286802Y7525258D01*
X7295337Y7518450D01*
X7304786Y7513015D01*
X7314996Y7509002D01*
X7325614Y7506563D01*
G37*

%LPD*%
D16*
X5041900Y9804400D02*
G01*
X5346700Y9804400D01*
X5816600Y9334500D01*
X6477000Y9334500D01*
X6743700Y9067800D01*
X6743700Y8420100D01*
X6959600Y8204200D01*
X6959600Y7277100D01*
X6667500Y6985000D01*
X6667500Y6692900D01*
D10*
X1939998Y9780015D02*
G01*
X1939998Y9730011D01*
X2070000Y9600008D01*
X2070000Y9110004D01*
X2290005Y8890000D01*
X2359990Y8890000D01*
X2269997Y9060002D02*
G01*
X2510002Y9060002D01*
X2560017Y9110017D01*
X2120900Y6464300D02*
G01*
X2438400Y6781800D01*
X2806700Y6781800D01*
X2959100Y6934200D01*
X3263900Y6934200D01*
X3517900Y7188200D01*
X3517900Y8458200D01*
X3670300Y8610600D01*
X3962400Y8610600D01*
X4267200Y8915400D01*
X4267200Y9128760D01*
D12*
X3009900Y10033000D02*
G01*
X3009900Y10058400D01*
X2946400Y10121900D01*
X2413000Y10121900D01*
X2374900Y10083800D01*
D10*
X3644900Y6464300D02*
G01*
X3657600Y6464300D01*
X3822700Y6629400D01*
X3949700Y6629400D01*
X4165600Y6845300D01*
X4165600Y7366000D01*
X4381500Y7581900D01*
X4381500Y7975600D01*
X4495800Y8089900D01*
X4495800Y8483600D01*
X4762500Y8750300D01*
X4254500Y9347200D02*
G01*
X4445000Y9537700D01*
X5461000Y9537700D01*
X5638800Y9359900D01*
X5638800Y8940800D01*
X5549900Y8851900D01*
X5486400Y8851900D01*
X4926683Y8625786D02*
G01*
X5069791Y8625786D01*
X5130800Y8686794D01*
X5130800Y8737600D01*
X4926584Y8625839D02*
G01*
X4790440Y8625839D01*
X4546600Y8382000D01*
X4546600Y8064500D01*
X4432300Y7950200D01*
X4432300Y7569200D01*
X4216400Y7353300D01*
X4216400Y6819900D01*
X3898900Y6502400D01*
X3898900Y6464300D01*
X3390900Y6464300D02*
G01*
X3390900Y6502400D01*
X3568700Y6680200D01*
X3924300Y6680200D01*
X4114800Y6870700D01*
X4114800Y7378700D01*
X4330700Y7594600D01*
X4330700Y7988300D01*
X4454906Y8112505D01*
X4454906Y8557005D01*
X4775200Y8877300D01*
X4926584Y8877300D01*
X4926584Y8854439D01*
X4926584Y8473439D02*
G01*
X4790440Y8473439D01*
X4610100Y8293100D01*
X4610100Y8026400D01*
X4483100Y7899400D01*
X4483100Y7543800D01*
X4267200Y7327900D01*
X4267200Y6794500D01*
X4152900Y6680200D01*
X4152900Y6464300D01*
X5168900Y8839200D02*
G01*
X5128282Y8879817D01*
X4958593Y8879817D01*
X3226815Y7609839D02*
G01*
X3108959Y7609839D01*
X2921000Y7797800D01*
X2921000Y7911592D01*
X2882900Y7949692D01*
X3226716Y7990804D02*
G01*
X2956595Y7990804D01*
X2794000Y8153400D01*
X2705100Y8153400D01*
X2616200Y8242300D01*
X3226815Y8625839D02*
G01*
X3324859Y8625839D01*
X3403600Y8547100D01*
X3403600Y8496300D01*
X3226815Y8498839D02*
G01*
X3299459Y8498839D01*
X3403600Y8394700D01*
X3403600Y8382000D01*
X3226815Y8371839D02*
G01*
X3324859Y8371839D01*
X3403600Y8293100D01*
X3403600Y8255000D01*
X3226815Y8244839D02*
G01*
X3312159Y8244839D01*
X3403600Y8153400D01*
X3403600Y8115300D01*
X3226815Y8117839D02*
G01*
X3299459Y8117839D01*
X3403600Y8013700D01*
X3403600Y8001000D01*
X3226815Y7990839D02*
G01*
X3299459Y7990839D01*
X3403600Y7886700D01*
X3403600Y7861300D01*
X3226815Y7863839D02*
G01*
X3299459Y7863839D01*
X3403600Y7759700D01*
X3403600Y7747000D01*
X3226815Y7736839D02*
G01*
X3312159Y7736839D01*
X3403600Y7645400D01*
X3403600Y7594600D01*
X3226815Y7609839D02*
G01*
X3299459Y7609839D01*
X3403600Y7505700D01*
X3403600Y7493000D01*
X2755900Y8039100D02*
G01*
X2806700Y8039100D01*
X2882900Y7962900D01*
X2882900Y7937500D01*
X2819400Y7874000D01*
X2743200Y7874000D01*
X4102100Y9677400D02*
G01*
X4102100Y9601200D01*
X4000500Y9499600D01*
X2819400Y9499600D01*
X2667000Y9347200D01*
X2667000Y8534400D01*
X2717800Y8483600D01*
D16*
X7569200Y7200900D02*
G01*
X7569200Y7366000D01*
X7518400Y7416800D01*
X7226300Y7416800D01*
D15*
X6946900Y5956300D02*
G01*
X6883400Y5892800D01*
X6311900Y5892800D01*
D16*
X4318000Y9791700D02*
G01*
X5029200Y9791700D01*
X5041900Y9804400D01*
X6743700Y8420100D02*
G01*
X6654800Y8420100D01*
X6591300Y8356600D01*
D10*
X6235700Y8229600D02*
G01*
X6261100Y8229600D01*
X6337300Y8153400D01*
X6337300Y7988300D01*
X6489700Y7835900D01*
X6489700Y7531100D01*
X6604000Y7416800D01*
X6680200Y7785100D02*
G01*
X6680200Y7874000D01*
X6629400Y7924800D01*
X6527800Y7924800D01*
X6388100Y8064500D01*
X6388100Y8191500D01*
X4926685Y7482814D02*
G01*
X5133314Y7482814D01*
X5207000Y7556500D01*
X5207000Y7620000D01*
X5257800Y7670800D01*
X5334000Y7670800D01*
X4926685Y8371814D02*
G01*
X4828514Y8371814D01*
X4660900Y8204200D01*
X4660900Y7988300D01*
X4533900Y7861300D01*
X4533900Y7531100D01*
X4318000Y7315200D01*
X4318000Y6807200D01*
X4445000Y6680200D01*
X4445000Y6565900D01*
X4406900Y6527800D01*
X4406900Y6464300D01*
X4926685Y9006814D02*
G01*
X4815814Y9006814D01*
X4406900Y8597900D01*
X4406900Y8140700D01*
X4279900Y8013700D01*
X4279900Y7632700D01*
X4064000Y7416800D01*
X4064000Y6896100D01*
X3898900Y6731000D01*
X3492500Y6731000D01*
X3365500Y6604000D01*
X3251200Y6604000D01*
X3136900Y6489700D01*
X3136900Y6464300D01*
X4648200Y9128810D02*
G01*
X4648200Y8928100D01*
X4178300Y8458200D01*
X3759200Y8458200D01*
X3670300Y8369300D01*
X3670300Y7073900D01*
X3378200Y6781800D01*
X3060700Y6781800D01*
X2895600Y6616700D01*
X2895600Y6477000D01*
X2882900Y6464300D01*
X4926685Y7482814D02*
G01*
X4866614Y7482814D01*
X4622800Y7239000D01*
X4622800Y6946900D01*
X4724400Y6845300D01*
X5892800Y6845300D01*
X6172200Y6565900D01*
X6172200Y6477000D01*
X6184900Y6464300D01*
X5930900Y6464300D02*
G01*
X5943600Y6477000D01*
X5943600Y6502400D01*
X5651500Y6794500D01*
X4699000Y6794500D01*
X4572000Y6921500D01*
X4572000Y7251700D01*
X4787900Y7467600D01*
X4787900Y7543800D01*
X4853914Y7609814D01*
X4926685Y7609814D01*
X4926685Y7736814D02*
G01*
X4853914Y7736814D01*
X4737100Y7620000D01*
X4737100Y7480300D01*
X4521200Y7264400D01*
X4521200Y6896100D01*
X4673600Y6743700D01*
X5524500Y6743700D01*
X5689600Y6578600D01*
X5689600Y6477000D01*
X5676900Y6464300D01*
X4926685Y7863814D02*
G01*
X4866614Y7863814D01*
X4686300Y7683500D01*
X4686300Y7493000D01*
X4470400Y7277100D01*
X4470400Y6870700D01*
X4648200Y6692900D01*
X5283200Y6692900D01*
X5422900Y6553200D01*
X5422900Y6464300D01*
X4660900Y6464300D02*
G01*
X4660900Y6527800D01*
X4368800Y6819900D01*
X4368800Y7302500D01*
X4584700Y7518400D01*
X4584700Y7835900D01*
X4724400Y7975600D01*
X4724400Y8140700D01*
X4828514Y8244814D01*
X4926685Y8244814D01*
X4648200Y9128810D02*
G01*
X4648200Y9258300D01*
X4926683Y8371817D02*
G01*
X5158717Y8371817D01*
X5207000Y8420100D01*
X4926683Y9006817D02*
G01*
X4929200Y9004300D01*
X5092700Y9004300D01*
X6515100Y8140700D02*
G01*
X6667500Y8140700D01*
X6680200Y8153400D01*
X6858000Y9207500D02*
G01*
X6858000Y9461500D01*
X7150100Y9461500D02*
G01*
X7277100Y9334500D01*
X7277100Y9207500D01*
X4926683Y7736817D02*
G01*
X5184117Y7736817D01*
X5227294Y7779994D01*
X5570016Y7779994D01*
X4926683Y7863817D02*
G01*
X5458482Y7863817D01*
X5461000Y7861300D01*
X5981700Y8661400D02*
G01*
X5709996Y8389696D01*
X5709996Y8249996D01*
X3226714Y8879814D02*
G01*
X3388385Y8879814D01*
X3403600Y8864600D01*
X3632200Y9128810D02*
G01*
X3657600Y9103410D01*
X3657600Y8801100D01*
X3759200Y9128810D02*
G01*
X3784600Y9103410D01*
X3784600Y8801100D01*
X3886200Y9128810D02*
G01*
X3911600Y9103410D01*
X3911600Y8801100D01*
X4013200Y9128813D02*
G01*
X4013200Y8851900D01*
X3226714Y8752814D02*
G01*
X3198799Y8724900D01*
X3035300Y8724900D01*
X2806700Y8293100D02*
G01*
X2806700Y8839200D01*
X2971800Y9004300D01*
X5105400Y7581900D02*
G01*
X5077485Y7609814D01*
X4926685Y7609814D01*
X3226714Y8371814D02*
G01*
X3226714Y8369300D01*
X2984500Y8369300D01*
X2933700Y8420100D01*
X2933700Y8432800D01*
X6578600Y8064500D02*
G01*
X6845300Y8064500D01*
X6845300Y8077200D01*
X3226714Y9006814D02*
G01*
X3375690Y9006814D01*
X3530600Y8851905D01*
X3530600Y8839200D01*
X3226714Y8752814D02*
G01*
X3226714Y8750300D01*
X3429000Y8750300D01*
X3429000Y8737600D01*
D16*
X3226714Y7355814D02*
G01*
X3226714Y7316114D01*
X3124200Y7213600D01*
X4926685Y7355814D02*
G01*
X4937785Y7355814D01*
X5080000Y7213600D01*
D10*
X2169998Y9300006D02*
G01*
X2379974Y9300006D01*
X2399990Y9279991D01*
D16*
X3505200Y9128810D02*
G01*
X3355289Y9128810D01*
X3352800Y9131300D01*
D10*
X1866900Y6464300D02*
G01*
X2006600Y6604000D01*
X2108200Y6604000D01*
X2349500Y6845300D01*
X2794000Y6845300D01*
X2933700Y6985000D01*
X3225800Y6985000D01*
X3467100Y7226300D01*
X3467100Y8483600D01*
X3644900Y8661400D01*
X3924300Y8661400D01*
X4140200Y8877300D01*
X4140200Y9128760D01*
X4394200Y9128760D02*
G01*
X4394200Y8953500D01*
X4000500Y8559800D01*
X3695700Y8559800D01*
X3568700Y8432800D01*
X3568700Y7150100D01*
X3302000Y6883400D01*
X2997200Y6883400D01*
X2819400Y6705600D01*
X2616200Y6705600D01*
X2374900Y6464300D01*
X4521200Y9103360D02*
G01*
X4521200Y8991600D01*
X4038600Y8509000D01*
X3721100Y8509000D01*
X3619500Y8407400D01*
X3619500Y7112000D01*
X3340100Y6832600D01*
X3035300Y6832600D01*
X2844800Y6642100D01*
X2717800Y6642100D01*
X2628900Y6553200D01*
X2628900Y6464300D01*
X4926685Y7990814D02*
G01*
X4853914Y7990814D01*
X4635500Y7772400D01*
X4635500Y7505700D01*
X4419600Y7289800D01*
X4419600Y6845300D01*
X4622800Y6642100D01*
X5029200Y6642100D01*
X5168900Y6502400D01*
X5168900Y6464300D01*
X4762500Y8750300D02*
G01*
X4924163Y8750300D01*
X4926683Y8752817D01*
X5400040Y8519921D02*
G01*
X5450077Y8487918D01*
X5450077Y8160004D01*
X4926584Y7990839D02*
G01*
X5110734Y7990839D01*
X5299963Y8180070D01*
X5299963Y8930131D01*
X5100065Y9130029D01*
X5009895Y9130029D01*
X4890008Y9249918D01*
X4890008Y9409937D01*
X4819904Y9480042D01*
X4641341Y9480042D01*
X4508500Y9347200D01*
X4038600Y9842500D02*
G01*
X4038600Y9613900D01*
X3975100Y9550400D01*
X2755900Y9550400D01*
X2501900Y9296400D01*
X2501900Y9168129D01*
X2560015Y9110014D01*
D11*
X5765800Y9766300D02*
G01*
X5765800Y9804400D01*
X5537200Y10033000D01*
X3323005Y10033000D01*
X3250006Y9960000D01*
X3250006Y9830000D01*
X3309998Y9770008D01*
D10*
X3962400Y9626600D02*
G01*
X3193288Y9626600D01*
X3109975Y9709912D01*
X3109975Y9882124D01*
X3048000Y9944100D01*
X2730500Y9944100D01*
X6388100Y8191500D02*
G01*
X6235700Y8343900D01*
X6235700Y8445500D01*
X6311900Y8521700D01*
G36*
X3126709Y7310798D02*
G01*
X3326709Y7310798D01*
X3326709Y7400800D01*
X3126709Y7400800D01*
G37*
G36*
X3126709Y7437798D02*
G01*
X3326709Y7437798D01*
X3326709Y7527800D01*
X3126709Y7527800D01*
G37*
G36*
X3126709Y7564798D02*
G01*
X3326709Y7564798D01*
X3326709Y7654800D01*
X3126709Y7654800D01*
G37*
G36*
X3126709Y7691798D02*
G01*
X3326709Y7691798D01*
X3326709Y7781800D01*
X3126709Y7781800D01*
G37*
G36*
X3126709Y7818798D02*
G01*
X3326709Y7818798D01*
X3326709Y7908800D01*
X3126709Y7908800D01*
G37*
G36*
X3126709Y7945798D02*
G01*
X3326709Y7945798D01*
X3326709Y8035800D01*
X3126709Y8035800D01*
G37*
G36*
X3126709Y8072798D02*
G01*
X3326709Y8072798D01*
X3326709Y8162800D01*
X3126709Y8162800D01*
G37*
G36*
X3126709Y8199798D02*
G01*
X3326709Y8199798D01*
X3326709Y8289800D01*
X3126709Y8289800D01*
G37*
G36*
X3126709Y8326798D02*
G01*
X3326709Y8326798D01*
X3326709Y8416800D01*
X3126709Y8416800D01*
G37*
G36*
X3126709Y8453798D02*
G01*
X3326709Y8453798D01*
X3326709Y8543800D01*
X3126709Y8543800D01*
G37*
G36*
X3126709Y8580798D02*
G01*
X3326709Y8580798D01*
X3326709Y8670800D01*
X3126709Y8670800D01*
G37*
G36*
X3126709Y8707798D02*
G01*
X3326709Y8707798D01*
X3326709Y8797800D01*
X3126709Y8797800D01*
G37*
G36*
X3126709Y8834798D02*
G01*
X3326709Y8834798D01*
X3326709Y8924800D01*
X3126709Y8924800D01*
G37*
G36*
X3126709Y8961798D02*
G01*
X3326709Y8961798D01*
X3326709Y9051800D01*
X3126709Y9051800D01*
G37*
G36*
X3550201Y9028811D02*
G01*
X3550201Y9228810D01*
X3460198Y9228810D01*
X3460198Y9028811D01*
G37*
G36*
X3677201Y9028811D02*
G01*
X3677201Y9228810D01*
X3587198Y9228810D01*
X3587198Y9028811D01*
G37*
G36*
X3804201Y9028811D02*
G01*
X3804201Y9228810D01*
X3714198Y9228810D01*
X3714198Y9028811D01*
G37*
G36*
X3931201Y9028811D02*
G01*
X3931201Y9228810D01*
X3841198Y9228810D01*
X3841198Y9028811D01*
G37*
G36*
X4058201Y9028811D02*
G01*
X4058201Y9228810D01*
X3968198Y9228810D01*
X3968198Y9028811D01*
G37*
G36*
X4095198Y9028790D02*
G01*
X4095198Y9228790D01*
X4185201Y9228790D01*
X4185201Y9028790D01*
G37*
G36*
X4222198Y9028790D02*
G01*
X4222198Y9228790D01*
X4312201Y9228790D01*
X4312201Y9028790D01*
G37*
G36*
X4349198Y9028790D02*
G01*
X4349198Y9228790D01*
X4439201Y9228790D01*
X4439201Y9028790D01*
G37*
G36*
X4476198Y9028790D02*
G01*
X4476198Y9228790D01*
X4566201Y9228790D01*
X4566201Y9028790D01*
G37*
G36*
X4603198Y9028790D02*
G01*
X4603198Y9228790D01*
X4693201Y9228790D01*
X4693201Y9028790D01*
G37*
G36*
X4826690Y9051800D02*
G01*
X5026690Y9051800D01*
X5026690Y8961798D01*
X4826690Y8961798D01*
G37*
G36*
X4826690Y8924800D02*
G01*
X5026690Y8924800D01*
X5026690Y8834798D01*
X4826690Y8834798D01*
G37*
G36*
X4826690Y8797800D02*
G01*
X5026690Y8797800D01*
X5026690Y8707798D01*
X4826690Y8707798D01*
G37*
G36*
X4826690Y8670800D02*
G01*
X5026690Y8670800D01*
X5026690Y8580798D01*
X4826690Y8580798D01*
G37*
G36*
X4826690Y8543800D02*
G01*
X5026690Y8543800D01*
X5026690Y8453798D01*
X4826690Y8453798D01*
G37*
G36*
X4826690Y8416800D02*
G01*
X5026690Y8416800D01*
X5026690Y8326798D01*
X4826690Y8326798D01*
G37*
G36*
X4826690Y8289800D02*
G01*
X5026690Y8289800D01*
X5026690Y8199798D01*
X4826690Y8199798D01*
G37*
G36*
X4826690Y8162800D02*
G01*
X5026690Y8162800D01*
X5026690Y8072798D01*
X4826690Y8072798D01*
G37*
G36*
X4826690Y8035800D02*
G01*
X5026690Y8035800D01*
X5026690Y7945798D01*
X4826690Y7945798D01*
G37*
G36*
X4826690Y7908800D02*
G01*
X5026690Y7908800D01*
X5026690Y7818798D01*
X4826690Y7818798D01*
G37*
G36*
X4826690Y7781800D02*
G01*
X5026690Y7781800D01*
X5026690Y7691798D01*
X4826690Y7691798D01*
G37*
G36*
X4826690Y7654800D02*
G01*
X5026690Y7654800D01*
X5026690Y7564798D01*
X4826690Y7564798D01*
G37*
G36*
X4826690Y7527800D02*
G01*
X5026690Y7527800D01*
X5026690Y7437798D01*
X4826690Y7437798D01*
G37*
G36*
X4826690Y7400800D02*
G01*
X5026690Y7400800D01*
X5026690Y7310798D01*
X4826690Y7310798D01*
G37*
G36*
X3724998Y7860101D02*
G01*
X4225000Y7860101D01*
X4225000Y8360100D01*
X3724998Y8360100D01*
G37*
D43*
G01*
X7454900Y9944100D03*
G01*
X7429500Y5981700D03*
G01*
X965200Y5994400D03*
G01*
X950010Y9940010D03*
D44*
G01*
X1469999Y7239990D03*
D45*
G01*
X6997700Y9880600D03*
G36*
X6653700Y9970599D02*
G01*
X6833699Y9970599D01*
X6833699Y9790600D01*
X6653700Y9790600D01*
G37*
G01*
X6438900Y6184900D03*
G01*
X6184900Y6184900D03*
G01*
X5930900Y6184900D03*
G01*
X5676900Y6184900D03*
G01*
X5422900Y6184900D03*
G01*
X5168900Y6184900D03*
G01*
X4914900Y6184900D03*
G01*
X4660900Y6184900D03*
G01*
X4406900Y6184900D03*
G01*
X4152900Y6184900D03*
G01*
X3898900Y6184900D03*
G01*
X3644900Y6184900D03*
G01*
X3390900Y6184900D03*
G01*
X3136900Y6184900D03*
G01*
X2882900Y6184900D03*
G01*
X2628900Y6184900D03*
G01*
X2374900Y6184900D03*
G01*
X2120900Y6184900D03*
G01*
X1866900Y6184900D03*
G36*
X1522900Y6274899D02*
G01*
X1702899Y6274899D01*
X1702899Y6094900D01*
X1522900Y6094900D01*
G37*
G01*
X1612900Y6464300D03*
G01*
X1866900Y6464300D03*
G01*
X2120900Y6464300D03*
G01*
X2374900Y6464300D03*
G01*
X2628900Y6464300D03*
G01*
X2882900Y6464300D03*
G01*
X3136900Y6464300D03*
G01*
X3390900Y6464300D03*
G01*
X3644900Y6464300D03*
G01*
X3898900Y6464300D03*
G01*
X4152900Y6464300D03*
G01*
X4406900Y6464300D03*
G01*
X4660900Y6464300D03*
G01*
X4914900Y6464300D03*
G01*
X5168900Y6464300D03*
G01*
X5422900Y6464300D03*
G01*
X5676900Y6464300D03*
G01*
X5930900Y6464300D03*
G01*
X6184900Y6464300D03*
D46*
G01*
X6438900Y6464300D03*
D47*
G01*
X2886913Y9241586D03*
G01*
X5370906Y9241586D03*
G01*
X5359400Y7366000D03*
G01*
X2882900Y7366000D03*
D48*
G01*
X5016500Y9347200D03*
G01*
X4762500Y9347200D03*
G01*
X4508500Y9347200D03*
G01*
X3746500Y9347200D03*
G01*
X4000500Y9347200D03*
G01*
X4254500Y9347200D03*
G36*
X3161499Y9424200D02*
G01*
X3315500Y9424200D01*
X3315500Y9270199D01*
X3161499Y9270199D01*
G37*
G01*
X3492500Y9347200D03*
D46*
G01*
X6273800Y9766300D03*
G01*
X6019800Y9512300D03*
G01*
X5765800Y9766300D03*
D50*
G01*
X1112520Y9505467D03*
G01*
X1366520Y9505467D03*
G01*
X1620520Y9505467D03*
D51*
G01*
X1874494Y9505467D03*
D21*
G01*
X1948992Y7590002D03*
G01*
X1885492Y7590002D03*
G01*
X1821992Y7590002D03*
G01*
X1758492Y7590002D03*
G01*
X1694992Y7590002D03*
G01*
X1631492Y7590002D03*
G01*
X1567992Y7590002D03*
G01*
X1440992Y7590002D03*
G01*
X1504492Y7590002D03*
G01*
X1377492Y7590002D03*
G01*
X1313992Y7590002D03*
G01*
X1250492Y7590002D03*
G01*
X1186992Y7590002D03*
G01*
X1123492Y7590002D03*
G01*
X1059992Y7590002D03*
D22*
G01*
X1790014Y8000009D03*
G01*
X2269997Y9060002D03*
G01*
X2099995Y10019995D03*
G01*
X2120011Y9780015D03*
G01*
X2099995Y9840010D03*
G01*
X2099995Y9900005D03*
G01*
X2099995Y9960000D03*
G01*
X2180005Y9619995D03*
G01*
X2129993Y9670008D03*
G01*
X2089988Y9719995D03*
G01*
X2059990Y9770008D03*
G01*
X2040000Y9830003D03*
G01*
X2040000Y9889997D03*
G01*
X2040000Y9949992D03*
G01*
X2040000Y10010012D03*
D21*
G01*
X2310002Y7674000D03*
G01*
X2310002Y8690000D03*
G01*
X2359990Y8890000D03*
G01*
X1940001Y9780015D03*
G01*
X1485900Y9766300D03*
G01*
X5130800Y8737600D03*
G01*
X2374900Y10083800D03*
G01*
X3009900Y10033000D03*
G01*
X1803400Y9207500D03*
G01*
X3352800Y9131300D03*
G01*
X2169998Y9300006D03*
G01*
X5080000Y7213600D03*
G01*
X3124200Y7213600D03*
G01*
X1659991Y8940012D03*
G01*
X3860800Y8191500D03*
G01*
X4051300Y8064500D03*
G01*
X4051300Y8128000D03*
G01*
X4051300Y8191500D03*
G01*
X3924300Y8064500D03*
G01*
X3987800Y8001000D03*
G01*
X3987800Y8128000D03*
G01*
X3987800Y8191500D03*
G01*
X3987800Y8064500D03*
G01*
X3924300Y8128000D03*
G01*
X3920007Y8190001D03*
G01*
X4051300Y7937500D03*
G01*
X3856507Y8126501D03*
G01*
X4051300Y8001000D03*
G01*
X6146800Y7912100D03*
G01*
X6083300Y7848600D03*
G01*
X6083300Y7721600D03*
G01*
X6146800Y7658100D03*
G01*
X6273800Y7658100D03*
G01*
X6337300Y7721600D03*
G01*
X6337300Y7848600D03*
G01*
X6273800Y7912100D03*
G01*
X6210300Y7975600D03*
G01*
X6210300Y7594600D03*
G01*
X6400800Y7785100D03*
G01*
X6019800Y7785100D03*
G01*
X6146800Y7721600D03*
G01*
X6273800Y7721600D03*
G01*
X6273800Y7848600D03*
G01*
X6146800Y7848600D03*
G01*
X6083300Y7785100D03*
G01*
X6146800Y7785100D03*
G01*
X6337300Y7785100D03*
G01*
X6273800Y7785100D03*
G01*
X6210300Y7658100D03*
G01*
X6210300Y7721600D03*
G01*
X6210300Y7785100D03*
G01*
X6210300Y7912100D03*
G01*
X6210300Y7848600D03*
G01*
X2259990Y7490002D03*
G01*
X2560015Y9110014D03*
G01*
X3962400Y9626600D03*
G01*
X2717800Y8483600D03*
G01*
X4038600Y9842500D03*
G01*
X2399995Y9279991D03*
G01*
X2739999Y9049994D03*
G01*
X5105400Y7581900D03*
G01*
X2806700Y8293100D03*
G01*
X2971800Y9004300D03*
G01*
X3403600Y7493000D03*
G01*
X3403600Y7594600D03*
G01*
X3403600Y7747000D03*
G01*
X3403600Y7861300D03*
G01*
X3403600Y8001000D03*
G01*
X3403600Y8115300D03*
G01*
X3403600Y8255000D03*
G01*
X3403600Y8382000D03*
G01*
X4102100Y9677400D03*
G01*
X3175000Y2146300D03*
G01*
X2743200Y7874000D03*
G01*
X2755900Y8039100D03*
G01*
X3530600Y8839200D03*
G01*
X3403600Y8864600D03*
G01*
X3035300Y8724900D03*
G01*
X2933700Y8432800D03*
G01*
X4013200Y8851900D03*
G01*
X3911600Y8801100D03*
G01*
X3784600Y8801100D03*
G01*
X3657600Y8801100D03*
G01*
X3429000Y8737600D03*
G01*
X3403600Y8496300D03*
G01*
X6946900Y5956300D03*
G01*
X6311900Y5892800D03*
G01*
X6235700Y8229600D03*
G01*
X5709996Y8249996D03*
G01*
X5981700Y8661400D03*
G01*
X6680200Y8153400D03*
G01*
X6845300Y8077200D03*
G01*
X5570016Y7779994D03*
G01*
X5461000Y7861300D03*
G01*
X6578600Y8064500D03*
G01*
X6515100Y8140700D03*
G01*
X7277100Y9207500D03*
G01*
X7150100Y9461500D03*
G01*
X6858000Y9461500D03*
G01*
X6858000Y9207500D03*
G01*
X6311900Y8521700D03*
G01*
X6680200Y7785100D03*
G01*
X6604000Y7416800D03*
G01*
X5168900Y8839200D03*
G01*
X5092700Y9004300D03*
G01*
X5207000Y8420100D03*
G01*
X5400014Y8519998D03*
G01*
X5334000Y7670800D03*
G01*
X5450001Y8160004D03*
G01*
X4648200Y9258300D03*
G01*
X5041900Y9804400D03*
G01*
X4305300Y9791700D03*
D15*
G01*
X6667500Y6692900D03*
G01*
X6108700Y6921500D03*
G01*
X6591300Y8356600D03*
D21*
G01*
X7226300Y7416800D03*
G01*
X7569200Y7200900D03*
D13*
G01*
X1099997Y8530005D03*
D21*
G01*
X2310002Y7991500D03*
G01*
X2310002Y8055000D03*
G01*
X2310002Y8118500D03*
G01*
X2310002Y7928000D03*
G01*
X2310002Y8245500D03*
G01*
X2310002Y8309000D03*
G01*
X2310002Y8372500D03*
G01*
X2310002Y8182000D03*
G01*
X2310002Y8499500D03*
G01*
X2310002Y8563000D03*
G01*
X2310002Y8626500D03*
G01*
X2310002Y8436000D03*
G01*
X2310002Y7737500D03*
G01*
X2310002Y7801000D03*
G01*
X2310002Y7864500D03*
G01*
X3310000Y9770008D03*
G01*
X2616200Y8242300D03*
G01*
X2730500Y9944100D03*
G01*
X5486400Y8851900D03*
G01*
X3250006Y9960000D03*
D52*
X7336502Y7578801D02*
G01*
X7446502Y7578801D01*
X7336502Y8143798D02*
G01*
X7446502Y8143798D01*
M02*
