G04 Layer: BoardOutline*
G04 EasyEDA v6.4.17, 2021-08-18T09:55:10--4:00*
G04 6e8a5ac20ec34cd9bcedad4da788ba3a,10*
G04 Gerber Generator version 0.2*
G04 Scale: 100 percent, Rotated: No, Reflected: No *
G04 Dimensions in millimeters *
G04 leading zeros omitted , absolute positions ,4 integer and 5 decimal *
%FSLAX45Y45*%
%MOMM*%

%ADD10C,0.2540*%
D10*
X700023Y10199878D02*
G01*
X7700009Y10199878D01*
X7700009Y5676900D01*
X673100Y5676900D01*
X673100Y10199878D01*
X700023Y10199878D01*
X1100002Y8685004D02*
G01*
X1100002Y8695004D01*
X1100002Y8695004D02*
G01*
X1020003Y8775004D01*
X1020003Y8775004D02*
G01*
X1430004Y8775004D01*
X1430004Y8775004D02*
G01*
X1980003Y8775004D01*
X1980003Y8775004D02*
G01*
X1980003Y8775004D01*
X1980003Y8775004D02*
G01*
X1900003Y8695004D01*
X1900003Y8695004D02*
G01*
X1900003Y8685004D01*
X1900003Y8685004D02*
G01*
X1100002Y8685004D01*
X1900001Y7740004D02*
G01*
X1900001Y7730004D01*
X1900001Y7730004D02*
G01*
X1980001Y7650005D01*
X1980001Y7650005D02*
G01*
X1569999Y7650005D01*
X1569999Y7650005D02*
G01*
X1020000Y7650005D01*
X1020000Y7650005D02*
G01*
X1020000Y7650005D01*
X1020000Y7650005D02*
G01*
X1100000Y7730004D01*
X1100000Y7730004D02*
G01*
X1100000Y7740004D01*
X1100000Y7740004D02*
G01*
X1900001Y7740004D01*
X2150000Y8590005D02*
G01*
X2160000Y8590005D01*
X2160000Y8590005D02*
G01*
X2240000Y8670005D01*
X2240000Y8670005D02*
G01*
X2240000Y8260003D01*
X2240000Y8260003D02*
G01*
X2240000Y7710004D01*
X2240000Y7710004D02*
G01*
X2240000Y7710004D01*
X2240000Y7710004D02*
G01*
X2160000Y7790004D01*
X2160000Y7790004D02*
G01*
X2150000Y7790004D01*
X2150000Y7790004D02*
G01*
X2150000Y8590005D01*
X2351105Y8661654D02*
G01*
X2351105Y8725154D01*
X2351105Y8725154D02*
G01*
X2389205Y8763254D01*
X2389205Y8763254D02*
G01*
X2490805Y8763254D01*
X2490805Y8763254D02*
G01*
X2528905Y8725154D01*
X2528905Y8725154D02*
G01*
X2528905Y7594854D01*
X2528905Y7594854D02*
G01*
X2490805Y7556754D01*
X2490805Y7556754D02*
G01*
X2389205Y7556754D01*
X2389205Y7556754D02*
G01*
X2351105Y7594854D01*
X2351105Y7594854D02*
G01*
X2351105Y8661654D01*

%LPD*%
M02*
