M48
METRIC,LZ,000.000
;FILE_FORMAT=3:3
;TYPE=PLATED
;Layer: Drill PTH
;EasyEDA v6.4.17, 2021-08-18T09:55:10--4:00
;6e8a5ac20ec34cd9bcedad4da788ba3a,10
;Gerber Generator version 0.2
;Holesize 1 = 0.305 mm
T01C0.305
;Holesize 2 = 0.306 mm
T02C0.306
;Holesize 3 = 0.450 mm
T03C0.450
;Holesize 4 = 0.501 mm
T04C0.501
;Holesize 5 = 0.889 mm
T05C0.889
;Holesize 6 = 0.901 mm
T06C0.901
;Holesize 7 = 1.200 mm
T07C1.200
;Holesize 8 = 2.501 mm
T08C2.501
;Holesize 9 = 3.101 mm
T09C3.101
%
G05
G90
T01
X019490Y075900
X018855Y075900
X018220Y075900
X017585Y075900
X016950Y075900
X016315Y075900
X015680Y075900
X014410Y075900
X015045Y075900
X013775Y075900
X013140Y075900
X012505Y075900
X011870Y075900
X011235Y075900
X010600Y075900
X023100Y076740
X023100Y086900
X023600Y088900
X019400Y097800
X014859Y097663
X051308Y087376
X023749Y100838
X030099Y100330
X018034Y092075
X033528Y091313
X021700Y093000
X050800Y072136
X031242Y072136
X016600Y089400
X038608Y081915
X040513Y080645
X040513Y081280
X040513Y081915
X039243Y080645
X039878Y080010
X039878Y081280
X039878Y081915
X039878Y080645
X039243Y081280
X039200Y081900
X040513Y079375
X038565Y081265
X040513Y080010
X061468Y079121
X060833Y078486
X060833Y077216
X061468Y076581
X062738Y076581
X063373Y077216
X063373Y078486
X062738Y079121
X062103Y079756
X062103Y075946
X064008Y077851
X060198Y077851
X061468Y077216
X062738Y077216
X062738Y078486
X061468Y078486
X060833Y077851
X061468Y077851
X063373Y077851
X062738Y077851
X062103Y076581
X062103Y077216
X062103Y077851
X062103Y079121
X062103Y078486
X022600Y074900
X025600Y091100
X039624Y096266
X027178Y084836
X040386Y098425
X024000Y092800
X027400Y090500
X051054Y075819
X028067Y082931
X029718Y090043
X034036Y074930
X034036Y075946
X034036Y077470
X034036Y078613
X034036Y080010
X034036Y081153
X034036Y082550
X034036Y083820
X041021Y096774
X031750Y021463
X027432Y078740
X027559Y080391
X035306Y088392
X034036Y088646
X030353Y087249
X029337Y084328
X040132Y088519
X039116Y088011
X037846Y088011
X036576Y088011
X034290Y087376
X034036Y084963
X069469Y059563
X063119Y058928
X062357Y082296
X057100Y082500
X059817Y086614
X066802Y081534
X068453Y080772
X055700Y077800
X054610Y078613
X065786Y080645
X065151Y081407
X072771Y092075
X071501Y094615
X068580Y094615
X068580Y092075
X063119Y085217
X066802Y077851
X066040Y074168
X051689Y088392
X050927Y090043
X052070Y084201
X054000Y085200
X053340Y076708
X054500Y081600
X046482Y092583
X050419Y098044
X043053Y097917
X072263Y074168
X075692Y072009
X023100Y079915
X023100Y080550
X023100Y081185
X023100Y079280
X023100Y082455
X023100Y083090
X023100Y083725
X023100Y081820
X023100Y084995
X023100Y085630
X023100Y086265
X023100Y084360
X023100Y077375
X023100Y078010
X023100Y078645
X033100Y097700
X026162Y082423
X027305Y099441
X054864Y088519
X032500Y099600
T02
X017900Y080000
X022700Y090600
X021000Y100200
X021200Y097800
X021000Y098400
X021000Y099000
X021000Y099600
X021800Y096200
X021300Y096700
X020900Y097200
X020600Y097700
X020400Y098300
X020400Y098900
X020400Y099500
X020400Y100100
T03
X074465Y075789G85X073365Y075789
X074465Y081439G85X073365Y081439
T04
X066675Y066929
X061087Y069215
X065913Y083566
X011000Y085300
T05
X011125Y095055
X013665Y095055
X016205Y095055
X018745Y095055
T06
X050165Y093472
X047625Y093472
X045085Y093472
X037465Y093472
X040005Y093472
X042545Y093472
X032385Y093472
X034925Y093472
T07
X069977Y098806
X067437Y098806
X064389Y061849
X061849Y061849
X059309Y061849
X056769Y061849
X054229Y061849
X051689Y061849
X049149Y061849
X046609Y061849
X044069Y061849
X041529Y061849
X038989Y061849
X036449Y061849
X033909Y061849
X031369Y061849
X028829Y061849
X026289Y061849
X023749Y061849
X021209Y061849
X018669Y061849
X016129Y061849
X016129Y064643
X018669Y064643
X021209Y064643
X023749Y064643
X026289Y064643
X028829Y064643
X031369Y064643
X033909Y064643
X036449Y064643
X038989Y064643
X041529Y064643
X044069Y064643
X046609Y064643
X049149Y064643
X051689Y064643
X054229Y064643
X056769Y064643
X059309Y064643
X061849Y064643
X064389Y064643
X062738Y097663
X060198Y095123
X057658Y097663
T08
X028869Y092416
X053709Y092416
X053594Y073660
X028829Y073660
T09
X074549Y099441
X074295Y059817
X009652Y059944
X009500Y099400
X014700Y072400
M30
